<svg version="1.1" xmlns="http://www.w3.org/2000/svg" xmlns:xlink="http://www.w3.org/1999/xlink" width="1580.2181" height="342.52754" viewBox="0,0,1580.2181,342.52754"><defs><linearGradient x1="255.47653" y1="540.00001" x2="1835.69463" y2="540.00001" gradientUnits="userSpaceOnUse" id="color-1"><stop offset="0" stop-color="#de9240"/><stop offset="1" stop-color="#ce8711"/></linearGradient></defs><g transform="translate(-255.47653,-368.73631)"><g data-paper-data="{&quot;isPaintingLayer&quot;:true}" stroke-linecap="square" stroke-linejoin="miter" stroke-miterlimit="10" stroke-dasharray="" stroke-dashoffset="0" style="mix-blend-mode: normal"><path d="M255.47653,401.39973c0,-18.0395 14.56854,-32.66341 32.53975,-32.66341h1515.1386c8.63001,0 16.9067,3.44131 23.00909,9.5669c6.10229,6.12557 9.53066,14.43365 9.53066,23.09652v277.20069c0,18.03951 -14.56854,32.66343 -32.53975,32.66343h-1515.1386c-17.97121,0 -32.53975,-14.62392 -32.53975,-32.66343z" fill="url(#color-1)" fill-rule="evenodd" stroke="none" stroke-width="1"/><g fill="#ffffff" fill-rule="nonzero" stroke="#ffffff" stroke-width="0"><path d="M305.53584,446.09203c-1.27591,0 -2.37357,-0.4597 -3.29297,-1.37911c-0.9194,-0.9194 -1.37911,-2.01706 -1.37911,-3.29297v-14.86056c0,-1.27591 0.4597,-2.37357 1.37911,-3.29297c0.9194,-0.9194 2.01706,-1.37911 3.29297,-1.37911h14.80427c1.31343,0 2.42986,0.4597 3.34926,1.37911c0.9194,0.9194 1.37911,2.01706 1.37911,3.29297v1.88572h-4.47506v-0.90064c0,-0.63795 -0.04691,-0.99446 -0.14073,-1.06951c-0.09382,-0.07505 -0.44094,-0.11258 -1.04137,-0.11258h-12.9467c-0.61919,0 -0.97569,0.03753 -1.06951,0.11258c-0.07505,0.07505 -0.11258,0.43156 -0.11258,1.06951v12.89041c0,0.63795 0.03753,0.99446 0.11258,1.06951c0.09382,0.07505 0.45032,0.11258 1.06951,0.11258h12.9467c0.60043,0 0.94755,-0.03753 1.04137,-0.11258c0.09382,-0.07505 0.14073,-0.43156 0.14073,-1.06951v-3.57442h-5.48828v-4.47506h9.96333v9.03455c0,1.27591 -0.4597,2.37357 -1.37911,3.29297c-0.9194,0.9194 -2.03583,1.37911 -3.34926,1.37911zM333.2311,446.09203c-1.27591,0 -2.37357,-0.45032 -3.29297,-1.35096c-0.90064,-0.9194 -1.35096,-2.01706 -1.35096,-3.29297v-10.21664c0,-1.27591 0.45032,-2.36418 1.35096,-3.26482c0.9194,-0.9194 2.01706,-1.37911 3.29297,-1.37911h10.49809c1.27591,0 2.36418,0.4597 3.26482,1.37911c0.9194,0.90064 1.37911,1.98891 1.37911,3.26482v7.34585h-15.39532v1.94201c0,0.61919 0.03753,0.97569 0.11258,1.06951c0.09382,0.07505 0.45032,0.11258 1.06951,0.11258h14.21323v4.39062zM332.9778,434.60887h11.0047v-2.42047c0,-0.63795 -0.04691,-0.99446 -0.14073,-1.06951c-0.07505,-0.07505 -0.42218,-0.11258 -1.04137,-0.11258h-8.64052c-0.61919,0 -0.97569,0.03753 -1.06951,0.11258c-0.07505,0.07505 -0.11258,0.43156 -0.11258,1.06951zM356.54215,446.09203c-1.27591,0 -2.37357,-0.45032 -3.29297,-1.35096c-0.90064,-0.9194 -1.35096,-2.01706 -1.35096,-3.29297v-20.8273h4.41877v5.96674h7.59915v4.41877h-7.59915v9.51301c0,0.61919 0.03753,0.97569 0.11258,1.06951c0.07505,0.07505 0.42218,0.11258 1.04137,0.11258h6.44521v4.39062zM381.51622,446.09203c-1.27591,0 -2.37357,-0.45032 -3.29297,-1.35096c-0.90064,-0.9194 -1.35096,-2.01706 -1.35096,-3.29297v-7.3177h15.39532v-1.94201c0,-0.63795 -0.03753,-0.99446 -0.11258,-1.06951c-0.07505,-0.07505 -0.43156,-0.11258 -1.06951,-0.11258h-14.21323v-4.41877h15.17016c1.27591,0 2.36418,0.4597 3.26482,1.37911c0.90064,0.90064 1.35096,1.98891 1.35096,3.26482v14.86056zM382.44501,441.7014h9.82261v-3.60256h-10.97655v2.42047c0,0.61919 0.03753,0.97569 0.11258,1.06951c0.07505,0.07505 0.42218,0.11258 1.04137,0.11258zM410.50558,446.09203v-21.24948c0,-1.27591 0.45032,-2.36418 1.35096,-3.26482c0.9194,-0.90064 2.01706,-1.35096 3.29297,-1.35096h7.37399v4.41877h-6.44521c-0.61919,0 -0.96631,0.04691 -1.04137,0.14073c-0.07505,0.07505 -0.11258,0.41279 -0.11258,1.01322v0.78806h7.59915v4.41877h-7.59915v15.08572zM424.92764,446.09203v-14.86056c0,-1.27591 0.45032,-2.36418 1.35096,-3.26482c0.9194,-0.9194 2.01706,-1.37911 3.29297,-1.37911h10.80768v4.41877h-9.8789c-0.61919,0 -0.96631,0.03753 -1.04137,0.11258c-0.07505,0.07505 -0.11258,0.43156 -0.11258,1.06951v13.90363zM447.32068,446.09203c-1.27591,0 -2.37357,-0.45032 -3.29297,-1.35096c-0.90064,-0.9194 -1.35096,-2.01706 -1.35096,-3.29297v-10.21664c0,-1.27591 0.45032,-2.36418 1.35096,-3.26482c0.9194,-0.9194 2.01706,-1.37911 3.29297,-1.37911h10.49809c1.27591,0 2.36418,0.4597 3.26482,1.37911c0.9194,0.90064 1.37911,1.98891 1.37911,3.26482v7.34585h-15.39532v1.94201c0,0.61919 0.03753,0.97569 0.11258,1.06951c0.09382,0.07505 0.45032,0.11258 1.06951,0.11258h14.21323v4.39062zM447.06737,434.60887h11.0047v-2.42047c0,-0.63795 -0.04691,-0.99446 -0.14073,-1.06951c-0.07505,-0.07505 -0.42218,-0.11258 -1.04137,-0.11258h-8.64052c-0.61919,0 -0.97569,0.03753 -1.06951,0.11258c-0.07505,0.07505 -0.11258,0.43156 -0.11258,1.06951zM469.83572,446.09203c-1.27591,0 -2.37357,-0.45032 -3.29297,-1.35096c-0.90064,-0.9194 -1.35096,-2.01706 -1.35096,-3.29297v-10.21664c0,-1.27591 0.45032,-2.36418 1.35096,-3.26482c0.9194,-0.9194 2.01706,-1.37911 3.29297,-1.37911h10.49809c1.27591,0 2.36418,0.4597 3.26482,1.37911c0.9194,0.90064 1.37911,1.98891 1.37911,3.26482v7.34585h-15.39532v1.94201c0,0.61919 0.03753,0.97569 0.11258,1.06951c0.09382,0.07505 0.45032,0.11258 1.06951,0.11258h14.21323v4.39062zM469.58241,434.60887h11.0047v-2.42047c0,-0.63795 -0.04691,-0.99446 -0.14073,-1.06951c-0.07505,-0.07505 -0.42218,-0.11258 -1.04137,-0.11258h-8.64052c-0.61919,0 -0.97569,0.03753 -1.06951,0.11258c-0.07505,0.07505 -0.11258,0.43156 -0.11258,1.06951z"/><path d="M300.52605,486.44075v-1.23838l9.09084,-10.86397l-9.09084,-10.86397v-1.23838h4.8128l7.26141,8.61237l7.17698,-8.61237h4.84094v1.23838l-9.14713,10.86397l9.14713,10.83583v1.26653h-4.84094l-7.23327,-8.55608l-7.20512,8.55608zM332.15548,486.44075c-1.27591,0 -2.37357,-0.45032 -3.29297,-1.35096c-0.90064,-0.9194 -1.35096,-2.01706 -1.35096,-3.29297v-10.21664c0,-1.27591 0.45032,-2.36418 1.35096,-3.26482c0.9194,-0.9194 2.01706,-1.37911 3.29297,-1.37911h10.49809c1.27591,0 2.36418,0.4597 3.26482,1.37911c0.9194,0.90064 1.37911,1.98891 1.37911,3.26482v7.34585h-15.39532v1.94201c0,0.61919 0.03753,0.97569 0.11258,1.06951c0.09382,0.07505 0.45032,0.11258 1.06951,0.11258h14.21323v4.39062zM331.90218,474.95759h11.0047v-2.42047c0,-0.63795 -0.04691,-0.99446 -0.14073,-1.06951c-0.07505,-0.07505 -0.42218,-0.11258 -1.04137,-0.11258h-8.64052c-0.61919,0 -0.97569,0.03753 -1.06951,0.11258c-0.07505,0.07505 -0.11258,0.43156 -0.11258,1.06951zM350.85075,486.44075v-19.50449h15.17016c1.27591,0 2.36418,0.4597 3.26482,1.37911c0.9194,0.90064 1.37911,1.98891 1.37911,3.26482v14.86056h-4.41877v-13.90363c0,-0.63795 -0.03753,-0.99446 -0.11258,-1.06951c-0.07505,-0.07505 -0.42218,-0.11258 -1.04137,-0.11258h-8.64052c-0.63795,0 -0.99446,0.03753 -1.06951,0.11258c-0.07505,0.07505 -0.11258,0.43156 -0.11258,1.06951v13.90363zM378.05971,486.44075c-1.27591,0 -2.37357,-0.45032 -3.29297,-1.35096c-0.90064,-0.9194 -1.35096,-2.01706 -1.35096,-3.29297v-10.21664c0,-1.27591 0.45032,-2.36418 1.35096,-3.26482c0.9194,-0.9194 2.01706,-1.37911 3.29297,-1.37911h10.49809c1.27591,0 2.36418,0.4597 3.26482,1.37911c0.9194,0.90064 1.37911,1.98891 1.37911,3.26482v10.21664c0,1.27591 -0.4597,2.37357 -1.37911,3.29297c-0.90064,0.90064 -1.98891,1.35096 -3.26482,1.35096zM378.98849,482.05013h8.64052c0.61919,0 0.96631,-0.03753 1.04137,-0.11258c0.09382,-0.09382 0.14073,-0.45032 0.14073,-1.06951v-8.33092c0,-0.63795 -0.04691,-0.99446 -0.14073,-1.06951c-0.07505,-0.07505 -0.42218,-0.11258 -1.04137,-0.11258h-8.64052c-0.61919,0 -0.97569,0.03753 -1.06951,0.11258c-0.07505,0.07505 -0.11258,0.43156 -0.11258,1.06951v8.33092c0,0.61919 0.03753,0.97569 0.11258,1.06951c0.09382,0.07505 0.45032,0.11258 1.06951,0.11258zM407.17888,486.44075v-19.53263c0,-1.27591 0.4597,-2.37357 1.37911,-3.29297c0.9194,-0.9194 2.01706,-1.37911 3.29297,-1.37911h14.83242c1.29467,0 2.40171,0.4597 3.32111,1.37911c0.9194,0.9194 1.37911,2.01706 1.37911,3.29297v19.53263h-4.47506v-8.13391h-15.28274v8.13391zM411.62579,473.85993h15.28274v-5.96674c0,-0.63795 -0.04691,-0.99446 -0.14073,-1.06951c-0.07505,-0.07505 -0.42218,-0.11258 -1.04137,-0.11258h-12.91856c-0.63795,0 -0.99446,0.03753 -1.06951,0.11258c-0.07505,0.07505 -0.11258,0.43156 -0.11258,1.06951zM435.07577,486.44075v-14.86056c0,-1.27591 0.45032,-2.36418 1.35096,-3.26482c0.9194,-0.9194 2.01706,-1.37911 3.29297,-1.37911h10.80768v4.41877h-9.8789c-0.61919,0 -0.96631,0.03753 -1.04137,0.11258c-0.07505,0.07505 -0.11258,0.43156 -0.11258,1.06951v13.90363zM457.23345,486.44075c-1.27591,0 -2.37357,-0.45032 -3.29297,-1.35096c-0.90064,-0.9194 -1.35096,-2.01706 -1.35096,-3.29297v-10.21664c0,-1.27591 0.45032,-2.36418 1.35096,-3.26482c0.9194,-0.9194 2.01706,-1.37911 3.29297,-1.37911h15.11387v4.41877h-14.18508c-0.61919,0 -0.97569,0.03753 -1.06951,0.11258c-0.07505,0.07505 -0.11258,0.43156 -0.11258,1.06951v8.33092c0,0.61919 0.03753,0.97569 0.11258,1.06951c0.09382,0.07505 0.45032,0.11258 1.06951,0.11258h14.21323v4.39062zM475.18895,486.44075v-25.86526h4.41877v6.36077h10.75139c1.25714,0 2.34542,0.4597 3.26482,1.37911c0.9194,0.90064 1.37911,1.98891 1.37911,3.26482v14.86056h-4.41877v-13.90363c0,-0.63795 -0.03753,-0.99446 -0.11258,-1.06951c-0.07505,-0.07505 -0.42218,-0.11258 -1.04137,-0.11258h-8.64052c-0.63795,0 -0.99446,0.03753 -1.06951,0.11258c-0.07505,0.07505 -0.11258,0.43156 -0.11258,1.06951v13.90363zM497.64817,486.44075v-19.50449h4.41877v19.50449zM497.64817,464.99426v-4.41877h4.41877v4.41877zM514.9585,486.44075l-10.72325,-19.50449h5.0661l7.71173,14.15694l7.65544,-14.15694h5.0661l-10.75139,19.50449zM535.72891,486.44075c-1.27591,0 -2.37357,-0.45032 -3.29297,-1.35096c-0.90064,-0.9194 -1.35096,-2.01706 -1.35096,-3.29297v-7.3177h15.39532v-1.94201c0,-0.63795 -0.03753,-0.99446 -0.11258,-1.06951c-0.07505,-0.07505 -0.43156,-0.11258 -1.06951,-0.11258h-14.21323v-4.41877h15.17016c1.27591,0 2.36418,0.4597 3.26482,1.37911c0.90064,0.90064 1.35096,1.98891 1.35096,3.26482v14.86056zM536.65769,482.05013h9.82261v-3.60256h-10.97655v2.42047c0,0.61919 0.03753,0.97569 0.11258,1.06951c0.07505,0.07505 0.42218,0.11258 1.04137,0.11258zM558.31109,486.44075c-1.27591,0 -2.37357,-0.45032 -3.29297,-1.35096c-0.90064,-0.9194 -1.35096,-2.01706 -1.35096,-3.29297v-21.27762h4.44691v20.34884c0,0.61919 0.03753,0.97569 0.11258,1.06951c0.07505,0.07505 0.41279,0.11258 1.01322,0.11258h3.01152v4.39062zM568.05619,483.4292v-4.72836h-4.61578v-4.39062h4.61578v-4.64393h4.39062v4.64393h4.75651v4.39062h-4.75651v4.72836zM590.10148,486.44075v-24.14841h19.47634c1.31343,0 2.42986,0.46908 3.34926,1.40725c0.9194,0.9194 1.37911,1.9983 1.37911,3.23668v6.52964c0,1.27591 -0.4597,2.37357 -1.37911,3.29297c-0.9194,0.9194 -2.03583,1.37911 -3.34926,1.37911l-15.05758,0.02815v8.27463zM595.70234,473.6629h12.9467c0.60043,0 0.94755,-0.02815 1.04137,-0.08444c0.09382,-0.07505 0.14073,-0.42218 0.14073,-1.04137v-4.64393c0,-0.63795 -0.04691,-0.99446 -0.14073,-1.06951c-0.09382,-0.07505 -0.44094,-0.11258 -1.04137,-0.11258h-12.9467c-0.61919,0 -0.97569,0.03753 -1.06951,0.11258c-0.07505,0.07505 -0.11258,0.43156 -0.11258,1.06951v4.64393c0,0.61919 0.03753,0.96631 0.11258,1.04137c0.09382,0.05629 0.45032,0.08444 1.06951,0.08444zM621.18638,486.44075c-1.27591,0 -2.37357,-0.45032 -3.29297,-1.35096c-0.90064,-0.9194 -1.35096,-2.01706 -1.35096,-3.29297v-7.3177h15.39532v-1.94201c0,-0.63795 -0.03753,-0.99446 -0.11258,-1.06951c-0.07505,-0.07505 -0.43156,-0.11258 -1.06951,-0.11258h-14.21323v-4.41877h15.17016c1.27591,0 2.36418,0.4597 3.26482,1.37911c0.90064,0.90064 1.35096,1.98891 1.35096,3.26482v14.86056zM622.11516,482.05013h9.82261v-3.60256h-10.97655v2.42047c0,0.61919 0.03753,0.97569 0.11258,1.06951c0.07505,0.07505 0.42218,0.11258 1.04137,0.11258zM643.62784,486.44075c-1.27591,0 -2.37357,-0.45032 -3.29297,-1.35096c-0.90064,-0.9194 -1.35096,-2.01706 -1.35096,-3.29297v-0.73177h4.41877v0.19702c0,0.3565 0.03753,0.58166 0.11258,0.67548c0.07505,0.07505 0.29083,0.11258 0.64734,0.11258h9.45672c0.3565,0 0.57228,-0.03753 0.64734,-0.11258c0.07505,-0.09382 0.11258,-0.31898 0.11258,-0.67548v-1.57612c0,-0.3565 -0.03753,-0.57228 -0.11258,-0.64734c-0.07505,-0.07505 -0.29083,-0.11258 -0.64734,-0.11258h-9.99148c-1.27591,0 -2.37357,-0.4597 -3.29297,-1.37911c-0.90064,-0.9194 -1.35096,-2.00768 -1.35096,-3.26482v-2.70192c0,-1.27591 0.45032,-2.36418 1.35096,-3.26482c0.9194,-0.9194 2.01706,-1.37911 3.29297,-1.37911h10.52623c1.27591,0 2.37357,0.4597 3.29297,1.37911c0.9194,0.90064 1.37911,1.98891 1.37911,3.26482v0.75992h-4.44691v-0.22516c0,-0.3565 -0.03753,-0.57228 -0.11258,-0.64734c-0.07505,-0.07505 -0.29083,-0.11258 -0.64734,-0.11258h-9.45672c-0.3565,0 -0.57228,0.03753 -0.64734,0.11258c-0.07505,0.07505 -0.11258,0.29083 -0.11258,0.64734v1.57612c0,0.37527 0.03753,0.60043 0.11258,0.67548c0.07505,0.07505 0.29083,0.11258 0.64734,0.11258h9.99148c1.27591,0 2.37357,0.4597 3.29297,1.37911c0.9194,0.9194 1.37911,2.00768 1.37911,3.26482v2.67378c0,1.27591 -0.4597,2.37357 -1.37911,3.29297c-0.9194,0.90064 -2.01706,1.35096 -3.29297,1.35096zM666.68102,486.44075c-1.27591,0 -2.37357,-0.45032 -3.29297,-1.35096c-0.90064,-0.9194 -1.35096,-2.01706 -1.35096,-3.29297v-0.73177h4.41877v0.19702c0,0.3565 0.03753,0.58166 0.11258,0.67548c0.07505,0.07505 0.29083,0.11258 0.64734,0.11258h9.45672c0.3565,0 0.57228,-0.03753 0.64734,-0.11258c0.07505,-0.09382 0.11258,-0.31898 0.11258,-0.67548v-1.57612c0,-0.3565 -0.03753,-0.57228 -0.11258,-0.64734c-0.07505,-0.07505 -0.29083,-0.11258 -0.64734,-0.11258h-9.99148c-1.27591,0 -2.37357,-0.4597 -3.29297,-1.37911c-0.90064,-0.9194 -1.35096,-2.00768 -1.35096,-3.26482v-2.70192c0,-1.27591 0.45032,-2.36418 1.35096,-3.26482c0.9194,-0.9194 2.01706,-1.37911 3.29297,-1.37911h10.52623c1.27591,0 2.37357,0.4597 3.29297,1.37911c0.9194,0.90064 1.37911,1.98891 1.37911,3.26482v0.75992h-4.44691v-0.22516c0,-0.3565 -0.03753,-0.57228 -0.11258,-0.64734c-0.07505,-0.07505 -0.29083,-0.11258 -0.64734,-0.11258h-9.45672c-0.3565,0 -0.57228,0.03753 -0.64734,0.11258c-0.07505,0.07505 -0.11258,0.29083 -0.11258,0.64734v1.57612c0,0.37527 0.03753,0.60043 0.11258,0.67548c0.07505,0.07505 0.29083,0.11258 0.64734,0.11258h9.99148c1.27591,0 2.37357,0.4597 3.29297,1.37911c0.9194,0.9194 1.37911,2.00768 1.37911,3.26482v2.67378c0,1.27591 -0.4597,2.37357 -1.37911,3.29297c-0.9194,0.90064 -2.01706,1.35096 -3.29297,1.35096zM695.57038,486.44075v-25.86526h4.41877v6.36077h10.75139c1.27591,0 2.36418,0.4597 3.26482,1.37911c0.9194,0.90064 1.37911,1.98891 1.37911,3.26482v10.21664c0,1.27591 -0.4597,2.37357 -1.37911,3.29297c-0.90064,0.90064 -1.98891,1.35096 -3.26482,1.35096zM701.17124,482.05013h8.64052c0.61919,0 0.96631,-0.03753 1.04137,-0.11258c0.07505,-0.09382 0.11258,-0.45032 0.11258,-1.06951v-8.33092c0,-0.63795 -0.03753,-0.99446 -0.11258,-1.06951c-0.07505,-0.07505 -0.42218,-0.11258 -1.04137,-0.11258h-8.64052c-0.63795,0 -0.99446,0.03753 -1.06951,0.11258c-0.07505,0.07505 -0.11258,0.43156 -0.11258,1.06951v8.33092c0,0.61919 0.03753,0.97569 0.11258,1.06951c0.07505,0.07505 0.43156,0.11258 1.06951,0.11258zM720.85581,493.674v-4.44691h10.97655c0.61919,0 0.96631,-0.03753 1.04137,-0.11258c0.07505,-0.07505 0.11258,-0.43156 0.11258,-1.06951v-1.60427h-10.75139c-1.27591,0 -2.37357,-0.45032 -3.29297,-1.35096c-0.90064,-0.9194 -1.35096,-2.01706 -1.35096,-3.29297v-14.77613h4.41877v13.84734c0,0.61919 0.03753,0.97569 0.11258,1.06951c0.07505,0.07505 0.42218,0.11258 1.04137,0.11258h8.66866c0.61919,0 0.96631,-0.03753 1.04137,-0.11258c0.07505,-0.09382 0.11258,-0.45032 0.11258,-1.06951v-13.84734h4.39062v22.00939c0,1.27591 -0.45032,2.36418 -1.35096,3.26482c-0.88188,0.9194 -1.96077,1.37911 -3.23668,1.37911z"/><path d="M305.33883,526.78937c-1.27591,0 -2.37357,-0.45032 -3.29297,-1.35096c-0.90064,-0.9194 -1.35096,-2.01706 -1.35096,-3.29297v-10.21664c0,-1.27591 0.45032,-2.36418 1.35096,-3.26482c0.9194,-0.9194 2.01706,-1.37911 3.29297,-1.37911h15.11387v4.41877h-14.18508c-0.61919,0 -0.97569,0.03753 -1.06951,0.11258c-0.07505,0.07505 -0.11258,0.43156 -0.11258,1.06951v8.33092c0,0.61919 0.03753,0.97569 0.11258,1.06951c0.09382,0.07505 0.45032,0.11258 1.06951,0.11258h14.21323v4.39062zM328.45905,526.78937c-1.27591,0 -2.37357,-0.45032 -3.29297,-1.35096c-0.90064,-0.9194 -1.35096,-2.01706 -1.35096,-3.29297v-10.21664c0,-1.27591 0.45032,-2.36418 1.35096,-3.26482c0.9194,-0.9194 2.01706,-1.37911 3.29297,-1.37911h10.49809c1.27591,0 2.36418,0.4597 3.26482,1.37911c0.9194,0.90064 1.37911,1.98891 1.37911,3.26482v10.21664c0,1.27591 -0.4597,2.37357 -1.37911,3.29297c-0.90064,0.90064 -1.98891,1.35096 -3.26482,1.35096zM329.38784,522.39874h8.64052c0.61919,0 0.96631,-0.03753 1.04137,-0.11258c0.09382,-0.09382 0.14073,-0.45032 0.14073,-1.06951v-8.33092c0,-0.63795 -0.04691,-0.99446 -0.14073,-1.06951c-0.07505,-0.07505 -0.42218,-0.11258 -1.04137,-0.11258h-8.64052c-0.61919,0 -0.97569,0.03753 -1.06951,0.11258c-0.07505,0.07505 -0.11258,0.43156 -0.11258,1.06951v8.33092c0,0.61919 0.03753,0.97569 0.11258,1.06951c0.09382,0.07505 0.45032,0.11258 1.06951,0.11258zM346.31373,526.78937v-19.50449h15.17016c1.27591,0 2.36418,0.4597 3.26482,1.37911c0.9194,0.90064 1.37911,1.98891 1.37911,3.26482v14.86056h-4.41877v-13.90363c0,-0.63795 -0.03753,-0.99446 -0.11258,-1.06951c-0.07505,-0.07505 -0.42218,-0.11258 -1.04137,-0.11258h-8.64052c-0.63795,0 -0.99446,0.03753 -1.06951,0.11258c-0.07505,0.07505 -0.11258,0.43156 -0.11258,1.06951v13.90363zM374.31869,526.78937c-1.27591,0 -2.37357,-0.45032 -3.29297,-1.35096c-0.90064,-0.9194 -1.35096,-2.01706 -1.35096,-3.29297v-20.8273h4.41877v5.96674h7.59915v4.41877h-7.59915v9.51301c0,0.61919 0.03753,0.97569 0.11258,1.06951c0.07505,0.07505 0.42218,0.11258 1.04137,0.11258h6.44521v4.39062zM384.60102,526.78937v-14.86056c0,-1.27591 0.45032,-2.36418 1.35096,-3.26482c0.9194,-0.9194 2.01706,-1.37911 3.29297,-1.37911h10.80768v4.41877h-9.8789c-0.61919,0 -0.96631,0.03753 -1.04137,0.11258c-0.07505,0.07505 -0.11258,0.43156 -0.11258,1.06951v13.90363zM402.61366,526.78937v-19.50449h4.41877v19.50449zM402.61366,505.34288v-4.41877h4.41877v4.41877zM410.1303,526.78937v-25.86526h4.41877v6.36077h10.75139c1.27591,0 2.36418,0.4597 3.26482,1.37911c0.9194,0.90064 1.37911,1.98891 1.37911,3.26482v10.21664c0,1.27591 -0.4597,2.37357 -1.37911,3.29297c-0.90064,0.90064 -1.98891,1.35096 -3.26482,1.35096zM415.73115,522.39874h8.64052c0.61919,0 0.96631,-0.03753 1.04137,-0.11258c0.07505,-0.09382 0.11258,-0.45032 0.11258,-1.06951v-8.33092c0,-0.63795 -0.03753,-0.99446 -0.11258,-1.06951c-0.07505,-0.07505 -0.42218,-0.11258 -1.04137,-0.11258h-8.64052c-0.63795,0 -0.99446,0.03753 -1.06951,0.11258c-0.07505,0.07505 -0.11258,0.43156 -0.11258,1.06951v8.33092c0,0.61919 0.03753,0.97569 0.11258,1.06951c0.07505,0.07505 0.43156,0.11258 1.06951,0.11258zM436.92536,526.78937c-1.27591,0 -2.37357,-0.45032 -3.29297,-1.35096c-0.90064,-0.9194 -1.35096,-2.01706 -1.35096,-3.29297v-14.86056h4.41877v13.93178c0,0.61919 0.03753,0.97569 0.11258,1.06951c0.07505,0.07505 0.42218,0.11258 1.04137,0.11258h8.64052c0.63795,0 0.99446,-0.03753 1.06951,-0.11258c0.07505,-0.09382 0.11258,-0.45032 0.11258,-1.06951v-13.93178h4.41877v14.86056c0,1.27591 -0.4597,2.37357 -1.37911,3.29297c-0.90064,0.90064 -1.98891,1.35096 -3.26482,1.35096zM459.54122,526.78937c-1.27591,0 -2.37357,-0.45032 -3.29297,-1.35096c-0.90064,-0.9194 -1.35096,-2.01706 -1.35096,-3.29297v-20.8273h4.41877v5.96674h7.59915v4.41877h-7.59915v9.51301c0,0.61919 0.03753,0.97569 0.11258,1.06951c0.07505,0.07505 0.42218,0.11258 1.04137,0.11258h6.44521v4.39062zM469.65544,526.78937v-19.50449h4.41877v19.50449zM469.65544,505.34288v-4.41877h4.41877v4.41877zM477.94544,526.78937v-19.50449h15.17016c1.27591,0 2.36418,0.4597 3.26482,1.37911c0.9194,0.90064 1.37911,1.98891 1.37911,3.26482v14.86056h-4.41877v-13.90363c0,-0.63795 -0.03753,-0.99446 -0.11258,-1.06951c-0.07505,-0.07505 -0.42218,-0.11258 -1.04137,-0.11258h-8.64052c-0.63795,0 -0.99446,0.03753 -1.06951,0.11258c-0.07505,0.07505 -0.11258,0.43156 -0.11258,1.06951v13.90363zM503.94191,534.47295v-4.41877h10.97655c0.60043,0 0.93817,-0.04691 1.01322,-0.14073c0.09382,-0.07505 0.14073,-0.42218 0.14073,-1.04137v-2.08273h-10.75139c-1.27591,0 -2.37357,-0.45032 -3.29297,-1.35096c-0.90064,-0.9194 -1.35096,-2.01706 -1.35096,-3.29297v-10.21664c0,-1.27591 0.45032,-2.36418 1.35096,-3.26482c0.9194,-0.9194 2.01706,-1.37911 3.29297,-1.37911h10.55438c1.27591,0 2.3548,0.4597 3.23668,1.37911c0.90064,0.90064 1.35096,1.98891 1.35096,3.26482v17.92837c0,1.27591 -0.45032,2.36418 -1.35096,3.26482c-0.88188,0.90064 -1.96077,1.35096 -3.23668,1.35096zM506.2498,522.39874h8.66866c0.60043,0 0.93817,-0.03753 1.01322,-0.11258c0.09382,-0.09382 0.14073,-0.45032 0.14073,-1.06951v-8.33092c0,-0.63795 -0.04691,-0.99446 -0.14073,-1.06951c-0.07505,-0.07505 -0.41279,-0.11258 -1.01322,-0.11258h-8.66866c-0.61919,0 -0.97569,0.03753 -1.06951,0.11258c-0.07505,0.07505 -0.11258,0.43156 -0.11258,1.06951v8.33092c0,0.61919 0.03753,0.97569 0.11258,1.06951c0.09382,0.07505 0.45032,0.11258 1.06951,0.11258zM538.92236,526.78937c-1.27591,0 -2.37357,-0.45032 -3.29297,-1.35096c-0.90064,-0.9194 -1.35096,-2.01706 -1.35096,-3.29297v-7.3177h15.39532v-1.94201c0,-0.63795 -0.03753,-0.99446 -0.11258,-1.06951c-0.07505,-0.07505 -0.43156,-0.11258 -1.06951,-0.11258h-14.21323v-4.41877h15.17016c1.27591,0 2.36418,0.4597 3.26482,1.37911c0.90064,0.90064 1.35096,1.98891 1.35096,3.26482v14.86056zM539.85115,522.39874h9.82261v-3.60256h-10.97655v2.42047c0,0.61919 0.03753,0.97569 0.11258,1.06951c0.07505,0.07505 0.42218,0.11258 1.04137,0.11258zM557.28687,526.78937v-19.50449h15.17016c1.27591,0 2.36418,0.4597 3.26482,1.37911c0.9194,0.90064 1.37911,1.98891 1.37911,3.26482v14.86056h-4.41877v-13.90363c0,-0.63795 -0.03753,-0.99446 -0.11258,-1.06951c-0.07505,-0.07505 -0.42218,-0.11258 -1.04137,-0.11258h-8.64052c-0.63795,0 -0.99446,0.03753 -1.06951,0.11258c-0.07505,0.07505 -0.11258,0.43156 -0.11258,1.06951v13.90363zM584.27859,526.78937c-1.27591,0 -2.37357,-0.45032 -3.29297,-1.35096c-0.90064,-0.9194 -1.35096,-2.01706 -1.35096,-3.29297v-10.21664c0,-1.27591 0.45032,-2.36418 1.35096,-3.26482c0.9194,-0.9194 2.01706,-1.37911 3.29297,-1.37911h10.80768v-6.36077h4.39062v25.86526zM585.26367,522.39874h8.64052c0.61919,0 0.96631,-0.03753 1.04137,-0.11258c0.09382,-0.09382 0.14073,-0.45032 0.14073,-1.06951v-8.33092c0,-0.63795 -0.04691,-0.99446 -0.14073,-1.06951c-0.07505,-0.07505 -0.42218,-0.11258 -1.04137,-0.11258h-8.64052c-0.63795,0 -0.99446,0.03753 -1.06951,0.11258c-0.07505,0.07505 -0.11258,0.43156 -0.11258,1.06951v8.33092c0,0.61919 0.03753,0.97569 0.11258,1.06951c0.07505,0.07505 0.43156,0.11258 1.06951,0.11258z"/><path d="M300.77934,567.13803v-25.86526h4.41877v6.36077h10.75139c1.25714,0 2.34542,0.4597 3.26482,1.37911c0.9194,0.90064 1.37911,1.98891 1.37911,3.26482v14.86056h-4.41877v-13.90363c0,-0.63795 -0.03753,-0.99446 -0.11258,-1.06951c-0.07505,-0.07505 -0.42218,-0.11258 -1.04137,-0.11258h-8.64052c-0.63795,0 -0.99446,0.03753 -1.06951,0.11258c-0.07505,0.07505 -0.11258,0.43156 -0.11258,1.06951v13.90363zM327.75344,567.13803c-1.27591,0 -2.37357,-0.45032 -3.29297,-1.35096c-0.90064,-0.9194 -1.35096,-2.01706 -1.35096,-3.29297v-10.21664c0,-1.27591 0.45032,-2.36418 1.35096,-3.26482c0.9194,-0.9194 2.01706,-1.37911 3.29297,-1.37911h10.49809c1.27591,0 2.36418,0.4597 3.26482,1.37911c0.9194,0.90064 1.37911,1.98891 1.37911,3.26482v7.34585h-15.39532v1.94201c0,0.61919 0.03753,0.97569 0.11258,1.06951c0.09382,0.07505 0.45032,0.11258 1.06951,0.11258h14.21323v4.39062zM327.50014,555.65487h11.0047v-2.42047c0,-0.63795 -0.04691,-0.99446 -0.14073,-1.06951c-0.07505,-0.07505 -0.42218,-0.11258 -1.04137,-0.11258h-8.64052c-0.61919,0 -0.97569,0.03753 -1.06951,0.11258c-0.07505,0.07505 -0.11258,0.43156 -0.11258,1.06951zM350.22938,567.13803c-1.27591,0 -2.37357,-0.45032 -3.29297,-1.35096c-0.90064,-0.9194 -1.35096,-2.01706 -1.35096,-3.29297v-21.27762h4.44691v20.34884c0,0.61919 0.03753,0.97569 0.11258,1.06951c0.07505,0.07505 0.41279,0.11258 1.01322,0.11258h3.01152v4.39062zM356.59702,574.87792v-27.24436h15.17016c1.27591,0 2.36418,0.4597 3.26482,1.37911c0.9194,0.90064 1.37911,1.98891 1.37911,3.26482v10.21664c0,1.27591 -0.4597,2.37357 -1.37911,3.29297c-0.90064,0.90064 -1.98891,1.35096 -3.26482,1.35096h-10.75139v7.73988zM362.19788,562.7474h8.64052c0.61919,0 0.96631,-0.03753 1.04137,-0.11258c0.07505,-0.09382 0.11258,-0.45032 0.11258,-1.06951v-8.33092c0,-0.63795 -0.03753,-0.99446 -0.11258,-1.06951c-0.07505,-0.07505 -0.42218,-0.11258 -1.04137,-0.11258h-8.64052c-0.63795,0 -0.99446,0.03753 -1.06951,0.11258c-0.07505,0.07505 -0.11258,0.43156 -0.11258,1.06951v8.33092c0,0.61919 0.03753,0.97569 0.11258,1.06951c0.07505,0.07505 0.43156,0.11258 1.06951,0.11258zM379.02267,567.13803v-19.50449h4.41877v19.50449zM379.02267,545.69152v-4.41877h4.41877v4.41877zM387.31267,567.13803v-19.50449h15.17016c1.27591,0 2.36418,0.4597 3.26482,1.37911c0.9194,0.90064 1.37911,1.98891 1.37911,3.26482v14.86056h-4.41877v-13.90363c0,-0.63795 -0.03753,-0.99446 -0.11258,-1.06951c-0.07505,-0.07505 -0.42218,-0.11258 -1.04137,-0.11258h-8.64052c-0.63795,0 -0.99446,0.03753 -1.06951,0.11258c-0.07505,0.07505 -0.11258,0.43156 -0.11258,1.06951v13.90363zM413.30914,574.82161v-4.41877h10.97655c0.60043,0 0.93817,-0.04691 1.01322,-0.14073c0.09382,-0.07505 0.14073,-0.42218 0.14073,-1.04137v-2.08273h-10.75139c-1.27591,0 -2.37357,-0.45032 -3.29297,-1.35096c-0.90064,-0.9194 -1.35096,-2.01706 -1.35096,-3.29297v-10.21664c0,-1.27591 0.45032,-2.36418 1.35096,-3.26482c0.9194,-0.9194 2.01706,-1.37911 3.29297,-1.37911h10.55438c1.27591,0 2.3548,0.4597 3.23668,1.37911c0.90064,0.90064 1.35096,1.98891 1.35096,3.26482v17.92837c0,1.27591 -0.45032,2.36418 -1.35096,3.26482c-0.88188,0.90064 -1.96077,1.35096 -3.23668,1.35096zM415.61703,562.7474h8.66866c0.60043,0 0.93817,-0.03753 1.01322,-0.11258c0.09382,-0.09382 0.14073,-0.45032 0.14073,-1.06951v-8.33092c0,-0.63795 -0.04691,-0.99446 -0.14073,-1.06951c-0.07505,-0.07505 -0.41279,-0.11258 -1.01322,-0.11258h-8.66866c-0.61919,0 -0.97569,0.03753 -1.06951,0.11258c-0.07505,0.07505 -0.11258,0.43156 -0.11258,1.06951v8.33092c0,0.61919 0.03753,0.97569 0.11258,1.06951c0.09382,0.07505 0.45032,0.11258 1.06951,0.11258zM433.41881,567.13803v-4.39062h4.41877v4.39062z"/></g><g fill="#ffffff" fill-rule="nonzero" stroke="none" stroke-width="1"><path d="M306.02148,670.63875l-6.71216,-11.58177h2.48306l5.1767,9.01097l5.20302,-9.01096h2.45674l-6.71216,11.58177zM315.72122,670.63875v-11.58177h2.11455v11.58177zM319.23502,670.63875v-11.57299h9.32684c0.62588,0 1.15818,0.2252 1.59688,0.67561c0.4387,0.44455 0.65806,0.96515 0.65806,1.56178v3.12357c0,0.61418 -0.21935,1.14063 -0.65805,1.57933c-0.4387,0.4387 -0.971,0.65806 -1.59688,0.65806l-7.20351,0.01755v3.95711zM321.91988,664.5232h6.19449c0.29247,0 0.45918,-0.01462 0.50012,-0.04387c0.04095,-0.0351 0.06142,-0.2018 0.06142,-0.50012v-2.21984c0,-0.30417 -0.02047,-0.4738 -0.06142,-0.5089c-0.04095,-0.04095 -0.20765,-0.06142 -0.50012,-0.06142h-6.19449c-0.29832,0 -0.46795,0.02047 -0.5089,0.06142c-0.0351,0.0351 -0.05264,0.20473 -0.05264,0.5089v2.21984c0,0.29832 0.01755,0.46503 0.05264,0.50012c0.04095,0.02925 0.21058,0.04387 0.5089,0.04387zM339.07229,670.63875c-0.60833,0 -1.13478,-0.21935 -1.57933,-0.65805c-0.4387,-0.4387 -0.65805,-0.96515 -0.65805,-1.57933v-0.88618h2.12332v0.42116c0,0.29832 0.01755,0.46795 0.05264,0.5089c0.04095,0.0351 0.21058,0.05264 0.5089,0.05264h6.20327c0.29832,0 0.46503,-0.01755 0.50012,-0.05264c0.04095,-0.04095 0.06142,-0.21058 0.06142,-0.5089v-1.46527c0,-0.29832 -0.02047,-0.4621 -0.06142,-0.49135c-0.0351,-0.0351 -0.2018,-0.05264 -0.50012,-0.05264h-6.65074c-0.60833,0 -1.13478,-0.22227 -1.57933,-0.66683c-0.4387,-0.4504 -0.65805,-0.97977 -0.65805,-1.5881v-2.38655c0,-0.60833 0.21935,-1.13185 0.65806,-1.57056c0.44455,-0.4387 0.971,-0.65805 1.57933,-0.65805h7.11577c0.60833,0 1.13186,0.21935 1.57056,0.65806c0.44455,0.4387 0.66683,0.96222 0.66683,1.57056v0.88618h-2.14087v-0.41238c0,-0.30417 -0.02047,-0.4738 -0.06142,-0.5089c-0.0351,-0.04095 -0.2018,-0.06142 -0.50012,-0.06142h-6.20326c-0.29832,0 -0.46795,0.02047 -0.5089,0.06142c-0.0351,0.0351 -0.05264,0.20473 -0.05264,0.5089v1.46527c0,0.29832 0.01755,0.46503 0.05264,0.50012c0.04095,0.02925 0.21058,0.04387 0.5089,0.04387h6.66829c0.60833,0 1.13186,0.22227 1.57056,0.66683c0.44455,0.44455 0.66683,0.97392 0.66683,1.58811v2.37778c0,0.61418 -0.22227,1.14063 -0.66683,1.57933c-0.4387,0.4387 -0.96222,0.65806 -1.57056,0.65806zM352.32011,670.63875c-0.61418,0 -1.1377,-0.21643 -1.57056,-0.64928c-0.43285,-0.4387 -0.64928,-0.96222 -0.64928,-1.57056v-4.89593c0,-0.60833 0.21643,-1.12893 0.64928,-1.56178c0.43285,-0.4387 0.95638,-0.65805 1.57056,-0.65805h5.03631c0.60833,0 1.12893,0.21935 1.56178,0.65806c0.4387,0.43285 0.65806,0.95345 0.65806,1.56178v3.50963h-7.37022v0.93883c0,0.29832 0.01755,0.46795 0.05264,0.5089c0.04095,0.0351 0.21058,0.05264 0.5089,0.05264h6.80868v2.10578zM352.20605,665.1374h5.26444v-1.15818c0,-0.30417 -0.02047,-0.4738 -0.06142,-0.5089c-0.0351,-0.0351 -0.20473,-0.05264 -0.5089,-0.05264h-4.13258c-0.29832,0 -0.46795,0.01755 -0.5089,0.05264c-0.0351,0.0351 -0.05264,0.20473 -0.05264,0.5089zM361.14788,670.63875v-7.11577c0,-0.60833 0.21643,-1.12893 0.64928,-1.56178c0.4387,-0.4387 0.96222,-0.65805 1.57056,-0.65805h5.18548v2.11455h-4.72922c-0.30417,0 -0.4738,0.01755 -0.5089,0.05264c-0.0351,0.0351 -0.05264,0.20473 -0.05264,0.5089v6.65952zM374.30187,670.63875l-5.13283,-9.33561h2.42164l3.68511,6.77358l3.67634,-6.77358h2.43042l-5.15037,9.33561zM384.10092,670.63875c-0.61418,0 -1.1377,-0.21643 -1.57056,-0.64928c-0.43285,-0.4387 -0.64928,-0.96222 -0.64928,-1.57056v-4.89593c0,-0.60833 0.21643,-1.12893 0.64928,-1.56178c0.43285,-0.4387 0.95638,-0.65805 1.57056,-0.65805h5.03631c0.60833,0 1.12893,0.21935 1.56178,0.65806c0.4387,0.43285 0.65806,0.95345 0.65806,1.56178v3.50963h-7.37022v0.93883c0,0.29832 0.01755,0.46795 0.05264,0.5089c0.04095,0.0351 0.21058,0.05264 0.5089,0.05264h6.80868v2.10578zM383.98686,665.1374h5.26444v-1.15818c0,-0.30417 -0.02047,-0.4738 -0.06142,-0.5089c-0.0351,-0.0351 -0.20473,-0.05264 -0.5089,-0.05264h-4.13258c-0.29832,0 -0.46795,0.01755 -0.5089,0.05264c-0.0351,0.0351 -0.05264,0.20473 -0.05264,0.5089zM392.92869,670.63875v-7.11577c0,-0.60833 0.21643,-1.12893 0.64928,-1.56178c0.4387,-0.4387 0.96222,-0.65805 1.57056,-0.65805h5.18548v2.11455h-4.72922c-0.30417,0 -0.4738,0.01755 -0.5089,0.05264c-0.0351,0.0351 -0.05264,0.20473 -0.05264,0.5089v6.65952zM403.71231,670.63875c-0.60833,0 -1.13185,-0.21643 -1.57056,-0.64928c-0.43285,-0.4387 -0.64928,-0.96222 -0.64928,-1.57056v-0.35096h2.10578v0.09652c0,0.16963 0.01755,0.27492 0.05264,0.31587c0.04095,0.0351 0.14624,0.05264 0.31587,0.05264h4.52742c0.16963,0 0.272,-0.01755 0.3071,-0.05264c0.04095,-0.04095 0.06142,-0.14624 0.06142,-0.31587v-0.76334c0,-0.16963 -0.02047,-0.27199 -0.06142,-0.30709c-0.0351,-0.04095 -0.13746,-0.06142 -0.30709,-0.06142h-4.78186c-0.60833,0 -1.13185,-0.21935 -1.57056,-0.65805c-0.43285,-0.4387 -0.64928,-0.9593 -0.64928,-1.56178v-1.28979c0,-0.60833 0.21643,-1.12893 0.64928,-1.56178c0.4387,-0.4387 0.96222,-0.65805 1.57056,-0.65805h5.03631c0.61418,0 1.14063,0.21935 1.57933,0.65806c0.4387,0.43285 0.65806,0.95345 0.65806,1.56178v0.35974h-2.12332v-0.09651c0,-0.17548 -0.02047,-0.28077 -0.06142,-0.31587c-0.0351,-0.0351 -0.13746,-0.05264 -0.30709,-0.05264h-4.52742c-0.16963,0 -0.27492,0.01755 -0.31587,0.05264c-0.0351,0.0351 -0.05264,0.14039 -0.05264,0.31587v0.75457c0,0.16963 0.01755,0.27492 0.05264,0.31587c0.04095,0.0351 0.14624,0.05264 0.31587,0.05264h4.78187c0.61418,0 1.14063,0.21935 1.57933,0.65806c0.4387,0.4387 0.65806,0.9593 0.65806,1.56178v1.28979c0,0.60833 -0.21935,1.13186 -0.65805,1.57056c-0.4387,0.43285 -0.96515,0.64928 -1.57933,0.64928z"/><path d="M416.82808,665.92707c-0.27492,0 -0.48842,-0.07604 -0.6405,-0.22813c-0.15208,-0.15208 -0.22813,-0.36559 -0.22813,-0.6405v-0.30709c0,-0.28077 0.07604,-0.49427 0.22813,-0.6405c0.15208,-0.15208 0.36559,-0.22813 0.64051,-0.22813h0.36851c0.29247,0 0.51182,0.07604 0.65806,0.22813c0.15208,0.14624 0.22813,0.35974 0.22813,0.64051v0.3071c0,0.27492 -0.07604,0.48842 -0.22813,0.64051c-0.14624,0.15208 -0.36559,0.22813 -0.65805,0.22813zM425.87079,670.63875v-11.58177h10.66927v2.1321h-8.52839v2.57958h6.86132v2.15842h-6.86132v2.5708h8.52839v2.14087zM438.00395,670.63875v-0.56154l3.43066,-4.18523l-3.43066,-4.02729v-0.56154h2.29003l2.50938,2.96563l2.50938,-2.96563h2.28126v0.56154l-3.42189,4.0273l3.42189,4.18523v0.56154h-2.26371l-2.52693,-3.08847l-2.50938,3.08847zM451.44695,670.63875c-0.61418,0 -1.1377,-0.21643 -1.57056,-0.64928c-0.43285,-0.4387 -0.64928,-0.96222 -0.64928,-1.57056v-4.89593c0,-0.60833 0.21643,-1.12893 0.64928,-1.56178c0.43285,-0.4387 0.95638,-0.65805 1.57056,-0.65805h7.23861v2.11455h-6.79113c-0.29832,0 -0.46795,0.01755 -0.5089,0.05264c-0.0351,0.0351 -0.05264,0.20473 -0.05264,0.5089v3.9922c0,0.29832 0.01755,0.46795 0.05264,0.5089c0.04095,0.0351 0.21058,0.05264 0.5089,0.05264h6.80868v2.10578zM462.6394,670.63875c-0.60833,0 -1.13185,-0.21643 -1.57056,-0.64928c-0.43285,-0.4387 -0.64928,-0.96222 -0.64928,-1.57056v-10.18669h2.12332v9.73921c0,0.29832 0.01755,0.46795 0.05264,0.5089c0.04095,0.0351 0.20765,0.05264 0.50012,0.05264h1.43018v2.10578zM468.03161,670.63875c-0.60833,0 -1.13185,-0.21643 -1.57056,-0.64928c-0.43285,-0.4387 -0.64928,-0.96222 -0.64928,-1.57056v-7.11577h2.10578v6.66829c0,0.29832 0.01755,0.46795 0.05264,0.5089c0.04095,0.0351 0.2135,0.05264 0.51767,0.05264h4.13259c0.29832,0 0.46503,-0.01755 0.50012,-0.05264c0.04095,-0.04095 0.06142,-0.21058 0.06142,-0.5089v-6.66829h2.10578v7.11577c0,0.60833 -0.21643,1.13186 -0.64928,1.57056c-0.43285,0.43285 -0.95637,0.64928 -1.57056,0.64928zM478.79828,670.63875c-0.60833,0 -1.13185,-0.21643 -1.57056,-0.64928c-0.43285,-0.4387 -0.64928,-0.96222 -0.64928,-1.57056v-0.35096h2.10578v0.09652c0,0.16963 0.01755,0.27492 0.05264,0.31587c0.04095,0.0351 0.14624,0.05264 0.31587,0.05264h4.52742c0.16963,0 0.272,-0.01755 0.3071,-0.05264c0.04095,-0.04095 0.06142,-0.14624 0.06142,-0.31587v-0.76334c0,-0.16963 -0.02047,-0.27199 -0.06142,-0.30709c-0.0351,-0.04095 -0.13746,-0.06142 -0.30709,-0.06142h-4.78186c-0.60833,0 -1.13185,-0.21935 -1.57056,-0.65805c-0.43285,-0.4387 -0.64928,-0.9593 -0.64928,-1.56178v-1.28979c0,-0.60833 0.21643,-1.12893 0.64928,-1.56178c0.4387,-0.4387 0.96222,-0.65805 1.57056,-0.65805h5.03631c0.61418,0 1.14063,0.21935 1.57933,0.65806c0.4387,0.43285 0.65806,0.95345 0.65806,1.56178v0.35974h-2.12332v-0.09651c0,-0.17548 -0.02047,-0.28077 -0.06142,-0.31587c-0.0351,-0.0351 -0.13746,-0.05264 -0.30709,-0.05264h-4.52742c-0.16963,0 -0.27492,0.01755 -0.31587,0.05264c-0.0351,0.0351 -0.05264,0.14039 -0.05264,0.31587v0.75457c0,0.16963 0.01755,0.27492 0.05264,0.31587c0.04095,0.0351 0.14624,0.05264 0.31587,0.05264h4.78187c0.61418,0 1.14063,0.21935 1.57933,0.65806c0.4387,0.4387 0.65806,0.9593 0.65806,1.56178v1.28979c0,0.60833 -0.21935,1.13186 -0.65805,1.57056c-0.4387,0.43285 -0.96515,0.64928 -1.57933,0.64928zM487.67874,670.63875v-9.33561h2.11455v9.33561zM487.67874,660.37308v-2.12332h2.11455v2.12332zM495.97304,670.63875l-5.13283,-9.33561h2.42164l3.68511,6.77358l3.67634,-6.77358h2.43042l-5.15037,9.33561zM505.77208,670.63875c-0.61418,0 -1.1377,-0.21643 -1.57056,-0.64928c-0.43285,-0.4387 -0.64928,-0.96222 -0.64928,-1.57056v-4.89593c0,-0.60833 0.21643,-1.12893 0.64928,-1.56178c0.43285,-0.4387 0.95638,-0.65805 1.57056,-0.65805h5.03631c0.60833,0 1.12893,0.21935 1.56178,0.65806c0.4387,0.43285 0.65806,0.95345 0.65806,1.56178v3.50963h-7.37022v0.93883c0,0.29832 0.01755,0.46795 0.05264,0.5089c0.04095,0.0351 0.21058,0.05264 0.5089,0.05264h6.80868v2.10578zM505.65802,665.1374h5.26444v-1.15818c0,-0.30417 -0.02047,-0.4738 -0.06142,-0.5089c-0.0351,-0.0351 -0.20473,-0.05264 -0.5089,-0.05264h-4.13258c-0.29832,0 -0.46795,0.01755 -0.5089,0.05264c-0.0351,0.0351 -0.05264,0.20473 -0.05264,0.5089zM523.8408,670.63875v-9.44967h-4.72922v-2.1321h11.58177v2.1321h-4.71167v9.44967zM531.83403,670.63875v-7.11577c0,-0.60833 0.21643,-1.12893 0.64928,-1.56178c0.4387,-0.4387 0.96222,-0.65805 1.57056,-0.65805h5.18548v2.11455h-4.72922c-0.30417,0 -0.4738,0.01755 -0.5089,0.05264c-0.0351,0.0351 -0.05264,0.20473 -0.05264,0.5089v6.65952zM542.67907,670.63875c-0.60833,0 -1.13185,-0.21643 -1.57056,-0.64928c-0.43285,-0.4387 -0.64928,-0.96222 -0.64928,-1.57056v-3.50963h7.37022v-0.93005c0,-0.30417 -0.01755,-0.4738 -0.05264,-0.5089c-0.0351,-0.0351 -0.20473,-0.05264 -0.5089,-0.05264h-6.80868v-2.11455h7.26493c0.60833,0 1.12893,0.21935 1.56178,0.65806c0.4387,0.43285 0.65806,0.95345 0.65806,1.56178v7.11577zM543.13532,668.53297h4.69413v-1.71972h-5.25566v1.15818c0,0.29832 0.01755,0.46795 0.05264,0.5089c0.0351,0.0351 0.20473,0.05264 0.5089,0.05264zM551.62682,670.63875v-9.33561h2.11455v9.33561zM551.62682,660.37308v-2.12332h2.11455v2.12332zM557.75705,670.63875c-0.60833,0 -1.13185,-0.21643 -1.57056,-0.64928c-0.43285,-0.4387 -0.64928,-0.96222 -0.64928,-1.57056v-10.18669h2.12332v9.73921c0,0.29832 0.01755,0.46795 0.05264,0.5089c0.04095,0.0351 0.20765,0.05264 0.50012,0.05264h1.43018v2.10578zM563.02635,670.63875c-0.61418,0 -1.1377,-0.21643 -1.57056,-0.64928c-0.43285,-0.4387 -0.64928,-0.96222 -0.64928,-1.57056v-4.89593c0,-0.60833 0.21643,-1.12893 0.64928,-1.56178c0.43285,-0.4387 0.95638,-0.65805 1.57056,-0.65805h5.03631c0.60833,0 1.12893,0.21935 1.56178,0.65806c0.4387,0.43285 0.65806,0.95345 0.65806,1.56178v3.50963h-7.37022v0.93883c0,0.29832 0.01755,0.46795 0.05264,0.5089c0.04095,0.0351 0.21058,0.05264 0.5089,0.05264h6.80868v2.10578zM562.91229,665.1374h5.26444v-1.15818c0,-0.30417 -0.02047,-0.4738 -0.06142,-0.5089c-0.0351,-0.0351 -0.20473,-0.05264 -0.5089,-0.05264h-4.13258c-0.29832,0 -0.46795,0.01755 -0.5089,0.05264c-0.0351,0.0351 -0.05264,0.20473 -0.05264,0.5089zM571.85413,670.63875v-7.11577c0,-0.60833 0.21643,-1.12893 0.64928,-1.56178c0.4387,-0.4387 0.96222,-0.65805 1.57056,-0.65805h5.18548v2.11455h-4.72922c-0.30417,0 -0.4738,0.01755 -0.5089,0.05264c-0.0351,0.0351 -0.05264,0.20473 -0.05264,0.5089v6.65952zM582.63773,670.63875c-0.60833,0 -1.13185,-0.21643 -1.57054,-0.64928c-0.43285,-0.4387 -0.64928,-0.96222 -0.64928,-1.57056v-0.35096h2.10576v0.09652c0,0.16963 0.01755,0.27492 0.05264,0.31587c0.04095,0.0351 0.14624,0.05264 0.31587,0.05264h4.52742c0.16963,0 0.272,-0.01755 0.3071,-0.05264c0.04095,-0.04095 0.06142,-0.14624 0.06142,-0.31587v-0.76334c0,-0.16963 -0.02047,-0.27199 -0.06142,-0.30709c-0.0351,-0.04095 -0.13746,-0.06142 -0.30709,-0.06142h-4.78186c-0.60833,0 -1.13185,-0.21935 -1.57054,-0.65805c-0.43285,-0.4387 -0.64928,-0.9593 -0.64928,-1.56178v-1.28979c0,-0.60833 0.21643,-1.12893 0.64928,-1.56178c0.43869,-0.4387 0.9622,-0.65805 1.57054,-0.65805h5.03631c0.61418,0 1.14063,0.21935 1.57933,0.65806c0.4387,0.43285 0.65806,0.95345 0.65806,1.56178v0.35974h-2.12332v-0.09651c0,-0.17548 -0.02047,-0.28077 -0.06142,-0.31587c-0.0351,-0.0351 -0.13746,-0.05264 -0.30709,-0.05264h-4.52742c-0.16963,0 -0.27492,0.01755 -0.31587,0.05264c-0.0351,0.0351 -0.05264,0.14039 -0.05264,0.31587v0.75457c0,0.16963 0.01755,0.27492 0.05264,0.31587c0.04095,0.0351 0.14624,0.05264 0.31587,0.05264h4.78187c0.61418,0 1.14063,0.21935 1.57933,0.65806c0.4387,0.4387 0.65806,0.9593 0.65806,1.56178v1.28979c0,0.60833 -0.21935,1.13186 -0.65805,1.57056c-0.4387,0.43285 -0.96515,0.64928 -1.57933,0.64928zM598.39006,665.92707c-0.27492,0 -0.48842,-0.07604 -0.6405,-0.22813c-0.15208,-0.15208 -0.22813,-0.36559 -0.22813,-0.6405v-0.30709c0,-0.28077 0.07604,-0.49427 0.22813,-0.6405c0.15208,-0.15208 0.36559,-0.22813 0.64051,-0.22813h0.36851c0.29247,0 0.51182,0.07604 0.65805,0.22813c0.15208,0.14624 0.22813,0.35974 0.22813,0.64051v0.3071c0,0.27492 -0.07604,0.48842 -0.22813,0.64051c-0.14624,0.15208 -0.36559,0.22813 -0.65805,0.22813zM607.33625,670.63875v-11.58177h2.11455v11.58177zM611.04031,670.63875v-9.33561h7.25616c0.61418,0 1.1377,0.21935 1.57056,0.65806c0.43285,0.43285 0.64928,0.95345 0.64928,1.56178v7.11577h-2.10578v-6.65951c0,-0.30417 -0.02047,-0.4738 -0.06142,-0.5089c-0.0351,-0.0351 -0.2018,-0.05264 -0.50012,-0.05264h-4.14136c-0.29832,0 -0.46795,0.01755 -0.5089,0.05264c-0.0351,0.0351 -0.05264,0.20473 -0.05264,0.5089v6.65952zM622.31907,666.93607v-2.10578h6.58055v2.10578zM632.83198,670.63875c-0.61418,0 -1.14063,-0.21935 -1.57933,-0.65805c-0.4387,-0.4387 -0.65805,-0.96515 -0.65805,-1.57933v-7.11577c0,-0.60833 0.21935,-1.13185 0.65806,-1.57056c0.4387,-0.4387 0.96515,-0.65805 1.57933,-0.65805h7.08945c0.62588,0 1.15818,0.21935 1.59688,0.65806c0.4387,0.4387 0.65806,0.96222 0.65806,1.57056v0.90373h-2.14087v-0.42993c0,-0.30417 -0.02047,-0.4738 -0.06142,-0.5089c-0.04095,-0.04095 -0.20765,-0.06142 -0.50012,-0.06142h-6.19449c-0.29832,0 -0.46795,0.02047 -0.5089,0.06142c-0.0351,0.0351 -0.05264,0.20473 -0.05264,0.5089v6.17694c0,0.29832 0.01755,0.46795 0.05264,0.5089c0.04095,0.0351 0.21058,0.05264 0.5089,0.05264h6.19449c0.29247,0 0.45918,-0.01755 0.50012,-0.05264c0.04095,-0.04095 0.06142,-0.21058 0.06142,-0.5089v-1.71972h-2.62344v-2.14087h4.76432v4.32562c0,0.61418 -0.21935,1.14063 -0.65805,1.57933c-0.4387,0.4387 -0.971,0.65806 -1.59688,0.65806zM646.10029,670.63875c-0.60833,0 -1.13185,-0.21643 -1.57056,-0.64928c-0.43285,-0.4387 -0.64928,-0.96222 -0.64928,-1.57056v-3.50963h7.37022v-0.93005c0,-0.30417 -0.01755,-0.4738 -0.05264,-0.5089c-0.0351,-0.0351 -0.20473,-0.05264 -0.5089,-0.05264h-6.80868v-2.11455h7.26493c0.60833,0 1.12893,0.21935 1.56178,0.65806c0.4387,0.43285 0.65806,0.95345 0.65806,1.56178v7.11577zM646.55654,668.53297h4.69413v-1.71972h-5.25566v1.15818c0,0.29832 0.01755,0.46795 0.05264,0.5089c0.0351,0.0351 0.20473,0.05264 0.5089,0.05264zM654.6646,670.63875v-9.33561h11.573c0.60833,0 1.12893,0.21935 1.56178,0.65806c0.4387,0.43285 0.65806,0.95345 0.65806,1.56178v7.11577h-2.097v-6.65951c0,-0.30417 -0.02047,-0.4738 -0.06142,-0.5089c-0.04095,-0.0351 -0.20765,-0.05264 -0.50012,-0.05264h-2.6059c-0.29832,0 -0.46795,0.01755 -0.5089,0.05264c-0.0351,0.0351 -0.05264,0.20473 -0.05264,0.5089v6.65952h-2.12332v-6.65951c0,-0.30417 -0.02047,-0.4738 -0.06142,-0.5089c-0.0351,-0.0351 -0.2018,-0.05264 -0.50012,-0.05264h-2.61467c-0.29832,0 -0.46795,0.01755 -0.5089,0.05264c-0.0351,0.0351 -0.05264,0.20473 -0.05264,0.5089v6.65952zM672.12746,670.63875c-0.61418,0 -1.1377,-0.21643 -1.57056,-0.64928c-0.43285,-0.4387 -0.64928,-0.96222 -0.64928,-1.57056v-4.89593c0,-0.60833 0.21643,-1.12893 0.64928,-1.56178c0.43285,-0.4387 0.95638,-0.65805 1.57056,-0.65805h5.03631c0.60833,0 1.12893,0.21935 1.56178,0.65806c0.4387,0.43285 0.65806,0.95345 0.65806,1.56178v3.50963h-7.37022v0.93883c0,0.29832 0.01755,0.46795 0.05264,0.5089c0.04095,0.0351 0.21058,0.05264 0.5089,0.05264h6.80868v2.10578zM672.0134,665.1374h5.26444v-1.15818c0,-0.30417 -0.02047,-0.4738 -0.06142,-0.5089c-0.0351,-0.0351 -0.20473,-0.05264 -0.5089,-0.05264h-4.13258c-0.29832,0 -0.46795,0.01755 -0.5089,0.05264c-0.0351,0.0351 -0.05264,0.20473 -0.05264,0.5089zM686.0285,670.63875v-11.57299h9.33561c0.62004,0 1.14941,0.2252 1.58811,0.67561c0.4387,0.44455 0.65806,0.96515 0.65806,1.56178v3.12357c0,0.61418 -0.21935,1.14063 -0.65805,1.57933c-0.4387,0.4387 -0.96807,0.65806 -1.5881,0.65806h-0.63173l2.86912,3.37802v0.59664h-2.32513l-3.32537,-3.97465l-3.79917,0.01755v3.95711zM688.71336,664.5232h6.19449c0.29247,0 0.45625,-0.01462 0.49135,-0.04387c0.04095,-0.0351 0.06142,-0.2018 0.06142,-0.50012v-2.21984c0,-0.30417 -0.02047,-0.4738 -0.06142,-0.5089c-0.0351,-0.04095 -0.19888,-0.06142 -0.49135,-0.06142h-6.19449c-0.29832,0 -0.46795,0.02047 -0.5089,0.06142c-0.0351,0.0351 -0.05264,0.20473 -0.05264,0.5089v2.21984c0,0.29832 0.01755,0.46503 0.05264,0.50012c0.04095,0.02925 0.21058,0.04387 0.5089,0.04387zM701.46252,670.63875c-0.61418,0 -1.1377,-0.21643 -1.57056,-0.64928c-0.43285,-0.4387 -0.64928,-0.96222 -0.64928,-1.57056v-4.89593c0,-0.60833 0.21643,-1.12893 0.64928,-1.56178c0.43285,-0.4387 0.95638,-0.65805 1.57056,-0.65805h5.03631c0.60833,0 1.12893,0.21935 1.56178,0.65806c0.4387,0.43285 0.65806,0.95345 0.65806,1.56178v3.50963h-7.37022v0.93883c0,0.29832 0.01755,0.46795 0.05264,0.5089c0.04095,0.0351 0.21058,0.05264 0.5089,0.05264h6.80868v2.10578zM701.34846,665.1374h5.26444v-1.15818c0,-0.30417 -0.02047,-0.4738 -0.06142,-0.5089c-0.0351,-0.0351 -0.20473,-0.05264 -0.5089,-0.05264h-4.13258c-0.29832,0 -0.46795,0.01755 -0.5089,0.05264c-0.0351,0.0351 -0.05264,0.20473 -0.05264,0.5089zM713.17073,670.63875l-3.66756,-9.33561h2.23739l2.27249,5.51011l2.37778,-5.51011h2.19352l2.53571,5.53644l2.11455,-5.53643h2.23739l-3.50963,9.33561h-1.64075l-2.81647,-6.22959l-2.69364,6.22959zM728.69799,670.63875c-0.60833,0 -1.13185,-0.21643 -1.57056,-0.64928c-0.43285,-0.4387 -0.64928,-0.96222 -0.64928,-1.57056v-3.50963h7.37022v-0.93005c0,-0.30417 -0.01755,-0.4738 -0.05264,-0.5089c-0.0351,-0.0351 -0.20473,-0.05264 -0.5089,-0.05264h-6.80868v-2.11455h7.26493c0.60833,0 1.12893,0.21935 1.56178,0.65806c0.4387,0.43285 0.65806,0.95345 0.65806,1.56178v7.11577zM729.15424,668.53297h4.69413v-1.71972h-5.25566v1.15818c0,0.29832 0.01755,0.46795 0.05264,0.5089c0.0351,0.0351 0.20473,0.05264 0.5089,0.05264zM737.32379,670.63875v-7.11577c0,-0.60833 0.21643,-1.12893 0.64928,-1.56178c0.4387,-0.4387 0.96222,-0.65805 1.57056,-0.65805h5.18548v2.11455h-4.72922c-0.30417,0 -0.4738,0.01755 -0.5089,0.05264c-0.0351,0.0351 -0.05264,0.20473 -0.05264,0.5089v6.65952zM747.81648,670.63875c-0.60833,0 -1.13185,-0.21643 -1.57056,-0.64928c-0.43285,-0.4387 -0.64928,-0.96222 -0.64928,-1.57056v-4.89593c0,-0.60833 0.21643,-1.12893 0.64928,-1.56178c0.4387,-0.4387 0.96222,-0.65805 1.57056,-0.65805h5.16793v-3.05338h2.10578v12.38898zM748.2815,668.53297h4.14136c0.29832,0 0.46503,-0.01755 0.50012,-0.05264c0.04095,-0.04095 0.06142,-0.21058 0.06142,-0.5089v-3.9922c0,-0.30417 -0.02047,-0.4738 -0.06142,-0.5089c-0.0351,-0.0351 -0.2018,-0.05264 -0.50012,-0.05264h-4.14136c-0.29832,0 -0.46795,0.01755 -0.5089,0.05264c-0.0351,0.0351 -0.05264,0.20473 -0.05264,0.5089v3.9922c0,0.29832 0.01755,0.46795 0.05264,0.5089c0.04095,0.0351 0.21058,0.05264 0.5089,0.05264zM758.9532,670.63875c-0.60833,0 -1.13185,-0.21643 -1.57056,-0.64928c-0.43285,-0.4387 -0.64928,-0.96222 -0.64928,-1.57056v-0.35096h2.10578v0.09652c0,0.16963 0.01755,0.27492 0.05264,0.31587c0.04095,0.0351 0.14624,0.05264 0.31587,0.05264h4.52742c0.16963,0 0.272,-0.01755 0.3071,-0.05264c0.04095,-0.04095 0.06142,-0.14624 0.06142,-0.31587v-0.76334c0,-0.16963 -0.02047,-0.27199 -0.06142,-0.30709c-0.0351,-0.04095 -0.13746,-0.06142 -0.30709,-0.06142h-4.78186c-0.60833,0 -1.13185,-0.21935 -1.57056,-0.65805c-0.43285,-0.4387 -0.64928,-0.9593 -0.64928,-1.56178v-1.28979c0,-0.60833 0.21643,-1.12893 0.64928,-1.56178c0.4387,-0.4387 0.96222,-0.65805 1.57056,-0.65805h5.03631c0.61418,0 1.14063,0.21935 1.57933,0.65806c0.4387,0.43285 0.65806,0.95345 0.65806,1.56178v0.35974h-2.12332v-0.09651c0,-0.17548 -0.02047,-0.28077 -0.06142,-0.31587c-0.0351,-0.0351 -0.13746,-0.05264 -0.30709,-0.05264h-4.52742c-0.16963,0 -0.27492,0.01755 -0.31587,0.05264c-0.0351,0.0351 -0.05264,0.14039 -0.05264,0.31587v0.75457c0,0.16963 0.01755,0.27492 0.05264,0.31587c0.04095,0.0351 0.14624,0.05264 0.31587,0.05264h4.78187c0.61418,0 1.14063,0.21935 1.57933,0.65806c0.4387,0.4387 0.65806,0.9593 0.65806,1.56178v1.28979c0,0.60833 -0.21935,1.13186 -0.65805,1.57056c-0.4387,0.43285 -0.96515,0.64928 -1.57933,0.64928z"/></g><path d="M303.76449,636.61225v-5.5059l-6.78833,-9.1993h3.19753l4.95873,6.22406l4.90743,-6.22406h3.23172l-6.78833,9.2164v5.4888zM315.48331,636.61225c-0.77516,0 -1.44202,-0.27359 -2.00059,-0.82076c-0.54717,-0.55857 -0.82076,-1.22543 -0.82076,-2.00059v-6.20696c0,-0.77516 0.27359,-1.43632 0.82076,-1.98349c0.55857,-0.55857 1.22543,-0.83785 2.00059,-0.83785h6.37795c0.77516,0 1.43632,0.27929 1.98349,0.83785c0.55857,0.54717 0.83785,1.20833 0.83785,1.98349v6.20696c0,0.77516 -0.27929,1.44202 -0.83785,2.00059c-0.54717,0.54717 -1.20833,0.82076 -1.98349,0.82076zM316.04758,633.94479h5.24941c0.37618,0 0.58707,-0.0228 0.63267,-0.0684c0.057,-0.057 0.0855,-0.27359 0.0855,-0.64976v-5.06132c0,-0.38758 -0.0285,-0.60417 -0.0855,-0.64976c-0.0456,-0.0456 -0.25649,-0.0684 -0.63267,-0.0684h-5.24941c-0.37618,0 -0.59277,0.0228 -0.64976,0.0684c-0.0456,0.0456 -0.0684,0.26219 -0.0684,0.64976v5.06132c0,0.37618 0.0228,0.59277 0.0684,0.64976c0.057,0.0456 0.27359,0.0684 0.64976,0.0684zM329.11446,636.61225c-0.77516,0 -1.44202,-0.27359 -2.00059,-0.82076c-0.54717,-0.55857 -0.82076,-1.22543 -0.82076,-2.00059v-9.02831h2.68455v8.46404c0,0.37618 0.0228,0.59277 0.0684,0.64976c0.0456,0.0456 0.25649,0.0684 0.63267,0.0684h5.24941c0.38758,0 0.60417,-0.0228 0.64976,-0.0684c0.0456,-0.057 0.0684,-0.27359 0.0684,-0.64976v-8.46404h2.68455v9.02831c0,0.77516 -0.27929,1.44202 -0.83785,2.00059c-0.54717,0.54717 -1.20833,0.82076 -1.98349,0.82076zM351.02169,636.61225l-4.65095,-11.84966h2.83845l2.87264,6.99352l3.02654,-6.99352h2.77005l3.23172,7.02772l2.66745,-7.02772h2.83845l-4.44576,11.84966h-2.08609l-3.57371,-7.89977l-3.40271,7.89977zM368.04759,636.61225v-11.84966h2.68455v11.84966zM368.04759,623.58273v-2.68455h2.68455v2.68455zM375.83034,636.61225c-0.77516,0 -1.44202,-0.27359 -2.00059,-0.82076c-0.54717,-0.55857 -0.82076,-1.22543 -0.82076,-2.00059v-12.9269h2.70165v12.36263c0,0.37618 0.0228,0.59277 0.0684,0.64976c0.0456,0.0456 0.25078,0.0684 0.61557,0.0684h1.8296v2.66745zM382.62904,636.61225c-0.77516,0 -1.44202,-0.27359 -2.00059,-0.82076c-0.54717,-0.55857 -0.82076,-1.22543 -0.82076,-2.00059v-12.9269h2.70165v12.36263c0,0.37618 0.0228,0.59277 0.0684,0.64976c0.0456,0.0456 0.25078,0.0684 0.61557,0.0684h1.8296v2.66745zM394.472,641.28027v-2.68455h6.66864c0.36478,0 0.56997,-0.0285 0.61557,-0.0855c0.057,-0.0456 0.0855,-0.25649 0.0855,-0.63267v-1.26533h-6.53184c-0.77516,0 -1.44202,-0.27359 -2.00059,-0.82076c-0.54717,-0.55857 -0.82076,-1.22543 -0.82076,-2.00059v-6.20696c0,-0.77516 0.27359,-1.43632 0.82076,-1.98349c0.55857,-0.55857 1.22543,-0.83785 2.00059,-0.83785h6.41215c0.77516,0 1.43062,0.27929 1.96639,0.83785c0.54717,0.54717 0.82076,1.20833 0.82076,1.98349v10.89211c0,0.77516 -0.27359,1.43632 -0.82076,1.98349c-0.53577,0.54717 -1.19123,0.82076 -1.96639,0.82076zM395.87412,633.94479h5.26651c0.36478,0 0.56997,-0.0228 0.61557,-0.0684c0.057,-0.057 0.0855,-0.27359 0.0855,-0.64976v-5.06132c0,-0.38758 -0.0285,-0.60417 -0.0855,-0.64976c-0.0456,-0.0456 -0.25078,-0.0684 -0.61557,-0.0684h-5.26651c-0.37618,0 -0.59277,0.0228 -0.64976,0.0684c-0.0456,0.0456 -0.0684,0.26219 -0.0684,0.64976v5.06132c0,0.37618 0.0228,0.59277 0.0684,0.64976c0.057,0.0456 0.27359,0.0684 0.64976,0.0684zM409.03039,636.61225c-0.77516,0 -1.44202,-0.27359 -2.00059,-0.82076c-0.54717,-0.55857 -0.82076,-1.22543 -0.82076,-2.00059v-6.20696c0,-0.77516 0.27359,-1.43632 0.82076,-1.98349c0.55857,-0.55857 1.22543,-0.83785 2.00059,-0.83785h6.37794c0.77516,0 1.43632,0.27929 1.98349,0.83785c0.55857,0.54717 0.83785,1.20833 0.83785,1.98349v4.46286h-9.35317v1.17984c0,0.37618 0.0228,0.59277 0.0684,0.64976c0.057,0.0456 0.27358,0.0684 0.64975,0.0684h8.63503v2.66745h-9.19928zM408.87649,629.63582h6.68572v-1.47052c0,-0.38758 -0.0285,-0.60417 -0.0855,-0.64976c-0.0456,-0.0456 -0.25649,-0.0684 -0.63267,-0.0684h-5.24941c-0.37617,0 -0.59275,0.0228 -0.64975,0.0684c-0.0456,0.0456 -0.0684,0.26219 -0.0684,0.64976v1.47052zM423.19267,636.61225c-0.77516,0 -1.44202,-0.27359 -2.00059,-0.82076c-0.54717,-0.55857 -0.82076,-1.22543 -0.82076,-2.00059v-12.65331h2.68455v3.625h4.61675v2.68455h-4.61675v5.77949c0,0.37618 0.0228,0.59277 0.0684,0.64976c0.0456,0.0456 0.25649,0.0684 0.63267,0.0684h3.91569v2.66745zM438.34819,636.61225c-0.77516,0 -1.44202,-0.27359 -2.00059,-0.82076c-0.54717,-0.55857 -0.82076,-1.22543 -0.82076,-2.00059v-6.20696c0,-0.77516 0.27359,-1.43632 0.82076,-1.98349c0.55857,-0.55857 1.22543,-0.83785 2.00059,-0.83785h6.37795c0.77516,0 1.43632,0.27929 1.98349,0.83785c0.55857,0.54717 0.83785,1.20833 0.83785,1.98349v4.46286h-9.35319v1.17984c0,0.37618 0.0228,0.59277 0.0684,0.64976c0.057,0.0456 0.27359,0.0684 0.64976,0.0684h8.63503v2.66745zM438.1943,629.63582h6.68574v-1.47052c0,-0.38758 -0.0285,-0.60417 -0.0855,-0.64976c-0.0456,-0.0456 -0.25649,-0.0684 -0.63267,-0.0684h-5.24941c-0.37618,0 -0.59277,0.0228 -0.64976,0.0684c-0.0456,0.0456 -0.0684,0.26219 -0.0684,0.64976zM449.14375,636.61225v-0.71816l4.34316,-5.30071l-4.34316,-5.11262v-0.71816h2.88974l3.19753,3.7618l3.18043,-3.7618h2.90684v0.71816l-4.36026,5.11262l4.36026,5.30071v0.71816h-2.88974l-3.19753,-3.91569l-3.19753,3.91569zM466.19577,636.61225c-0.77516,0 -1.44202,-0.27359 -2.00059,-0.82076c-0.54717,-0.55857 -0.82076,-1.22543 -0.82076,-2.00059v-6.20696c0,-0.77516 0.27359,-1.43632 0.82076,-1.98349c0.55857,-0.55857 1.22543,-0.83785 2.00059,-0.83785h9.1822v2.68455h-8.61793c-0.37618,0 -0.59277,0.0228 -0.64976,0.0684c-0.0456,0.0456 -0.0684,0.26219 -0.0684,0.64976v5.06132c0,0.37618 0.0228,0.59277 0.0684,0.64976c0.057,0.0456 0.27359,0.0684 0.64976,0.0684h8.63503v2.66745zM480.40219,636.61225c-0.77516,0 -1.44202,-0.27359 -2.00059,-0.82076c-0.54717,-0.55857 -0.82076,-1.22543 -0.82076,-2.00059v-12.9269h2.70165v12.36263c0,0.37618 0.0228,0.59277 0.0684,0.64976c0.0456,0.0456 0.25078,0.0684 0.61557,0.0684h1.8296v2.66745zM487.23845,636.61225c-0.77516,0 -1.44202,-0.27359 -2.00059,-0.82076c-0.54717,-0.55857 -0.82076,-1.22543 -0.82076,-2.00059v-9.02831h2.68455v8.46404c0,0.37618 0.0228,0.59277 0.0684,0.64976c0.0456,0.0456 0.25649,0.0684 0.63267,0.0684h5.24941c0.38758,0 0.60417,-0.0228 0.64976,-0.0684c0.0456,-0.057 0.0684,-0.27359 0.0684,-0.64976v-8.46404h2.68455v9.02831c0,0.77516 -0.27929,1.44202 -0.83785,2.00059c-0.54717,0.54717 -1.20833,0.82076 -1.98349,0.82076zM500.89619,636.61225c-0.77516,0 -1.44202,-0.27359 -2.00059,-0.82076c-0.54717,-0.55857 -0.82076,-1.22543 -0.82076,-2.00059v-0.44458h2.68455v0.11969c0,0.21659 0.0228,0.35338 0.0684,0.41038c0.0456,0.0456 0.17669,0.0684 0.39328,0.0684h5.74529c0.21659,0 0.34768,-0.0228 0.39328,-0.0684c0.0456,-0.057 0.0684,-0.19379 0.0684,-0.41038v-0.95755c0,-0.21659 -0.0228,-0.34768 -0.0684,-0.39328c-0.0456,-0.0456 -0.17669,-0.0684 -0.39328,-0.0684h-6.07017c-0.77516,0 -1.44202,-0.27929 -2.00059,-0.83785c-0.54717,-0.55857 -0.82076,-1.21974 -0.82076,-1.98349v-1.64151c0,-0.77516 0.27359,-1.43632 0.82076,-1.98349c0.55857,-0.55857 1.22543,-0.83785 2.00059,-0.83785h6.39505c0.77516,0 1.44202,0.27929 2.00059,0.83785c0.55857,0.54717 0.83785,1.20833 0.83785,1.98349v0.46167h-2.70165v-0.13679c0,-0.21659 -0.0228,-0.34768 -0.0684,-0.39328c-0.0456,-0.0456 -0.17669,-0.0684 -0.39328,-0.0684h-5.74529c-0.21659,0 -0.34768,0.0228 -0.39328,0.0684c-0.0456,0.0456 -0.0684,0.17669 -0.0684,0.39328v0.95755c0,0.22799 0.0228,0.36478 0.0684,0.41038c0.0456,0.0456 0.17669,0.0684 0.39328,0.0684h6.07017c0.77516,0 1.44202,0.27929 2.00059,0.83785c0.55857,0.55857 0.83785,1.21974 0.83785,1.98349v1.62441c0,0.77516 -0.27929,1.44202 -0.83785,2.00059c-0.55857,0.54717 -1.22543,0.82076 -2.00059,0.82076zM512.16589,636.61225v-11.84966h2.68455v11.84966zM512.16589,623.58273v-2.68455h2.68455v2.68455zM522.68255,636.61225l-6.51475,-11.84966h3.07783l4.68515,8.60083l4.65095,-8.60083h3.07783l-6.53184,11.84966zM535.12075,636.61225c-0.77516,0 -1.44202,-0.27359 -2.00059,-0.82076c-0.54717,-0.55857 -0.82076,-1.22543 -0.82076,-2.00059v-6.20696c0,-0.77516 0.27359,-1.43632 0.82076,-1.98349c0.55857,-0.55857 1.22543,-0.83785 2.00059,-0.83785h6.37795c0.77516,0 1.43632,0.27929 1.98349,0.83785c0.55857,0.54717 0.83785,1.20833 0.83785,1.98349v4.46286h-9.35319v1.17984c0,0.37618 0.0228,0.59277 0.0684,0.64976c0.057,0.0456 0.27359,0.0684 0.64976,0.0684h8.63503v2.66745zM534.96686,629.63582h6.68574v-1.47052c0,-0.38758 -0.0285,-0.60417 -0.0855,-0.64976c-0.0456,-0.0456 -0.25649,-0.0684 -0.63267,-0.0684h-5.24941c-0.37618,0 -0.59277,0.0228 -0.64976,0.0684c-0.0456,0.0456 -0.0684,0.26219 -0.0684,0.64976zM552.70904,636.61225v-12.9098c0,-0.77516 0.27359,-1.43632 0.82076,-1.98349c0.55857,-0.54717 1.22543,-0.82076 2.00059,-0.82076h4.47996v2.68455h-3.91569c-0.37618,0 -0.58707,0.0285 -0.63267,0.0855c-0.0456,0.0456 -0.0684,0.25078 -0.0684,0.61557v0.47877h4.61675v2.68455h-4.61675v9.1651zM564.27523,636.61225c-0.77516,0 -1.44202,-0.27359 -2.00059,-0.82076c-0.54717,-0.55857 -0.82076,-1.22543 -0.82076,-2.00059v-6.20696c0,-0.77516 0.27359,-1.43632 0.82076,-1.98349c0.55857,-0.55857 1.22543,-0.83785 2.00059,-0.83785h6.37795c0.77516,0 1.43632,0.27929 1.98349,0.83785c0.55857,0.54717 0.83785,1.20833 0.83785,1.98349v4.46286h-9.35319v1.17984c0,0.37618 0.0228,0.59277 0.0684,0.64976c0.057,0.0456 0.27359,0.0684 0.64976,0.0684h8.63503v2.66745zM564.12134,629.63582h6.68574v-1.47052c0,-0.38758 -0.0285,-0.60417 -0.0855,-0.64976c-0.0456,-0.0456 -0.25649,-0.0684 -0.63267,-0.0684h-5.24941c-0.37618,0 -0.59277,0.0228 -0.64976,0.0684c-0.0456,0.0456 -0.0684,0.26219 -0.0684,0.64976zM578.42037,636.61225c-0.77516,0 -1.44202,-0.27359 -2.00059,-0.82076c-0.54717,-0.55857 -0.82076,-1.22543 -0.82076,-2.00059v-4.44576h9.35319v-1.17984c0,-0.38758 -0.0228,-0.60417 -0.0684,-0.64976c-0.0456,-0.0456 -0.26219,-0.0684 -0.64976,-0.0684h-8.63503v-2.68455h9.2164c0.77516,0 1.43632,0.27929 1.98349,0.83785c0.54717,0.54717 0.82076,1.20833 0.82076,1.98349v9.02831zM578.98464,633.94479h5.96758v-2.18868h-6.66864v1.47052c0,0.37618 0.0228,0.59277 0.0684,0.64976c0.0456,0.0456 0.25649,0.0684 0.63267,0.0684zM592.60639,636.61225c-0.77516,0 -1.44202,-0.27359 -2.00059,-0.82076c-0.54717,-0.55857 -0.82076,-1.22543 -0.82076,-2.00059v-12.65331h2.68455v3.625h4.61675v2.68455h-4.61675v5.77949c0,0.37618 0.0228,0.59277 0.0684,0.64976c0.0456,0.0456 0.25649,0.0684 0.63267,0.0684h3.91569v2.66745zM601.54873,636.61225c-0.77516,0 -1.44202,-0.27359 -2.00059,-0.82076c-0.54717,-0.55857 -0.82076,-1.22543 -0.82076,-2.00059v-9.02831h2.68455v8.46404c0,0.37618 0.0228,0.59277 0.0684,0.64976c0.0456,0.0456 0.25649,0.0684 0.63267,0.0684h5.24941c0.38758,0 0.60417,-0.0228 0.64976,-0.0684c0.0456,-0.057 0.0684,-0.27359 0.0684,-0.64976v-8.46404h2.68455v9.02831c0,0.77516 -0.27929,1.44202 -0.83785,2.00059c-0.54717,0.54717 -1.20833,0.82076 -1.98349,0.82076zM612.89961,636.61225v-9.02831c0,-0.77516 0.27359,-1.43632 0.82076,-1.98349c0.55857,-0.55857 1.22543,-0.83785 2.00059,-0.83785h6.56604v2.68455h-6.00177c-0.37618,0 -0.58707,0.0228 -0.63267,0.0684c-0.0456,0.0456 -0.0684,0.26219 -0.0684,0.64976v8.44694zM626.50416,636.61225c-0.77516,0 -1.44202,-0.27359 -2.00059,-0.82076c-0.54717,-0.55857 -0.82076,-1.22543 -0.82076,-2.00059v-6.20696c0,-0.77516 0.27359,-1.43632 0.82076,-1.98349c0.55857,-0.55857 1.22543,-0.83785 2.00059,-0.83785h6.37795c0.77516,0 1.43632,0.27929 1.98349,0.83785c0.55857,0.54717 0.83785,1.20833 0.83785,1.98349v4.46286h-9.35319v1.17984c0,0.37618 0.0228,0.59277 0.0684,0.64976c0.057,0.0456 0.27359,0.0684 0.64976,0.0684h8.63503v2.66745zM626.35027,629.63582h6.68574v-1.47052c0,-0.38758 -0.0285,-0.60417 -0.0855,-0.64976c-0.0456,-0.0456 -0.25649,-0.0684 -0.63267,-0.0684h-5.24941c-0.37618,0 -0.59277,0.0228 -0.64976,0.0684c-0.0456,0.0456 -0.0684,0.26219 -0.0684,0.64976zM640.42087,636.61225c-0.77516,0 -1.44202,-0.27359 -2.00059,-0.82076c-0.54717,-0.55857 -0.82076,-1.22543 -0.82076,-2.00059v-0.44458h2.68455v0.11969c0,0.21659 0.0228,0.35338 0.0684,0.41038c0.0456,0.0456 0.17669,0.0684 0.39328,0.0684h5.74529c0.21659,0 0.34768,-0.0228 0.39328,-0.0684c0.0456,-0.057 0.0684,-0.19379 0.0684,-0.41038v-0.95755c0,-0.21659 -0.0228,-0.34768 -0.0684,-0.39328c-0.0456,-0.0456 -0.17669,-0.0684 -0.39328,-0.0684h-6.07017c-0.77516,0 -1.44202,-0.27929 -2.00059,-0.83785c-0.54717,-0.55857 -0.82076,-1.21974 -0.82076,-1.98349v-1.64151c0,-0.77516 0.27359,-1.43632 0.82076,-1.98349c0.55857,-0.55857 1.22543,-0.83785 2.00059,-0.83785h6.39505c0.77516,0 1.44202,0.27929 2.00059,0.83785c0.55857,0.54717 0.83785,1.20833 0.83785,1.98349v0.46167h-2.70165v-0.13679c0,-0.21659 -0.0228,-0.34768 -0.0684,-0.39328c-0.0456,-0.0456 -0.17669,-0.0684 -0.39328,-0.0684h-5.74529c-0.21659,0 -0.34768,0.0228 -0.39328,0.0684c-0.0456,0.0456 -0.0684,0.17669 -0.0684,0.39328v0.95755c0,0.22799 0.0228,0.36478 0.0684,0.41038c0.0456,0.0456 0.17669,0.0684 0.39328,0.0684h6.07017c0.77516,0 1.44202,0.27929 2.00059,0.83785c0.55857,0.55857 0.83785,1.21974 0.83785,1.98349v1.62441c0,0.77516 -0.27929,1.44202 -0.83785,2.00059c-0.55857,0.54717 -1.22543,0.82076 -2.00059,0.82076zM651.72478,636.61225v-2.66745h2.68455v2.66745z" fill="#ffffff" fill-rule="nonzero" stroke="none" stroke-width="1"/></g></g></svg>