<svg version="1.1" xmlns="http://www.w3.org/2000/svg" xmlns:xlink="http://www.w3.org/1999/xlink" width="172.56567" height="648.03529" viewBox="0,0,172.56567,648.03529"><g transform="translate(-902.24584,-63.66977)"><g data-paper-data="{&quot;isPaintingLayer&quot;:true}" stroke-linejoin="miter" stroke-miterlimit="10" stroke-dasharray="" stroke-dashoffset="0" style="mix-blend-mode: normal"><path d="M916.95098,711.36026c-11.19021,-0.00158 -14.70859,-0.55543 -14.70513,-7.81605l0.30064,-630.40893c0.00167,-3.48671 1.43625,-8.47775 9.05101,-8.47699l147.50865,-0.98852c15.85687,0.00158 15.70855,2.2221 15.70509,9.48273l-0.30065,630.40893c-0.00347,7.26062 -1.86076,8.14522 -17.71763,8.14363z" fill="#de9240" fill-rule="evenodd" stroke="none" stroke-width="1" stroke-linecap="square"/><path d="M934.65628,114.20553c0,-10.22543 8.28935,-18.5148 18.5148,-18.5148h74.05701c4.91043,0 9.61975,1.95067 13.09195,5.42287c3.4722,3.4722 5.42285,8.1815 5.42285,13.09193v74.05701c0,10.22543 -8.28937,18.5148 -18.5148,18.5148h-74.05701c-10.22545,0 -18.5148,-8.28937 -18.5148,-18.5148z" fill="#ffffff" fill-rule="evenodd" stroke="none" stroke-width="1" stroke-linecap="square"/><path d="M973.60242,169.83759l12.10546,-14.73981l-26.53166,-34.62287l18.25228,-0.14113l5.01254,6.76702" fill="none" fill-rule="nonzero" stroke="#ff9400" stroke-width="5.5" stroke-linecap="round"/><path d="M986.14694,154.72144l18.44044,-24.27364" fill="none" fill-rule="nonzero" stroke="#ff9400" stroke-width="5.5" stroke-linecap="round"/><path d="M995.55533,142.74142l25.21448,35.75188l-17.68777,0.04704c0,0 -5.26912,-6.74406 -6.53914,-8.35734" fill="none" fill-rule="nonzero" stroke="#ff9400" stroke-width="5" stroke-linecap="round"/><path d="M1006.78267,171.26453l-13.17175,-14.04986l-16.74693,19.94579l-18.06411,0.37634l15.61793,-19.75762" fill="none" fill-rule="nonzero" stroke="#ff9400" stroke-width="5.5" stroke-linecap="round"/><path d="M974.22964,128.425l10.91373,14.30075l16.3706,-21.6393l19.38128,-0.18817l-14.12911,18.46455" fill="none" fill-rule="nonzero" stroke="#ff9400" stroke-width="5.5" stroke-linecap="round"/><path d="M974.32373,165.64772l7.65216,-1.75623l-7.27582,8.78116l-7.02493,0.37634l3.8888,-4.89236z" fill="#ff9400" fill-rule="nonzero" stroke="none" stroke-width="0" stroke-linecap="round"/><path d="M1009.25472,170.16375l3.95703,4.89236l-7.14817,-0.37634l-7.40347,-8.78116l7.78641,1.75623z" data-paper-data="{&quot;index&quot;:null}" fill="#ff9400" fill-rule="nonzero" stroke="none" stroke-width="0" stroke-linecap="round"/><path d="M972.31661,130.27218l-3.8888,-4.89236l7.02493,0.37634l7.27582,9.28294l-7.65216,-2.25801z" data-paper-data="{&quot;index&quot;:null}" fill="#ff9400" fill-rule="nonzero" stroke="none" stroke-width="0" stroke-linecap="round"/><path d="M1005.30869,133.78464l-7.65216,1.12901l7.27582,-9.28294l7.02493,-0.37634l-3.8888,4.89236z" data-paper-data="{&quot;index&quot;:null}" fill="#ff9400" fill-rule="nonzero" stroke="none" stroke-width="0" stroke-linecap="round"/><path d="M985.23746,126.63427l3.8888,4.89236l-7.02493,-0.37634l-7.27582,-9.28294l7.65216,2.25801z" data-paper-data="{&quot;index&quot;:null}" fill="#ff9400" fill-rule="nonzero" stroke="none" stroke-width="0" stroke-linecap="round"/><path d="M973.94739,161.63348l-7.65216,2.25801l7.27582,-9.28294l7.02493,-0.37634l-3.8888,4.89236z" data-paper-data="{&quot;index&quot;:null}" fill="#ff9400" fill-rule="nonzero" stroke="none" stroke-width="0" stroke-linecap="round"/><path d="M1007.29745,135.34864l7.91978,-2.31666l-7.53029,9.52406l-7.27062,0.38611l4.02481,-5.01944z" data-paper-data="{&quot;index&quot;:null}" fill="#ff9400" fill-rule="nonzero" stroke="none" stroke-width="0" stroke-linecap="round"/><path d="M994.8046,172.17088l-3.79666,-5.2687l6.32777,0.25089l7.97299,9.78473l-7.71988,-2.25801z" data-paper-data="{&quot;index&quot;:null}" fill="#ff9400" fill-rule="nonzero" stroke="none" stroke-width="0" stroke-linecap="round"/><g fill="#ffffff" fill-rule="nonzero" stroke="none" stroke-width="1" stroke-linecap="square"><path d="M919.53319,237.07814v-9.05451h1.64426v9.05451zM922.42339,237.07814v-7.29227h5.6775c0.47681,0 0.88481,0.16959 1.22398,0.50876c0.33918,0.33918 0.50876,0.74717 0.50876,1.22398v5.55953h-1.65164v-5.2056c0,-0.23595 -0.01475,-0.36867 -0.04424,-0.39816c-0.02458,-0.02949 -0.15484,-0.04424 -0.39079,-0.04424h-3.23691c-0.23103,0 -0.3613,0.01475 -0.39079,0.04424c-0.02949,0.02949 -0.04424,0.16221 -0.04424,0.39816v5.2056zM932.66116,237.07814c-0.47681,0 -0.88481,-0.16959 -1.22398,-0.50876c-0.33918,-0.33918 -0.50876,-0.74717 -0.50876,-1.22398v-0.28019h1.64426v0.07373c0,0.13764 0.01475,0.2212 0.04424,0.25069c0.02949,0.02949 0.11306,0.04424 0.25069,0.04424h3.53185c0.13272,0 0.21383,-0.01475 0.24332,-0.04424c0.02949,-0.02949 0.04424,-0.11306 0.04424,-0.25069v-0.58987c0,-0.13272 -0.01475,-0.21383 -0.04424,-0.24332c-0.02949,-0.02949 -0.1106,-0.04424 -0.24332,-0.04424h-3.7383c-0.47681,0 -0.88481,-0.17205 -1.22398,-0.51614c-0.33918,-0.34409 -0.50876,-0.75208 -0.50876,-1.22398v-1.00278c0,-0.47681 0.16959,-0.88481 0.50876,-1.22398c0.33918,-0.33918 0.74717,-0.50876 1.22398,-0.50876h3.93738c0.48173,0 0.89218,0.16959 1.23135,0.50876c0.34409,0.33918 0.51614,0.74717 0.51614,1.22398v0.27281h-1.65901v-0.07373c0,-0.13272 -0.01475,-0.21383 -0.04424,-0.24332c-0.02949,-0.02949 -0.1106,-0.04424 -0.24332,-0.04424h-3.53185c-0.13764,0 -0.2212,0.01475 -0.25069,0.04424c-0.02949,0.02949 -0.04424,0.1106 -0.04424,0.24332v0.58987c0,0.13764 0.01475,0.2212 0.04424,0.25069c0.02949,0.02949 0.11306,0.04424 0.25069,0.04424h3.73093c0.48173,0 0.89218,0.17205 1.23135,0.51614c0.34409,0.34409 0.51614,0.74963 0.51614,1.21661v1.01015c0,0.47681 -0.17205,0.88481 -0.51614,1.22398c-0.33918,0.33918 -0.74963,0.50876 -1.23135,0.50876zM941.35667,237.07814c-0.47681,0 -0.88726,-0.16959 -1.23135,-0.50876c-0.33918,-0.33918 -0.50876,-0.74717 -0.50876,-1.22398v-7.80103h1.65164v2.24151h2.83875v1.64426h-2.83875v3.56134c0,0.23595 0.01475,0.36867 0.04424,0.39816c0.02949,0.02949 0.16221,0.04424 0.39816,0.04424h2.39635v1.64426zM947.11576,237.07814c-0.47681,0 -0.88481,-0.16959 -1.22398,-0.50876c-0.33918,-0.33918 -0.50876,-0.74717 -0.50876,-1.22398v-2.7429h5.75861v-0.72996c0,-0.23595 -0.01475,-0.36867 -0.04424,-0.39816c-0.02949,-0.02949 -0.16221,-0.04424 -0.39816,-0.04424h-5.3162v-1.64426h5.67013c0.47681,0 0.88481,0.16959 1.22398,0.50876c0.34409,0.33918 0.51614,0.74717 0.51614,1.22398v5.55953zM947.46968,235.43388h3.67194v-1.34933h-4.11434v0.90693c0,0.23595 0.01475,0.36867 0.04424,0.39816c0.02949,0.02949 0.16221,0.04424 0.39816,0.04424zM955.56869,237.07814c-0.47681,0 -0.88481,-0.16959 -1.22398,-0.50876c-0.33918,-0.33918 -0.50876,-0.74717 -0.50876,-1.22398v-7.96325h1.65901v7.60932c0,0.23595 0.01475,0.36867 0.04424,0.39816c0.02949,0.02949 0.1573,0.04424 0.38342,0.04424h1.12075v1.64426zM959.75751,237.07814c-0.47681,0 -0.88481,-0.16959 -1.22398,-0.50876c-0.33918,-0.33918 -0.50876,-0.74717 -0.50876,-1.22398v-7.96325h1.65901v7.60932c0,0.23595 0.01475,0.36867 0.04424,0.39816c0.02949,0.02949 0.1573,0.04424 0.38342,0.04424h1.12075v1.64426zM967.69266,237.07814c-0.47681,0 -0.88481,-0.16959 -1.22398,-0.50876c-0.33918,-0.33918 -0.50876,-0.74717 -0.50876,-1.22398v-3.82678c0,-0.47681 0.16959,-0.88481 0.50876,-1.22398c0.33918,-0.33918 0.74717,-0.50876 1.22398,-0.50876h3.93738c0.48173,0 0.89218,0.16959 1.23135,0.50876c0.33918,0.33918 0.50876,0.74717 0.50876,1.22398v3.82678c0,0.47681 -0.16959,0.88481 -0.50876,1.22398c-0.33918,0.33918 -0.74963,0.50876 -1.23135,0.50876zM968.04658,235.43388h3.23691c0.23103,0 0.3613,-0.01475 0.39079,-0.04424c0.02949,-0.02949 0.04424,-0.16221 0.04424,-0.39816v-3.11894c0,-0.23595 -0.01475,-0.36867 -0.04424,-0.39816c-0.02949,-0.02949 -0.15976,-0.04424 -0.39079,-0.04424h-3.23691c-0.23595,0 -0.36867,0.01475 -0.39816,0.04424c-0.02949,0.02949 -0.04424,0.16221 -0.04424,0.39816v3.11894c0,0.23595 0.01475,0.36867 0.04424,0.39816c0.02949,0.02949 0.16221,0.04424 0.39816,0.04424zM976.0996,237.07814c-0.47681,0 -0.88726,-0.16959 -1.23135,-0.50876c-0.33918,-0.33918 -0.50876,-0.74717 -0.50876,-1.22398v-5.55953h1.65164v5.2056c0,0.23595 0.01475,0.36867 0.04424,0.39816c0.02949,0.02949 0.16221,0.04424 0.39816,0.04424h3.22954c0.23595,0 0.36867,-0.01475 0.39816,-0.04424c0.02949,-0.02949 0.04424,-0.16221 0.04424,-0.39816v-5.2056h1.64426v5.55953c0,0.47681 -0.16959,0.88481 -0.50876,1.22398c-0.33918,0.33918 -0.74717,0.50876 -1.22398,0.50876zM983.09447,237.07814v-5.55953c0,-0.47681 0.16959,-0.88481 0.50876,-1.22398c0.33918,-0.33918 0.74717,-0.50876 1.22398,-0.50876h4.04798v1.64426h-3.69406c-0.23595,0 -0.36867,0.01475 -0.39816,0.04424c-0.02949,0.02949 -0.04424,0.16221 -0.04424,0.39816v5.2056z"/><path d="M922.61527,252.17881l-3.2959,-9.05451h1.76224l2.18252,5.97244l2.18989,-5.97244h1.62214l2.18989,5.97244l2.17515,-5.97244h1.77698l-3.2959,9.05451h-1.31246l-2.35211,-6.41484l-2.33736,6.41484zM933.97366,252.17881v-7.29227h1.64426v7.29227zM933.97366,244.15658v-1.66638h1.64426v1.66638zM937.07773,252.17881v-7.29227h5.6775c0.47681,0 0.88481,0.16959 1.22398,0.50876c0.33918,0.33918 0.50876,0.74717 0.50876,1.22398v5.55953h-1.65164v-5.2056c0,-0.23595 -0.01475,-0.36867 -0.04424,-0.39816c-0.02458,-0.02949 -0.15484,-0.04424 -0.39079,-0.04424h-3.23691c-0.23103,0 -0.3613,0.01475 -0.39079,0.04424c-0.02949,0.02949 -0.04424,0.16221 -0.04424,0.39816v5.2056zM947.182,252.17881c-0.48173,0 -0.89218,-0.16959 -1.23135,-0.50876c-0.33918,-0.33918 -0.50876,-0.74717 -0.50876,-1.22398v-3.82678c0,-0.47681 0.16959,-0.88481 0.50876,-1.22398c0.33918,-0.33918 0.74963,-0.50876 1.23135,-0.50876h4.03324v-2.39635h1.65164v9.68862zM947.54329,250.53454h3.23691c0.23103,0 0.3613,-0.01475 0.39079,-0.04424c0.02949,-0.02949 0.04424,-0.16221 0.04424,-0.39816v-3.11894c0,-0.23595 -0.01475,-0.36867 -0.04424,-0.39816c-0.02949,-0.02949 -0.15976,-0.04424 -0.39079,-0.04424h-3.23691c-0.23595,0 -0.36867,0.01475 -0.39816,0.04424c-0.02949,0.02949 -0.04424,0.16221 -0.04424,0.39816v3.11894c0,0.23595 0.01475,0.36867 0.04424,0.39816c0.02949,0.02949 0.16221,0.04424 0.39816,0.04424zM955.62927,252.17881c-0.47681,0 -0.88481,-0.16959 -1.22398,-0.50876c-0.33918,-0.33918 -0.50876,-0.74717 -0.50876,-1.22398v-3.82678c0,-0.47681 0.16959,-0.88481 0.50876,-1.22398c0.33918,-0.33918 0.74717,-0.50876 1.22398,-0.50876h3.93738c0.48173,0 0.89218,0.16959 1.23135,0.50876c0.33918,0.33918 0.50876,0.74717 0.50876,1.22398v3.82678c0,0.47681 -0.16959,0.88481 -0.50876,1.22398c-0.33918,0.33918 -0.74963,0.50876 -1.23135,0.50876zM955.98319,250.53454h3.23691c0.23103,0 0.3613,-0.01475 0.39079,-0.04424c0.02949,-0.02949 0.04424,-0.16221 0.04424,-0.39816v-3.11894c0,-0.23595 -0.01475,-0.36867 -0.04424,-0.39816c-0.02949,-0.02949 -0.15976,-0.04424 -0.39079,-0.04424h-3.23691c-0.23595,0 -0.36867,0.01475 -0.39816,0.04424c-0.02949,0.02949 -0.04424,0.16221 -0.04424,0.39816v3.11894c0,0.23595 0.01475,0.36867 0.04424,0.39816c0.02949,0.02949 0.16221,0.04424 0.39816,0.04424zM964.51527,252.17881l-2.86824,-7.29227h1.74749l1.76961,4.29868l1.86546,-4.29868h1.71062l1.98344,4.3208l1.65164,-4.3208h1.74749l-2.7429,7.29227h-1.28297l-2.19727,-4.86643l-2.10141,4.86643zM976.32198,252.17881c-0.47681,0 -0.88481,-0.16959 -1.22399,-0.50876c-0.33918,-0.33918 -0.50876,-0.74717 -0.50876,-1.22398v-0.28019h1.64427v0.07373c0,0.13764 0.01475,0.2212 0.04424,0.25069c0.02949,0.02949 0.11306,0.04424 0.25069,0.04424h3.53185c0.13272,0 0.21383,-0.01475 0.24332,-0.04424c0.02949,-0.02949 0.04424,-0.11306 0.04424,-0.25069v-0.58987c0,-0.13272 -0.01475,-0.21383 -0.04424,-0.24332c-0.02949,-0.02949 -0.1106,-0.04424 -0.24332,-0.04424h-3.7383c-0.47681,0 -0.88481,-0.17205 -1.22399,-0.51614c-0.33918,-0.34409 -0.50876,-0.75208 -0.50876,-1.22398v-1.00278c0,-0.47681 0.16959,-0.88481 0.50876,-1.22398c0.33918,-0.33918 0.74718,-0.50876 1.22399,-0.50876h3.93738c0.48173,0 0.89218,0.16959 1.23135,0.50876c0.34409,0.33918 0.51614,0.74717 0.51614,1.22398v0.27281h-1.65901v-0.07373c0,-0.13272 -0.01475,-0.21383 -0.04424,-0.24332c-0.02949,-0.02949 -0.1106,-0.04424 -0.24332,-0.04424h-3.53185c-0.13764,0 -0.2212,0.01475 -0.25069,0.04424c-0.02949,0.02949 -0.04424,0.1106 -0.04424,0.24332v0.58987c0,0.13764 0.01475,0.2212 0.04424,0.25069c0.02949,0.02949 0.11306,0.04424 0.25069,0.04424h3.73093c0.48173,0 0.89218,0.17205 1.23135,0.51614c0.34409,0.34409 0.51614,0.74963 0.51614,1.21661v1.01015c0,0.47681 -0.17205,0.88481 -0.51614,1.22398c-0.33918,0.33918 -0.74963,0.50876 -1.23135,0.50876zM987.19289,252.17881v-7.30702c0,-0.47681 0.17205,-0.88726 0.51614,-1.23135c0.34409,-0.34409 0.75454,-0.51614 1.23135,-0.51614h5.54478c0.48664,0 0.90201,0.17205 1.2461,0.51614c0.34409,0.34409 0.51614,0.75454 0.51614,1.23135v7.30702h-1.67376v-3.0452h-5.72174v3.0452zM988.8519,247.4746h5.72174v-2.24151c0,-0.23103 -0.01721,-0.3613 -0.05161,-0.39079c-0.02949,-0.02949 -0.1573,-0.04424 -0.38342,-0.04424h-4.84431c-0.23595,0 -0.36867,0.01475 -0.39816,0.04424c-0.02949,0.02949 -0.04424,0.15976 -0.04424,0.39079zM997.65726,255.06918v-10.18263h5.6775c0.47681,0 0.88481,0.16959 1.22398,0.50876c0.33918,0.33918 0.50876,0.74717 0.50876,1.22398v3.82678c0,0.47681 -0.16959,0.88481 -0.50876,1.22398c-0.33918,0.33918 -0.74717,0.50876 -1.22398,0.50876h-4.02586v2.89036zM999.74393,250.53454h3.23691c0.23595,0 0.36621,-0.01475 0.39079,-0.04424c0.02949,-0.02949 0.04424,-0.16221 0.04424,-0.39816v-3.11894c0,-0.23595 -0.01475,-0.36867 -0.04424,-0.39816c-0.02458,-0.02949 -0.15484,-0.04424 -0.39079,-0.04424h-3.23691c-0.23103,0 -0.3613,0.01475 -0.39079,0.04424c-0.02949,0.02949 -0.04424,0.16221 -0.04424,0.39816v3.11894c0,0.23595 0.01475,0.36867 0.04424,0.39816c0.02949,0.02949 0.15976,0.04424 0.39079,0.04424zM1006.00967,255.06918v-10.18263h5.6775c0.47681,0 0.88481,0.16959 1.22398,0.50876c0.33918,0.33918 0.50876,0.74717 0.50876,1.22398v3.82678c0,0.47681 -0.16959,0.88481 -0.50876,1.22398c-0.33918,0.33918 -0.74717,0.50876 -1.22398,0.50876h-4.02586v2.89036zM1008.09634,250.53454h3.23691c0.23595,0 0.36621,-0.01475 0.39079,-0.04424c0.02949,-0.02949 0.04424,-0.16221 0.04424,-0.39816v-3.11894c0,-0.23595 -0.01475,-0.36867 -0.04424,-0.39816c-0.02458,-0.02949 -0.15484,-0.04424 -0.39079,-0.04424h-3.23691c-0.23103,0 -0.3613,0.01475 -0.39079,0.04424c-0.02949,0.02949 -0.04424,0.16221 -0.04424,0.39816v3.11894c0,0.23595 0.01475,0.36867 0.04424,0.39816c0.02949,0.02949 0.15976,0.04424 0.39079,0.04424zM1016.07272,252.17881c-0.47681,0 -0.88481,-0.16959 -1.22398,-0.50876c-0.33918,-0.33918 -0.50876,-0.74717 -0.50876,-1.22398v-7.96325h1.65901v7.60932c0,0.23595 0.01475,0.36867 0.04424,0.39816c0.02949,0.02949 0.1573,0.04424 0.38342,0.04424h1.12075v1.64426zM1018.70497,252.17881v-7.29227h1.64426v7.29227zM1018.70497,244.15658v-1.66638h1.64426v1.66638zM1023.24065,252.17881c-0.47681,0 -0.88481,-0.16959 -1.22398,-0.50876c-0.33918,-0.33918 -0.50876,-0.74717 -0.50876,-1.22398v-3.82678c0,-0.47681 0.16959,-0.88481 0.50876,-1.22398c0.33918,-0.33918 0.74717,-0.50876 1.22398,-0.50876h5.66275v1.64426h-5.30883c-0.23595,0 -0.36867,0.01475 -0.39816,0.04424c-0.02949,0.02949 -0.04424,0.16221 -0.04424,0.39816v3.11894c0,0.23595 0.01475,0.36867 0.04424,0.39816c0.02949,0.02949 0.16221,0.04424 0.39816,0.04424h5.32358v1.64426zM1031.90966,252.17881c-0.47681,0 -0.88481,-0.16959 -1.22398,-0.50876c-0.33918,-0.33918 -0.50876,-0.74717 -0.50876,-1.22398v-2.7429h5.75861v-0.72996c0,-0.23595 -0.01475,-0.36867 -0.04424,-0.39816c-0.02949,-0.02949 -0.16221,-0.04424 -0.39816,-0.04424h-5.3162v-1.64426h5.67013c0.47681,0 0.88481,0.16959 1.22398,0.50876c0.34409,0.33918 0.51614,0.74717 0.51614,1.22398v5.55953zM1032.26358,250.53454h3.67194v-1.34933h-4.11434v0.90693c0,0.23595 0.01475,0.36867 0.04424,0.39816c0.02949,0.02949 0.16221,0.04424 0.39816,0.04424zM1040.6542,252.17881c-0.47681,0 -0.88726,-0.16959 -1.23135,-0.50876c-0.33918,-0.33918 -0.50876,-0.74717 -0.50876,-1.22398v-7.80103h1.65164v2.24151h2.83875v1.64426h-2.83875v3.56134c0,0.23595 0.01475,0.36867 0.04424,0.39816c0.02949,0.02949 0.16221,0.04424 0.39816,0.04424h2.39635v1.64426zM1044.44145,252.17881v-7.29227h1.64426v7.29227zM1044.44145,244.15658v-1.66638h1.64426v1.66638zM1048.95197,252.17881c-0.47681,0 -0.88481,-0.16959 -1.22398,-0.50876c-0.33918,-0.33918 -0.50876,-0.74717 -0.50876,-1.22398v-3.82678c0,-0.47681 0.16959,-0.88481 0.50876,-1.22398c0.33918,-0.33918 0.74717,-0.50876 1.22398,-0.50876h3.93738c0.48173,0 0.89218,0.16959 1.23135,0.50876c0.33918,0.33918 0.50876,0.74717 0.50876,1.22398v3.82678c0,0.47681 -0.16959,0.88481 -0.50876,1.22398c-0.33918,0.33918 -0.74963,0.50876 -1.23135,0.50876zM1049.3059,250.53454h3.23691c0.23103,0 0.3613,-0.01475 0.39079,-0.04424c0.02949,-0.02949 0.04424,-0.16221 0.04424,-0.39816v-3.11894c0,-0.23595 -0.01475,-0.36867 -0.04424,-0.39816c-0.02949,-0.02949 -0.15976,-0.04424 -0.39079,-0.04424h-3.23691c-0.23595,0 -0.36867,0.01475 -0.39816,0.04424c-0.02949,0.02949 -0.04424,0.16221 -0.04424,0.39816v3.11894c0,0.23595 0.01475,0.36867 0.04424,0.39816c0.02949,0.02949 0.16221,0.04424 0.39816,0.04424zM1055.64612,252.17881v-7.29227h5.6775c0.47681,0 0.88481,0.16959 1.22398,0.50876c0.33918,0.33918 0.50876,0.74717 0.50876,1.22398v5.55953h-1.65164v-5.2056c0,-0.23595 -0.01475,-0.36867 -0.04424,-0.39816c-0.02458,-0.02949 -0.15484,-0.04424 -0.39079,-0.04424h-3.23691c-0.23103,0 -0.3613,0.01475 -0.39079,0.04424c-0.02949,0.02949 -0.04424,0.16221 -0.04424,0.39816v5.2056zM1064.45268,249.635v-6.51069h1.64426v6.51069zM1064.45268,252.17881v-1.64426h1.64426v1.64426z"/></g></g></g></svg>