<svg version="1.1" xmlns="http://www.w3.org/2000/svg" xmlns:xlink="http://www.w3.org/1999/xlink" width="297.64949" height="111.08661" viewBox="0,0,297.64949,111.08661"><g transform="translate(-683.90552,-405)"><g data-paper-data="{&quot;isPaintingLayer&quot;:true}" stroke="none" stroke-width="1" stroke-linejoin="miter" stroke-miterlimit="10" stroke-dasharray="" stroke-dashoffset="0" style="mix-blend-mode: normal"><path d="M813.01247,474.23003v-39.07812h4.39733v17.31274h31.19613v-17.31274h4.45264v39.07812h-4.45264v-17.31274h-31.19613v17.31274zM865.41164,474.23003c-1.80687,0 -3.35561,-0.63609 -4.64623,-1.90827c-1.27218,-1.29062 -1.90827,-2.83936 -1.90827,-4.64623v-18.36368c0,-1.80687 0.63609,-3.34639 1.90827,-4.61858c1.29062,-1.29062 2.83936,-1.93593 4.64623,-1.93593h18.88914c1.84374,0 3.41093,0.64531 4.70154,1.93593c1.29062,1.27218 1.93593,2.8117 1.93593,4.61858v18.36368c0,1.80687 -0.64531,3.35561 -1.93593,4.64623c-1.29062,1.27218 -2.8578,1.90827 -4.70154,1.90827zM865.41164,469.77739h18.88914c0.59,0 1.08781,-0.20281 1.49343,-0.60844c0.42406,-0.42406 0.63609,-0.92187 0.63609,-1.49343v-18.36368c0,-0.57156 -0.21203,-1.06015 -0.63609,-1.46578c-0.40562,-0.42406 -0.90343,-0.63609 -1.49343,-0.63609h-18.88914c-0.57156,0 -1.06937,0.21203 -1.49343,0.63609c-0.40562,0.40562 -0.60844,0.89422 -0.60844,1.46578v18.36368c0,0.57156 0.20281,1.06937 0.60844,1.49343c0.42406,0.40562 0.92187,0.60844 1.49343,0.60844zM896.57204,474.23003v-31.47269h41.5672c1.84374,0 3.39248,0.64531 4.64623,1.93593c1.27218,1.27218 1.90827,2.8117 1.90827,4.61858v24.91818h-4.39733v-24.91818c0,-0.57156 -0.22125,-1.06015 -0.66375,-1.46578c-0.42406,-0.42406 -0.92187,-0.63609 -1.49343,-0.63609h-13.08135c-0.57156,0 -1.06937,0.21203 -1.49343,0.63609c-0.42406,0.40562 -0.63609,0.89422 -0.63609,1.46578v24.91818h-4.48029v-24.91818c0,-0.57156 -0.21203,-1.06015 -0.63609,-1.46578c-0.40562,-0.42406 -0.90343,-0.63609 -1.49343,-0.63609h-13.13669c-0.57156,0 -1.06937,0.21203 -1.49343,0.63609c-0.40562,0.40562 -0.60844,0.89422 -0.60844,1.46578v24.91818zM956.02839,474.23003c-1.80687,0 -3.35561,-0.63609 -4.64623,-1.90827c-1.27218,-1.29062 -1.90827,-2.83936 -1.90827,-4.64623v-18.36368c0,-1.80687 0.63609,-3.34639 1.90827,-4.61858c1.29062,-1.29062 2.83936,-1.93593 4.64623,-1.93593h18.88914c1.84374,0 3.41093,0.64531 4.70154,1.93593c1.29062,1.27218 1.93593,2.8117 1.93593,4.61858v11.39433h-27.62848v6.96935c0,0.57156 0.20281,1.06937 0.60844,1.49343c0.42406,0.40562 0.92187,0.60844 1.49343,0.60844h25.52662v4.45264zM953.92653,456.2812h23.12053v-6.96935c0,-0.57156 -0.21203,-1.06015 -0.63609,-1.46578c-0.40562,-0.42406 -0.90343,-0.63609 -1.49343,-0.63609h-18.88914c-0.57156,0 -1.06937,0.21203 -1.49343,0.63609c-0.40562,0.40562 -0.60844,0.89422 -0.60844,1.46578z" fill="#ffffff" fill-rule="nonzero" stroke-linecap="square"/><path d="M683.90552,423.5148c0,-10.22543 8.28935,-18.5148 18.5148,-18.5148h74.05701c4.91043,0 9.61975,1.95067 13.09195,5.42287c3.4722,3.4722 5.42285,8.1815 5.42285,13.09193v74.05701c0,10.22543 -8.28937,18.5148 -18.5148,18.5148h-74.05701c-10.22545,0 -18.5148,-8.28937 -18.5148,-18.5148z" fill="#331b00" fill-rule="evenodd" stroke-linecap="square"/><g fill="#ffffff" fill-rule="nonzero" stroke-linecap="butt"><path d="M769.66403,464.87156c0.03481,0.07669 0.05449,0.19469 0.05449,0.35094v28.17438c0,1.01747 -0.34342,1.89966 -1.0278,2.64123c-0.68324,0.74444 -1.49458,1.11739 -2.4308,1.11739h-20.74305v-22.54099h-13.83078v22.54016h-20.74324c-0.93641,0 -1.74661,-0.37376 -2.4308,-1.11656c-0.68438,-0.74239 -1.02666,-1.62396 -1.02666,-2.64123v-28.17438c0,-0.0403 0.00946,-0.09704 0.02725,-0.17516c0.01816,-0.07874 0.02725,-0.13651 0.02725,-0.17578l31.0615,-27.82364z"/><path d="M782.14157,459.79264c0.03746,0.52857 -0.08874,0.98889 -0.37672,1.38075l-3.34961,4.34311c-0.29006,0.35115 -0.66697,0.56784 -1.13451,0.64514h-0.16234c-0.4683,0 -0.84577,-0.13631 -1.13451,-0.40933l-37.38248,-33.86925l-37.3821,33.86945c-0.43235,0.31291 -0.8647,0.45024 -1.29704,0.41077c-0.4683,-0.07874 -0.84596,-0.29399 -1.13451,-0.64597l-3.34923,-4.34372c-0.28855,-0.39103 -0.41437,-0.85217 -0.37786,-1.38013c0.03671,-0.52837 0.23405,-0.94901 0.59412,-1.26151l38.84225,-35.16036c1.1523,-1.01747 2.52086,-1.5261 4.10551,-1.5261c1.58483,0 2.95359,0.50863 4.10475,1.5261l13.18084,11.97464v-11.44586c0,-0.54728 0.16178,-0.99773 0.48552,-1.35012c0.3245,-0.35197 0.73868,-0.52796 1.24312,-0.52796h10.37181c0.50501,0 0.91938,0.17599 1.24179,0.52796c0.32507,0.35238 0.48703,0.80263 0.48703,1.35012v23.94867l11.82987,10.68291c0.35931,0.31311 0.55742,0.73375 0.59431,1.26068z"/></g></g></g></svg>