<svg version="1.1" xmlns="http://www.w3.org/2000/svg" xmlns:xlink="http://www.w3.org/1999/xlink" width="111.09082" height="56.68663" viewBox="0,0,111.09082,56.68663"><g transform="translate(-904.45459,-511.65668)"><g data-paper-data="{&quot;isPaintingLayer&quot;:true}" stroke="none" stroke-width="1" stroke-linecap="square" stroke-linejoin="miter" stroke-miterlimit="10" stroke-dasharray="" stroke-dashoffset="0" style="mix-blend-mode: normal"><path d="M904.45459,521.17131c0,-5.25477 0.28935,-9.51463 10.5148,-9.51463c0,0 79.96686,0.83424 91.18616,0.95128c1.1643,0.01215 5.03416,0.48302 6.93436,2.09902c2.24395,1.90833 2.45129,5.09796 2.45129,6.46434v38.05736c0,5.25477 0.51063,9.11463 -9.7148,9.11463l-90.25701,-0.4c-10.22545,0 -11.1148,-3.45985 -11.1148,-8.71462z" fill="#ffffff" fill-rule="evenodd"/><path d="M913.33593,548.33513v-14.00587h2.54341v14.00587zM917.57969,548.33513v-14.00587h2.81714l8.5997,10.23067v-10.23067h2.58903v14.00587h-2.82855l-8.6111,-10.25348v10.25348zM936.41448,548.33513c-0.74515,0 -1.38386,-0.26613 -1.91612,-0.79838c-0.53225,-0.53225 -0.79838,-1.16716 -0.79838,-1.90471v-1.07211h2.57763v0.50184c0,0.36497 0.02281,0.57027 0.06844,0.6159c0.04562,0.04562 0.24712,0.06844 0.60449,0.06844h7.49337c0.36497,0 0.57027,-0.02281 0.6159,-0.06844c0.04562,-0.04562 0.06844,-0.25092 0.06844,-0.6159v-1.76785c0,-0.36497 -0.02281,-0.56647 -0.06844,-0.60449c-0.04562,-0.03802 -0.25092,-0.05703 -0.6159,-0.05703h-8.02942c-0.74515,0 -1.38386,-0.26613 -1.91612,-0.79838c-0.53225,-0.53986 -0.79838,-1.18237 -0.79838,-1.92752v-2.87417c0,-0.73755 0.26613,-1.37246 0.79838,-1.90471c0.53225,-0.53225 1.17096,-0.79838 1.91612,-0.79838h8.5997c0.73755,0 1.37246,0.26613 1.90471,0.79838c0.53225,0.53225 0.79838,1.16716 0.79838,1.90471v1.07211h-2.58903v-0.51324c0,-0.35737 -0.02281,-0.55887 -0.06844,-0.60449c-0.04562,-0.04562 -0.25092,-0.06844 -0.6159,-0.06844h-7.49337c-0.35737,0 -0.55887,0.02281 -0.60449,0.06844c-0.04562,0.04562 -0.06844,0.24712 -0.06844,0.60449v1.77925c0,0.35737 0.02281,0.55887 0.06844,0.60449c0.04562,0.03802 0.24712,0.05703 0.60449,0.05703h8.06364c0.73755,0 1.37246,0.26992 1.90471,0.80979c0.53225,0.53225 0.79838,1.16716 0.79838,1.90471v2.88558c0,0.73755 -0.26613,1.37246 -0.79838,1.90471c-0.53225,0.53225 -1.16716,0.79838 -1.90471,0.79838zM954.85878,548.33513v-11.41684h-5.72552v-2.58903h14.00587v2.58903h-5.69132v11.41684zM964.64293,548.33513v-11.30279c0,-0.73755 0.26613,-1.37246 0.79838,-1.90471c0.53225,-0.53225 1.16716,-0.79838 1.90471,-0.79838h8.57688c0.75276,0 1.39527,0.26613 1.92752,0.79838c0.53225,0.53225 0.79838,1.16716 0.79838,1.90471v11.30279h-2.58903v-4.71045h-8.85062v4.71045zM967.20915,541.05846h8.85062v-3.46725c0,-0.35737 -0.02661,-0.55887 -0.07984,-0.60449c-0.04562,-0.04562 -0.24332,-0.06844 -0.59308,-0.06844h-7.49337c-0.36497,0 -0.57027,0.02281 -0.6159,0.06844c-0.04562,0.04562 -0.06844,0.24712 -0.06844,0.60449zM980.88667,548.33513v-14.02868h2.56622v11.43965h11.45106v2.58903zM996.04413,548.33513v-14.02868h2.56622v11.43965h11.45107v2.58903z" fill="#ff9400" fill-rule="nonzero"/></g></g></svg>