<svg version="1.1" xmlns="http://www.w3.org/2000/svg" xmlns:xlink="http://www.w3.org/1999/xlink" width="111.08661" height="111.08661" viewBox="0,0,111.08661,111.08661"><g transform="translate(-904.45669,-484.4567)"><g data-paper-data="{&quot;isPaintingLayer&quot;:true}" stroke="none" stroke-width="1" stroke-linejoin="miter" stroke-miterlimit="10" stroke-dasharray="" stroke-dashoffset="0" style="mix-blend-mode: normal"><path d="M904.4567,502.97151c0,-10.22543 8.28935,-18.5148 18.5148,-18.5148h74.05701c4.91043,0 9.61975,1.95067 13.09195,5.42287c3.4722,3.4722 5.42285,8.1815 5.42285,13.09193v74.05701c0,10.22543 -8.28937,18.5148 -18.5148,18.5148h-74.05701c-10.22545,0 -18.5148,-8.28937 -18.5148,-18.5148z" fill="#de9240" fill-rule="evenodd" stroke-linecap="square"/><path d="M988.93118,536.837l14.32445,-14.3242l3.16278,3.16278l-14.3242,14.32445l14.3242,14.32445l-3.16278,3.16278l-14.32445,-14.3242l-14.32445,14.3242l-3.16278,-3.16278l14.3242,-14.32445l-14.3242,-14.32445l3.16278,-3.16278z" fill="#ffffff" fill-rule="nonzero" stroke-linecap="butt"/><path d="M965.03277,581.29435l-24.7766,-24.7766h-24.7766v-33.03547h24.7766l24.7766,-24.7766z" fill="#ffffff" fill-rule="nonzero" stroke-linecap="butt"/></g></g></svg>