<svg version="1.1" xmlns="http://www.w3.org/2000/svg" xmlns:xlink="http://www.w3.org/1999/xlink" width="88.96883" height="22.07813" viewBox="0,0,88.96883,22.07813"><g transform="translate(-659.98122,-446.46685)"><g data-paper-data="{&quot;isPaintingLayer&quot;:true}" fill="#ffffff" fill-rule="nonzero" stroke="none" stroke-width="1" stroke-linecap="square" stroke-linejoin="miter" stroke-miterlimit="10" stroke-dasharray="" stroke-dashoffset="0" style="mix-blend-mode: normal"><path d="M659.98122,468.54498v-22.07812h4.4375l8,9.54688l7.98438,-9.54687h4.46875v22.07813h-4.07812v-16.1875l-8.375,9.96875l-8.39062,-9.9375v16.15625zM692.50843,468.54498c-1.16667,0 -2.16667,-0.41146 -3,-1.23437c-0.82292,-0.83333 -1.23437,-1.83333 -1.23437,-3v-9.3125c0,-1.16667 0.41146,-2.16146 1.23438,-2.98437c0.83333,-0.83333 1.83333,-1.25 3,-1.25h9.59375c1.16667,0 2.16146,0.41667 2.98438,1.25c0.83333,0.82292 1.25,1.81771 1.25,2.98438v6.6875h-14.04687v1.76563c0,0.57292 0.03646,0.89583 0.10938,0.96875c0.07292,0.07292 0.39583,0.10938 0.96875,0.10938h12.96875v4.01563zM692.28968,458.06061h10.03125v-2.20312c0,-0.57292 -0.03646,-0.89583 -0.10937,-0.96875c-0.07292,-0.07292 -0.39583,-0.10937 -0.96875,-0.10937h-7.875c-0.57292,0 -0.89583,0.03646 -0.96875,0.10938c-0.07292,0.07292 -0.10937,0.39583 -0.10937,0.96875zM709.58199,468.54498v-17.78125h13.82813c1.16667,0 2.16146,0.41667 2.98438,1.25c0.83333,0.82292 1.25,1.81771 1.25,2.98438v13.54688h-4.01562v-12.6875c0,-0.57292 -0.03646,-0.89583 -0.10937,-0.96875c-0.07292,-0.07292 -0.39583,-0.10937 -0.96875,-0.10937h-7.875c-0.57292,0 -0.89583,0.03646 -0.96875,0.10938c-0.07292,0.07292 -0.10937,0.39583 -0.10937,0.96875v12.6875zM735.12192,468.54498c-1.16667,0 -2.16667,-0.41146 -3,-1.23437c-0.82292,-0.83333 -1.23437,-1.83333 -1.23437,-3v-13.54687h4.01563v12.6875c0,0.57292 0.03646,0.89583 0.10938,0.96875c0.07292,0.07292 0.39583,0.10938 0.96875,0.10938h7.875c0.57292,0 0.89583,-0.03646 0.96875,-0.10937c0.07292,-0.07292 0.10938,-0.39583 0.10938,-0.96875v-12.6875h4.01563v13.54688c0,1.16667 -0.41667,2.16667 -1.25,3c-0.82292,0.82292 -1.81771,1.23438 -2.98437,1.23438z"/></g></g></svg>