<svg version="1.1" xmlns="http://www.w3.org/2000/svg" xmlns:xlink="http://www.w3.org/1999/xlink" width="215.25347" height="111.08661" viewBox="0,0,215.25347,111.08661"><g transform="translate(-683.90552,-405)"><g data-paper-data="{&quot;isPaintingLayer&quot;:true}" stroke-linejoin="miter" stroke-miterlimit="10" stroke-dasharray="" stroke-dashoffset="0" style="mix-blend-mode: normal"><path d="M683.90552,423.5148c0,-10.22543 8.28935,-18.5148 18.5148,-18.5148h74.05701c4.91043,0 9.61975,1.95067 13.09195,5.42287c3.4722,3.4722 5.42285,8.1815 5.42285,13.09193v74.05701c0,10.22543 -8.28937,18.5148 -18.5148,18.5148h-74.05701c-10.22545,0 -18.5148,-8.28937 -18.5148,-18.5148z" fill="#de9240" fill-rule="evenodd" stroke="none" stroke-width="1" stroke-linecap="square"/><path d="M716.81332,433.23568v58.14061h-26.23084v-58.14061zM711.95739,484.20711c0,-1.27873 -1.03662,-2.31535 -2.31535,-2.31535c-1.27873,0 -2.31535,1.03661 -2.31535,2.31535c0,1.27873 1.03662,2.31535 2.31535,2.31535c1.27873,0 2.31535,-1.03662 2.31535,-2.31535zM713.4287,446.70682v-3.36778h-19.49738v3.36778h19.49948zM713.4287,439.97126v-3.36779h-19.49738v3.36779h19.49948zM745.63946,479.65008v8.35842h-8.78571v3.36778h32.95379v-3.36778h-8.78571v-8.35842h-15.38657zM720.79572,433.23568h65.07404v43.04661h-65.07193v-43.04661zM782.50198,436.60347h-58.33847v36.31104h58.33847z" fill="#ffffff" fill-rule="nonzero" stroke="none" stroke-width="1" stroke-linecap="butt"/><path d="M812.98122,482.08v-40.47118h33.75947c1.87392,0 3.47061,0.66926 4.79001,2.00779c1.3194,1.33853 1.97911,2.92562 1.97911,4.76131v11.87461c0,1.83569 -0.6597,3.42278 -1.9791,4.76131c-1.3194,1.3194 -2.91607,1.97912 -4.78999,1.97912h-29.19892v15.08706zM819.72165,462.37504h27.01904c0.59278,0 1.10906,-0.20077 1.54886,-0.60233c0.4398,-0.42068 0.65971,-0.92741 0.65971,-1.52017v-11.87461c0,-0.61189 -0.21989,-1.12818 -0.65969,-1.54886c-0.4398,-0.4398 -0.95609,-0.65969 -1.54886,-0.65969h-27.01904c-0.59278,0 -1.10906,0.2199 -1.54886,0.65971c-0.42069,0.42068 -0.63102,0.93697 -0.63102,1.54886v11.87461c0,0.59278 0.21033,1.09951 0.63102,1.52019c0.4398,0.40155 0.95608,0.60235 1.54886,0.60235zM864.23556,482.08c-1.87392,0 -3.47059,-0.65015 -4.78999,-1.95042c-1.30028,-1.3194 -1.95042,-2.91607 -1.95042,-4.78999v-27.01904c0,-1.87392 0.65014,-3.47059 1.95042,-4.78999c1.3194,-1.3194 2.91606,-1.97909 4.79001,-1.97909h33.67341v4.56055h-33.67341c-0.59278,0 -1.10907,0.2199 -1.54886,0.65971c-0.42069,0.42068 -0.63102,0.93697 -0.63102,1.54886v27.01904c0,0.59278 0.21033,1.10907 0.63102,1.54886c0.4398,0.42068 0.95608,0.63101 1.54886,0.63101h33.67341v4.56055z" fill="#ffffff" fill-rule="nonzero" stroke="#ffffff" stroke-width="2.5" stroke-linecap="square"/></g></g></svg>