<svg version="1.1" xmlns="http://www.w3.org/2000/svg" xmlns:xlink="http://www.w3.org/1999/xlink" width="111.08661" height="111.08661" viewBox="0,0,111.08661,111.08661"><g transform="translate(-683.90552,-405)"><g data-paper-data="{&quot;isPaintingLayer&quot;:true}" stroke="none" stroke-width="1" stroke-linejoin="miter" stroke-miterlimit="10" stroke-dasharray="" stroke-dashoffset="0" style="mix-blend-mode: normal"><path d="M683.90552,423.5148c0,-10.22543 8.28935,-18.5148 18.5148,-18.5148h74.05701c4.91043,0 9.61975,1.95067 13.09195,5.42287c3.4722,3.4722 5.42285,8.1815 5.42285,13.09193v74.05701c0,10.22543 -8.28937,18.5148 -18.5148,18.5148h-74.05701c-10.22545,0 -18.5148,-8.28937 -18.5148,-18.5148z" fill="#de9240" fill-rule="evenodd" stroke-linecap="square"/><path d="M740.62293,501.8018l-23.85876,-23.85876h-23.85876v-31.81168h23.85876l23.85876,-23.85876zM767.58829,458.87418l14.32445,-14.3242l3.16278,3.16278l-14.3242,14.32445l14.3242,14.32445l-3.16278,3.16278l-14.32445,-14.3242l-14.32445,14.3242l-3.16278,-3.16278l14.3242,-14.32445l-14.3242,-14.32445l3.16278,-3.16278z" fill="#ffffff" fill-rule="nonzero" stroke-linecap="butt"/></g></g></svg>