<svg version="1.1" xmlns="http://www.w3.org/2000/svg" xmlns:xlink="http://www.w3.org/1999/xlink" width="311.46595" height="111.08661" viewBox="0,0,311.46595,111.08661"><g transform="translate(-683.90552,-405)"><g data-paper-data="{&quot;isPaintingLayer&quot;:true}" stroke="none" stroke-width="1" stroke-linejoin="miter" stroke-miterlimit="10" stroke-dasharray="" stroke-dashoffset="0" style="mix-blend-mode: normal"><path d="M683.90552,423.5148c0,-10.22543 8.28935,-18.5148 18.5148,-18.5148h74.05701c4.91043,0 9.61975,1.95067 13.09195,5.42287c3.4722,3.4722 5.42285,8.1815 5.42285,13.09193v74.05701c0,10.22543 -8.28937,18.5148 -18.5148,18.5148h-74.05701c-10.22545,0 -18.5148,-8.28937 -18.5148,-18.5148z" fill="#331b00" fill-rule="evenodd" stroke-linecap="square"/><path d="M761.96413,418.30263c0,0 -0.19589,70.56462 -0.22516,81.10771c-0.00709,2.55364 -1.5111,4.75823 -1.5111,4.75823c0,0 -37.29967,0.05967 -43.32264,0.06894c-1.52055,0.00234 -2.85663,-2.61691 -2.85663,-2.61691l-0.1361,-83.24463c0,0 1.64777,-2.62384 3.44192,-2.62659c5.10115,-0.00785 29.93491,-0.04604 39.99295,-0.06152c2.62395,-0.00404 4.61676,2.61478 4.61676,2.61478zM732.10497,421.22036c0.00133,0.86688 0.70517,1.56854 1.57203,1.56721l8.16202,-0.01254c0.86688,-0.00133 1.56853,-0.70517 1.56721,-1.57203c-0.00133,-0.86688 -0.70517,-1.56854 -1.57203,-1.56721l-8.16202,0.01254c-0.86688,0.00133 -1.56854,0.70517 -1.56721,1.57203zM741.55897,498.36256c-0.00322,-2.087 -1.69768,-3.77626 -3.78468,-3.77304c-2.087,0.00322 -3.77626,1.69768 -3.77304,3.78468c0.00322,2.087 1.69768,3.77626 3.78468,3.77304c2.087,-0.00322 3.77626,-1.69768 3.77304,-3.78468zM758.27021,426.08517l-41.39869,0.06368l0.10351,67.29739l41.39869,-0.06368z" fill="#ffffff" fill-rule="nonzero" stroke-linecap="butt"/><path d="M808.98122,479.36332v-39.85438h6.1488l16.52843,19.71566l16.55664,-19.71565h6.1488v39.8544h-4.48467v-34.74919l-18.22076,21.63364l-18.19255,-21.63362v34.74919zM866.73882,479.36332c-1.84275,0 -3.42226,-0.64872 -4.73853,-1.94617c-1.29746,-1.31626 -1.94617,-2.89577 -1.94617,-4.73853v-18.72846c0,-1.84275 0.64873,-3.41286 1.94619,-4.71031c1.31626,-1.31626 2.89578,-1.97439 4.73853,-1.97439h19.26437c1.88037,0 3.47867,0.65812 4.79493,1.97439c1.31626,1.29746 1.97439,2.86756 1.97439,4.71033v18.72846c0,1.84275 -0.65812,3.42226 -1.97439,4.73853c-1.31626,1.29746 -2.91456,1.94619 -4.79493,1.94619zM866.73882,474.82224h19.26437c0.60171,0 1.10941,-0.20683 1.5231,-0.62052c0.43248,-0.43248 0.64874,-0.94018 0.64874,-1.5231v-18.72846c0,-0.58292 -0.21624,-1.08122 -0.64872,-1.49489c-0.41369,-0.43248 -0.92138,-0.64871 -1.5231,-0.64871h-19.26436c-0.58292,0 -1.09061,0.21624 -1.5231,0.64873c-0.41369,0.41369 -0.62052,0.91198 -0.62052,1.4949v18.72846c0,0.58292 0.20684,1.09061 0.62052,1.5231c0.43248,0.41369 0.94018,0.62052 1.5231,0.62052zM898.51819,479.36332v-42.61852h4.54111v10.52066h21.4644c1.84275,0 3.41288,0.65812 4.71033,1.97439c1.31626,1.29746 1.97439,2.86756 1.97439,4.71033v18.72846c0,1.84275 -0.65812,3.42226 -1.97439,4.73853c-1.29746,1.29746 -2.86756,1.94619 -4.71031,1.94619h-26.0055zM905.25933,474.82224h19.26437c0.58292,0 1.09062,-0.20683 1.5231,-0.62052c0.43248,-0.43248 0.64874,-0.94018 0.64874,-1.5231v-18.72846c0,-0.58292 -0.21624,-1.08122 -0.64872,-1.49489c-0.43248,-0.43248 -0.94018,-0.64871 -1.5231,-0.64871h-19.26435c-0.58292,0 -1.10001,0.21624 -1.55129,0.64873c-0.43248,0.41369 -0.64872,0.91198 -0.64872,1.4949v18.72846c0,0.58292 0.21624,1.09061 0.64874,1.5231c0.45129,0.41369 0.96839,0.62052 1.55131,0.62052zM935.31677,479.36332v-32.09787h4.5411v32.09787zM935.31677,441.28588v-4.54108h4.5411v4.5411zM953.51207,479.36332c-1.84275,0 -3.42226,-0.64872 -4.73853,-1.94617c-1.29746,-1.31626 -1.94617,-2.89577 -1.94617,-4.73853v-35.93382h4.5411v35.93382c0,0.58292 0.20683,1.09062 0.62052,1.5231c0.43248,0.41369 0.94018,0.62052 1.5231,0.62052h5.44367v4.5411zM969.33774,479.36332c-1.84275,0 -3.42226,-0.64872 -4.73853,-1.94617c-1.29746,-1.31626 -1.94617,-2.89577 -1.94617,-4.73853v-18.72846c0,-1.84275 0.64873,-3.41286 1.94619,-4.71031c1.31626,-1.31626 2.89577,-1.97439 4.73853,-1.97439h19.26437c1.88037,0 3.47868,0.65812 4.79494,1.97439c1.31626,1.29746 1.97438,2.86756 1.97438,4.71033v11.62067h-28.17729v7.10779c0,0.58292 0.20683,1.09062 0.62052,1.5231c0.43248,0.41369 0.94018,0.62052 1.5231,0.62052h26.0337v4.5411zM967.19412,461.05795h23.57981v-7.10779c0,-0.58292 -0.21624,-1.08122 -0.64872,-1.49489c-0.41369,-0.43248 -0.92139,-0.64871 -1.5231,-0.64871h-19.26435c-0.58292,0 -1.09061,0.21624 -1.5231,0.64873c-0.41369,0.41369 -0.62052,0.91198 -0.62052,1.4949z" fill="#ffffff" fill-rule="nonzero" stroke-linecap="square"/></g></g></svg>