<svg version="1.1" xmlns="http://www.w3.org/2000/svg" xmlns:xlink="http://www.w3.org/1999/xlink" width="111.08661" height="111.08661" viewBox="0,0,111.08661,111.08661"><g transform="translate(-683.90552,-405)"><g data-paper-data="{&quot;isPaintingLayer&quot;:true}" stroke="none" stroke-width="1" stroke-linejoin="miter" stroke-miterlimit="10" stroke-dasharray="" stroke-dashoffset="0" style="mix-blend-mode: normal"><path d="M683.90552,423.5148c0,-10.22543 8.28935,-18.5148 18.5148,-18.5148h74.05701c4.91043,0 9.61975,1.95067 13.09195,5.42287c3.4722,3.4722 5.42285,8.1815 5.42285,13.09193v74.05701c0,10.22543 -8.28937,18.5148 -18.5148,18.5148h-74.05701c-10.22545,0 -18.5148,-8.28937 -18.5148,-18.5148z" fill="#de9240" fill-rule="evenodd" stroke-linecap="square"/><path d="M779.766,461.50015c0,22.79001 -18.47418,41.26419 -41.266,41.26419c-22.79001,0 -41.266,-18.47418 -41.266,-41.26419c0,-22.79001 18.4778,-41.26419 41.266,-41.26419c22.79182,0 41.266,18.47418 41.266,41.26419zM724.85282,446.22343c0,7.53867 6.11033,13.64899 13.64718,13.64899c7.54048,0 13.65081,-6.11033 13.65081,-13.64899c0,-7.53685 -6.11033,-13.64899 -13.65081,-13.64899c-7.53685,0 -13.64718,6.11214 -13.64718,13.64899zM758.214,484.70163c1.29602,-1.10388 2.03919,-2.71892 2.03919,-4.41916c0,-7.6438 -6.16289,-13.76138 -13.81032,-13.76138h-15.88214c-7.64561,0 -13.83207,6.11758 -13.83207,13.76138c0,1.69842 0.7468,3.31709 2.041,4.42097c5.31278,4.53335 12.20071,7.27221 19.72125,7.27221c7.52235,0 14.4121,-2.73886 19.72307,-7.27403z" fill="#ffffff" fill-rule="nonzero" stroke-linecap="butt"/></g></g></svg>