<svg version="1.1" xmlns="http://www.w3.org/2000/svg" xmlns:xlink="http://www.w3.org/1999/xlink" width="1580.2181" height="342.52754" viewBox="0,0,1580.2181,342.52754"><defs><linearGradient x1="255.47653" y1="540.00001" x2="1835.69463" y2="540.00001" gradientUnits="userSpaceOnUse" id="color-1"><stop offset="0" stop-color="#de9240"/><stop offset="1" stop-color="#ce8711"/></linearGradient></defs><g transform="translate(-255.47653,-368.73634)"><g data-paper-data="{&quot;isPaintingLayer&quot;:true}" stroke-linecap="square" stroke-linejoin="miter" stroke-miterlimit="10" stroke-dasharray="" stroke-dashoffset="0" style="mix-blend-mode: normal"><path d="M255.47653,401.39976c0,-18.0395 14.56854,-32.66341 32.53975,-32.66341h1515.1386c8.63001,0 16.9067,3.44131 23.00909,9.5669c6.10229,6.12557 9.53066,14.43365 9.53066,23.09652v277.20069c0,18.03951 -14.56854,32.66343 -32.53975,32.66343h-1515.1386c-17.97121,0 -32.53975,-14.62392 -32.53975,-32.66343z" fill="url(#color-1)" fill-rule="evenodd" stroke="none" stroke-width="1"/><path d="M301.19489,449.44054v-27.05382h4.98794v11.01092h6.3533l9.24917,-11.01092h5.40636v1.42041l-10.14105,12.101l10.1851,12.101v1.43142h-5.4504l-9.24917,-11.01092h-6.3533v11.01092zM336.10122,449.44054c-1.42408,0 -2.64629,-0.5065 -3.66663,-1.51951c-1.013,-1.013 -1.51951,-2.23522 -1.51951,-3.66663v-11.42933c0,-1.42408 0.5065,-2.64262 1.51951,-3.65562c1.02034,-1.02034 2.24256,-1.53052 3.66663,-1.53052h11.75966c1.43142,0 2.65363,0.51017 3.66663,1.53052c1.013,1.013 1.51951,2.23154 1.51951,3.65562v8.19212h-17.21006v2.18016c0,0.7047 0.04404,1.10109 0.13213,1.18918c0.08809,0.08809 0.48448,0.13213 1.18918,0.13213h15.88875v4.92188zM335.83695,436.5908h12.28818v-2.70869c0,-0.7047 -0.04404,-1.09742 -0.13213,-1.17817c-0.08809,-0.08809 -0.48081,-0.13213 -1.17817,-0.13213h-9.65657c-0.7047,0 -1.10109,0.04404 -1.18918,0.13213c-0.08809,0.08075 -0.13213,0.47347 -0.13213,1.17817zM361.27986,449.44054c-1.42408,0 -2.64629,-0.5065 -3.66663,-1.51951c-1.013,-1.013 -1.51951,-2.23522 -1.51951,-3.66663v-11.42933c0,-1.42408 0.5065,-2.64262 1.51951,-3.65562c1.02034,-1.02034 2.24256,-1.53052 3.66663,-1.53052h11.75966c1.43142,0 2.65363,0.51017 3.66663,1.53052c1.013,1.013 1.51951,2.23154 1.51951,3.65562v8.19212h-17.21006v2.18016c0,0.7047 0.04404,1.10109 0.13213,1.18918c0.08809,0.08809 0.48448,0.13213 1.18918,0.13213h15.88875v4.92188zM361.01559,436.5908h12.28818v-2.70869c0,-0.7047 -0.04404,-1.09742 -0.13213,-1.17817c-0.08809,-0.08809 -0.48081,-0.13213 -1.17817,-0.13213h-9.65657c-0.7047,0 -1.10109,0.04404 -1.18918,0.13213c-0.08809,0.08075 -0.13213,0.47347 -0.13213,1.17817zM382.20931,458.08408v-30.44518h16.95681c1.42408,0 2.64262,0.51017 3.65562,1.53052c1.02034,1.013 1.53052,2.23154 1.53052,3.65562v11.42933c0,1.43142 -0.51017,2.65363 -1.53052,3.66663c-1.013,1.013 -2.23154,1.51951 -3.65562,1.51951h-12.03493v8.64357zM388.4525,444.51863h9.65657c0.7047,0 1.09742,-0.04404 1.17817,-0.13213c0.08809,-0.08809 0.13213,-0.48448 0.13213,-1.18918v-9.31523c0,-0.7047 -0.04404,-1.09742 -0.13213,-1.17817c-0.08075,-0.08809 -0.47347,-0.13213 -1.17817,-0.13213h-9.65657c-0.7047,0 -1.10109,0.04404 -1.18918,0.13213c-0.08809,0.08075 -0.13213,0.47347 -0.13213,1.17817v9.31523c0,0.7047 0.04404,1.10109 0.13213,1.18918c0.08809,0.08809 0.48448,0.13213 1.18918,0.13213zM423.81521,449.44054c-1.43142,0 -2.65363,-0.5065 -3.66663,-1.51951c-1.013,-1.013 -1.51951,-2.23522 -1.51951,-3.66663v-16.61547h4.92188v15.55842c0,0.7047 0.04404,1.10109 0.13213,1.18918c0.08809,0.08809 0.48081,0.13213 1.17817,0.13213h9.66758c0.69736,0 1.09008,-0.04404 1.17817,-0.13213c0.08809,-0.08809 0.13213,-0.48448 0.13213,-1.18918v-15.55842h4.92188v16.61547c0,1.43142 -0.5065,2.65363 -1.51951,3.66663c-1.013,1.013 -2.23522,1.51951 -3.66663,1.51951zM443.9159,458.08408v-30.44518h16.95681c1.42408,0 2.64262,0.51017 3.65562,1.53052c1.02034,1.013 1.53052,2.23154 1.53052,3.65562v11.42933c0,1.43142 -0.51017,2.65363 -1.53052,3.66663c-1.013,1.013 -2.23154,1.51951 -3.65562,1.51951h-12.03493v8.64357zM450.15909,444.51863h9.65657c0.7047,0 1.09742,-0.04404 1.17817,-0.13213c0.08809,-0.08809 0.13213,-0.48448 0.13213,-1.18918v-9.31523c0,-0.7047 -0.04404,-1.09742 -0.13213,-1.17817c-0.08075,-0.08809 -0.47347,-0.13213 -1.17817,-0.13213h-9.65657c-0.7047,0 -1.10109,0.04404 -1.18918,0.13213c-0.08809,0.08075 -0.13213,0.47347 -0.13213,1.17817v9.31523c0,0.7047 0.04404,1.10109 0.13213,1.18918c0.08809,0.08809 0.48448,0.13213 1.18918,0.13213zM473.18881,449.44054c-1.42408,0 -2.64629,-0.5065 -3.66663,-1.51951c-1.013,-1.013 -1.51951,-2.23522 -1.51951,-3.66663v-11.42933c0,-1.42408 0.5065,-2.64262 1.51951,-3.65562c1.02034,-1.02034 2.24256,-1.53052 3.66663,-1.53052h12.06796v-7.13507h4.92188v28.93669zM474.27889,444.51863h9.66758c0.69736,0 1.09008,-0.04404 1.17817,-0.13213c0.08809,-0.08809 0.13213,-0.48448 0.13213,-1.18918v-9.31523c0,-0.7047 -0.04404,-1.09742 -0.13213,-1.17817c-0.08809,-0.08809 -0.48081,-0.13213 -1.17817,-0.13213h-9.66758c-0.69736,0 -1.09008,0.04404 -1.17817,0.13213c-0.08809,0.08075 -0.13213,0.47347 -0.13213,1.17817v9.31523c0,0.7047 0.04404,1.10109 0.13213,1.18918c0.08809,0.08809 0.48081,0.13213 1.17817,0.13213zM499.34487,449.44054c-1.42408,0 -2.64629,-0.5065 -3.66663,-1.51951c-1.013,-1.013 -1.51951,-2.23522 -1.51951,-3.66663v-8.19212h17.22107v-2.18016c0,-0.7047 -0.04404,-1.09742 -0.13213,-1.17817c-0.08809,-0.08809 -0.48448,-0.13213 -1.18918,-0.13213h-15.89976v-4.93289h16.95681c1.42408,0 2.64262,0.51017 3.65562,1.53052c1.02034,1.013 1.53052,2.23154 1.53052,3.65562v16.61547zM500.40192,444.51863h10.97788v-4.01898h-12.28818v2.69767c0,0.7047 0.04037,1.10109 0.12112,1.18918c0.08809,0.08809 0.48448,0.13213 1.18918,0.13213zM525.46956,449.44054c-1.43142,0 -2.65363,-0.5065 -3.66663,-1.51951c-1.013,-1.013 -1.51951,-2.23522 -1.51951,-3.66663v-23.2991h4.92188v6.68363h8.48942v4.93289h-8.48942v10.62553c0,0.7047 0.04404,1.10109 0.13213,1.18918c0.08809,0.08809 0.48081,0.13213 1.17817,0.13213h7.17912v4.92188zM541.8526,449.44054c-1.42408,0 -2.64629,-0.5065 -3.66663,-1.51951c-1.013,-1.013 -1.51951,-2.23522 -1.51951,-3.66663v-11.42933c0,-1.42408 0.5065,-2.64262 1.51951,-3.65562c1.02034,-1.02034 2.24256,-1.53052 3.66663,-1.53052h11.75966c1.43142,0 2.65363,0.51017 3.66663,1.53052c1.013,1.013 1.51951,2.23154 1.51951,3.65562v8.19212h-17.21006v2.18016c0,0.7047 0.04404,1.10109 0.13213,1.18918c0.08809,0.08809 0.48448,0.13213 1.18918,0.13213h15.88875v4.92188zM541.58833,436.5908h12.28818v-2.70869c0,-0.7047 -0.04404,-1.09742 -0.13213,-1.17817c-0.08809,-0.08809 -0.48081,-0.13213 -1.17817,-0.13213h-9.65657c-0.7047,0 -1.10109,0.04404 -1.18918,0.13213c-0.08809,0.08075 -0.13213,0.47347 -0.13213,1.17817zM566.80105,449.44054c-1.42408,0 -2.64629,-0.5065 -3.66663,-1.51951c-1.013,-1.013 -1.51951,-2.23522 -1.51951,-3.66663v-11.42933c0,-1.42408 0.5065,-2.64262 1.51951,-3.65562c1.02034,-1.02034 2.24256,-1.53052 3.66663,-1.53052h12.06796v-7.13507h4.92188v28.93669zM567.89113,444.51863h9.66758c0.69736,0 1.09008,-0.04404 1.17817,-0.13213c0.08809,-0.08809 0.13213,-0.48448 0.13213,-1.18918v-9.31523c0,-0.7047 -0.04404,-1.09742 -0.13213,-1.17817c-0.08809,-0.08809 -0.48081,-0.13213 -1.17817,-0.13213h-9.66758c-0.69736,0 -1.09008,0.04404 -1.17817,0.13213c-0.08809,0.08075 -0.13213,0.47347 -0.13213,1.17817v9.31523c0,0.7047 0.04404,1.10109 0.13213,1.18918c0.08809,0.08809 0.48081,0.13213 1.17817,0.13213zM604.42363,449.44054c-1.42408,0 -2.64629,-0.5065 -3.66663,-1.51951c-1.013,-1.013 -1.51951,-2.23522 -1.51951,-3.66663v-11.42933c0,-1.42408 0.5065,-2.64262 1.51951,-3.65562c1.02034,-1.02034 2.24256,-1.53052 3.66663,-1.53052h11.75966c1.43142,0 2.65363,0.51017 3.66663,1.53052c1.013,1.013 1.51951,2.23154 1.51951,3.65562v11.42933c0,1.43142 -0.5065,2.65363 -1.51951,3.66663c-1.013,1.013 -2.23522,1.51951 -3.66663,1.51951zM605.48067,444.51863h9.65657c0.69736,0 1.09008,-0.04404 1.17817,-0.13213c0.08809,-0.08809 0.13213,-0.48448 0.13213,-1.18918v-9.31523c0,-0.7047 -0.04404,-1.09742 -0.13213,-1.17817c-0.08809,-0.08809 -0.48081,-0.13213 -1.17817,-0.13213h-9.65657c-0.7047,0 -1.10109,0.04404 -1.18918,0.13213c-0.08809,0.08075 -0.13213,0.47347 -0.13213,1.17817v9.31523c0,0.7047 0.04404,1.10109 0.13213,1.18918c0.08809,0.08809 0.48448,0.13213 1.18918,0.13213zM624.41349,449.44054v-21.80161h16.95681c1.42408,0 2.64262,0.51017 3.65562,1.53052c1.02034,1.013 1.53052,2.23154 1.53052,3.65562v16.61547h-4.93289v-15.55842c0,-0.7047 -0.04404,-1.09742 -0.13213,-1.17817c-0.08075,-0.08809 -0.47347,-0.13213 -1.17817,-0.13213h-9.65657c-0.7047,0 -1.10109,0.04404 -1.18918,0.13213c-0.08809,0.08075 -0.13213,0.47347 -0.13213,1.17817v15.55842z" fill="#ffffff" fill-rule="nonzero" stroke="none" stroke-width="1"/><path d="M308.93557,494.54125l-8.5775,-21.80161h5.23018l5.29625,12.86075l5.56051,-12.86075h5.10906l5.94589,12.93783l4.92188,-12.93783h5.21917l-8.19212,21.80161h-3.8318l-6.57352,-14.54542l-6.27622,14.54542zM340.34502,494.54125v-28.93669h4.92188v7.13507h12.03493c1.40206,0 2.61693,0.51017 3.64461,1.53052c1.02769,1.013 1.54153,2.23154 1.54153,3.65562v16.61547h-4.93289v-15.55842c0,-0.7047 -0.04404,-1.09742 -0.13213,-1.17817c-0.08075,-0.08809 -0.47347,-0.13213 -1.17817,-0.13213h-9.65657c-0.7047,0 -1.10109,0.04404 -1.18918,0.13213c-0.08809,0.08075 -0.13213,0.47347 -0.13213,1.17817v15.55842zM370.63282,494.54125c-1.42408,0 -2.64629,-0.5065 -3.66663,-1.51951c-1.013,-1.013 -1.51951,-2.23522 -1.51951,-3.66663v-8.19212h17.22107v-2.18016c0,-0.7047 -0.04404,-1.09742 -0.13213,-1.17817c-0.08809,-0.08809 -0.48448,-0.13213 -1.18918,-0.13213h-15.89976v-4.93289h16.95681c1.42408,0 2.64262,0.51017 3.65562,1.53052c1.02034,1.013 1.53052,2.23154 1.53052,3.65562v16.61547zM371.68987,489.61936h10.97788v-4.01898h-12.28818v2.69767c0,0.7047 0.04037,1.10109 0.12112,1.18918c0.08809,0.08809 0.48448,0.13213 1.18918,0.13213zM396.75752,494.54125c-1.43142,0 -2.65363,-0.5065 -3.66663,-1.51951c-1.013,-1.013 -1.51951,-2.23522 -1.51951,-3.66663v-23.2991h4.92188v6.68363h8.48942v4.93289h-8.48942v10.62553c0,0.7047 0.04404,1.10109 0.13213,1.18918c0.08809,0.08809 0.48081,0.13213 1.17817,0.13213h7.17912v4.92188zM408.06454,477.40826v-9.59051h4.92188v4.40437c0,1.2479 -0.4698,2.35634 -1.4094,3.3253c-0.9396,0.96162 -2.11042,1.5819 -3.51248,1.86084zM421.14778,494.54125c-1.43142,0 -2.65363,-0.5065 -3.66663,-1.51951c-1.013,-1.013 -1.51951,-2.23522 -1.51951,-3.66663v-0.82582h4.92188v0.22022c0,0.40373 0.04404,0.64964 0.13213,0.73773c0.08809,0.08809 0.33033,0.13213 0.72672,0.13213h10.55947c0.40373,0 0.64964,-0.04404 0.73773,-0.13213c0.08809,-0.08809 0.13213,-0.334 0.13213,-0.73773v-1.76175c0,-0.40373 -0.04404,-0.64964 -0.13213,-0.73773c-0.08809,-0.08809 -0.334,-0.13213 -0.73773,-0.13213h-11.15406c-1.43142,0 -2.65363,-0.51017 -3.66663,-1.53052c-1.013,-1.02769 -1.51951,-2.24623 -1.51951,-3.65562v-3.00598c0,-1.42408 0.5065,-2.64262 1.51951,-3.65562c1.013,-1.02034 2.23522,-1.53052 3.66663,-1.53052h11.75966c1.43142,0 2.6573,0.51017 3.67765,1.53052c1.02769,1.013 1.54153,2.23154 1.54153,3.65562v0.83683h-4.95491v-0.23123c0,-0.40373 -0.04404,-0.64597 -0.13213,-0.72672c-0.08809,-0.08809 -0.334,-0.13213 -0.73773,-0.13213h-10.55947c-0.39639,0 -0.63863,0.04404 -0.72672,0.13213c-0.08809,0.08075 -0.13213,0.32299 -0.13213,0.72672v1.76175c0,0.40373 0.04404,0.64964 0.13213,0.73773c0.08809,0.08809 0.33033,0.13213 0.72672,0.13213h11.16507c1.43142,0 2.6573,0.51384 3.67765,1.54153c1.02769,1.02769 1.54153,2.24256 1.54153,3.64461v3.00598c0,1.43142 -0.51384,2.65363 -1.54153,3.66663c-1.02034,1.013 -2.24623,1.51951 -3.67765,1.51951zM453.46141,494.54125v-28.93669h4.92187v7.13507h12.03493c1.40206,0 2.61693,0.51017 3.64461,1.53052c1.02769,1.013 1.54153,2.23154 1.54153,3.65562v16.61547h-4.93289v-15.55842c0,-0.7047 -0.04404,-1.09742 -0.13213,-1.17817c-0.08075,-0.08809 -0.47347,-0.13213 -1.17817,-0.13213h-9.65657c-0.7047,0 -1.10109,0.04404 -1.18918,0.13213c-0.08809,0.08075 -0.13213,0.47347 -0.13213,1.17817v15.55842zM483.7492,494.54125c-1.42408,0 -2.64629,-0.5065 -3.66663,-1.51951c-1.013,-1.013 -1.51951,-2.23522 -1.51951,-3.66663v-8.19212h17.22107v-2.18016c0,-0.7047 -0.04404,-1.09742 -0.13213,-1.17817c-0.08809,-0.08809 -0.48448,-0.13213 -1.18918,-0.13213h-15.89976v-4.93289h16.95681c1.42408,0 2.64262,0.51017 3.65562,1.53052c1.02034,1.013 1.53052,2.23154 1.53052,3.65562v16.61547zM484.80625,489.61936h10.97788v-4.01898h-12.28818v2.69767c0,0.7047 0.04037,1.10109 0.12112,1.18918c0.08809,0.08809 0.48448,0.13213 1.18918,0.13213zM504.7208,503.18482v-30.44518h16.95681c1.42408,0 2.64262,0.51017 3.65562,1.53052c1.02034,1.013 1.53052,2.23154 1.53052,3.65562v11.42933c0,1.43142 -0.51017,2.65363 -1.53052,3.66663c-1.013,1.013 -2.23154,1.51951 -3.65562,1.51951h-12.03493v8.64357zM510.96399,489.61936h9.65657c0.7047,0 1.09742,-0.04404 1.17817,-0.13213c0.08809,-0.08809 0.13213,-0.48448 0.13213,-1.18918v-9.31523c0,-0.7047 -0.04404,-1.09742 -0.13213,-1.17817c-0.08075,-0.08809 -0.47347,-0.13213 -1.17817,-0.13213h-9.65657c-0.7047,0 -1.10109,0.04404 -1.18918,0.13213c-0.08809,0.08075 -0.13213,0.47347 -0.13213,1.17817v9.31523c0,0.7047 0.04404,1.10109 0.13213,1.18918c0.08809,0.08809 0.48448,0.13213 1.18918,0.13213zM529.67405,503.18482v-30.44518h16.95681c1.42408,0 2.64262,0.51017 3.65562,1.53052c1.02034,1.013 1.53052,2.23154 1.53052,3.65562v11.42933c0,1.43142 -0.51017,2.65363 -1.53052,3.66663c-1.013,1.013 -2.23154,1.51951 -3.65562,1.51951h-12.03493v8.64357zM535.91724,489.61936h9.65657c0.7047,0 1.09742,-0.04404 1.17817,-0.13213c0.08809,-0.08809 0.13213,-0.48448 0.13213,-1.18918v-9.31523c0,-0.7047 -0.04404,-1.09742 -0.13213,-1.17817c-0.08075,-0.08809 -0.47347,-0.13213 -1.17817,-0.13213h-9.65657c-0.7047,0 -1.10109,0.04404 -1.18918,0.13213c-0.08809,0.08075 -0.13213,0.47347 -0.13213,1.17817v9.31523c0,0.7047 0.04404,1.10109 0.13213,1.18918c0.08809,0.08809 0.48448,0.13213 1.18918,0.13213zM559.70333,494.54125c-1.42408,0 -2.64629,-0.5065 -3.66663,-1.51951c-1.013,-1.013 -1.51951,-2.23522 -1.51951,-3.66663v-11.42933c0,-1.42408 0.5065,-2.64262 1.51951,-3.65562c1.02034,-1.02034 2.24256,-1.53052 3.66663,-1.53052h11.75966c1.43142,0 2.65363,0.51017 3.66663,1.53052c1.013,1.013 1.51951,2.23154 1.51951,3.65562v8.19212h-17.21006v2.18016c0,0.7047 0.04404,1.10109 0.13213,1.18918c0.08809,0.08809 0.48448,0.13213 1.18918,0.13213h15.88875v4.92188zM559.43907,481.69151h12.28818v-2.70869c0,-0.7047 -0.04404,-1.09742 -0.13213,-1.17817c-0.08809,-0.08809 -0.48081,-0.13213 -1.17817,-0.13213h-9.65657c-0.7047,0 -1.10109,0.04404 -1.18918,0.13213c-0.08809,0.08075 -0.13213,0.47347 -0.13213,1.17817zM580.63278,494.54125v-21.80161h16.95681c1.42408,0 2.64262,0.51017 3.65562,1.53052c1.02034,1.013 1.53052,2.23154 1.53052,3.65562v16.61547h-4.93289v-15.55842c0,-0.7047 -0.04404,-1.09742 -0.13213,-1.17817c-0.08075,-0.08809 -0.47347,-0.13213 -1.17817,-0.13213h-9.65657c-0.7047,0 -1.10109,0.04404 -1.18918,0.13213c-0.08809,0.08075 -0.13213,0.47347 -0.13213,1.17817v15.55842zM606.71153,494.54125v-21.80161h4.93289v21.80161zM606.71153,470.57048v-4.96592h4.93289v4.96592zM615.99584,494.54125v-21.80161h16.95681c1.42408,0 2.64262,0.51017 3.65562,1.53052c1.02033,1.013 1.5305,2.23154 1.5305,3.65562v16.61547h-4.93287v-15.55842c0,-0.7047 -0.04404,-1.09742 -0.13213,-1.17817c-0.08075,-0.08809 -0.47347,-0.13213 -1.17817,-0.13213h-9.65657c-0.7047,0 -1.10109,0.04404 -1.18918,0.13213c-0.08809,0.08075 -0.13213,0.47347 -0.13213,1.17817v15.55842zM645.04868,503.15178v-4.96592h12.28818c0.67534,0 1.05705,-0.04404 1.14514,-0.13213c0.08809,-0.08809 0.13213,-0.48081 0.13213,-1.17817v-2.33431h-12.02392c-1.43142,0 -2.65363,-0.5065 -3.66663,-1.51951c-1.013,-1.013 -1.51951,-2.23522 -1.51951,-3.66663v-11.42933c0,-1.42408 0.5065,-2.64262 1.51951,-3.65562c1.013,-1.02034 2.23522,-1.53052 3.66663,-1.53052h11.8037c1.42408,0 2.63528,0.51017 3.6336,1.53052c1.00566,1.013 1.5085,2.23154 1.5085,3.65562v20.03987c0,1.42408 -0.50283,2.64262 -1.5085,3.65562c-0.99832,1.02034 -2.20952,1.53052 -3.6336,1.53052zM647.63624,489.61936h9.70062c0.67534,0 1.05705,-0.04404 1.14514,-0.13213c0.08809,-0.08809 0.13213,-0.48448 0.13213,-1.18918v-9.31523c0,-0.7047 -0.04404,-1.09742 -0.13213,-1.17817c-0.08809,-0.08809 -0.4698,-0.13213 -1.14514,-0.13213h-9.70062c-0.69736,0 -1.09008,0.04404 -1.17817,0.13213c-0.08809,0.08075 -0.13213,0.47347 -0.13213,1.17817v9.31523c0,0.7047 0.04404,1.10109 0.13213,1.18918c0.08809,0.08809 0.48081,0.13213 1.17817,0.13213zM667.70996,486.95473v-19.4673h4.92188v19.4673zM667.70996,494.54125v-4.92188h4.92188v4.92188z" fill="#ffffff" fill-rule="nonzero" stroke="none" stroke-width="1"/><path d="M298.04556,637.95917v-11.54532c0,-0.75746 0.27052,-1.4067 0.81156,-1.94774c0.54575,-0.54575 1.19734,-0.81862 1.9548,-0.81862h8.76484c0.76686,0 1.42082,0.27287 1.96186,0.81862c0.54575,0.54104 0.81862,1.19029 0.81862,1.94774v11.54532h-2.64639v-4.80584h-9.04007v4.80584zM300.67078,630.52811h9.04007v-3.53558c0,-0.37167 -0.02588,-0.58103 -0.07763,-0.62808c-0.05175,-0.04705 -0.25641,-0.07057 -0.61396,-0.07057h-7.64983c-0.37167,0 -0.58103,0.02352 -0.62808,0.07057c-0.04705,0.04705 -0.07057,0.25641 -0.07057,0.62808zM317.28426,637.95917c-0.75275,0 -1.39965,-0.26817 -1.94069,-0.8045c-0.53634,-0.53634 -0.8045,-1.18323 -0.8045,-1.94069v-12.57565h2.62522v12.0252c0,0.36697 0.02352,0.57397 0.07057,0.62102c0.04705,0.04705 0.24935,0.07057 0.60691,0.07057h1.77132v2.60405zM323.90183,637.95917c-0.75275,0 -1.39965,-0.26817 -1.94069,-0.8045c-0.53634,-0.53634 -0.8045,-1.18323 -0.8045,-1.94069v-12.57565h2.62522v12.0252c0,0.36697 0.02352,0.57397 0.07057,0.62102c0.04705,0.04705 0.24935,0.07057 0.60691,0.07057h1.77132v2.60405zM333.71611,637.95917v-14.31168h2.60405v14.31168zM338.2894,637.95917v-11.52415h8.96244c0.75746,0 1.40435,0.26817 1.94069,0.8045c0.53634,0.53634 0.8045,1.18088 0.8045,1.93363v8.78601h-2.60405v-8.22851c0,-0.37167 -0.02352,-0.57868 -0.07057,-0.62102c-0.04705,-0.04705 -0.25641,-0.07057 -0.62808,-0.07057h-5.10224c-0.37167,0 -0.58103,0.02352 -0.62808,0.07057c-0.04705,0.04234 -0.07057,0.24935 -0.07057,0.62102v8.22851zM352.09955,637.95917v-12.56153c0,-0.75275 0.26817,-1.39729 0.8045,-1.93363c0.53634,-0.53634 1.18323,-0.8045 1.94069,-0.8045h4.35419v2.61816h-3.79669c-0.37167,0 -0.58103,0.02352 -0.62808,0.07057c-0.04705,0.04705 -0.07057,0.24935 -0.07057,0.60691v0.47988h4.49533v2.60405h-4.49533v8.9201zM363.48672,637.95917c-0.75275,0 -1.39729,-0.26817 -1.93363,-0.8045c-0.53634,-0.53634 -0.8045,-1.18323 -0.8045,-1.94069v-6.04083c0,-0.75275 0.26817,-1.39729 0.8045,-1.93363c0.53634,-0.53634 1.18088,-0.8045 1.93363,-0.8045h6.22431c0.75275,0 1.39729,0.26817 1.93363,0.8045c0.53634,0.53634 0.8045,1.18088 0.8045,1.93363v6.04083c0,0.75746 -0.26817,1.40435 -0.8045,1.94069c-0.53634,0.53634 -1.18088,0.8045 -1.93363,0.8045zM364.04422,635.35511h5.1093c0.37167,0 0.57868,-0.02352 0.62102,-0.07057c0.04705,-0.04705 0.07057,-0.25405 0.07057,-0.62102v-4.93287c0,-0.37167 -0.02352,-0.57868 -0.07057,-0.62102c-0.04234,-0.04705 -0.24935,-0.07057 -0.62102,-0.07057h-5.1093c-0.37167,0 -0.58103,0.02352 -0.62808,0.07057c-0.04234,0.04234 -0.06351,0.24935 -0.06351,0.62102v4.93287c0,0.36697 0.02117,0.57397 0.06351,0.62102c0.04705,0.04705 0.25641,0.07057 0.62808,0.07057zM374.07733,637.95917v-8.78601c0,-0.75275 0.26817,-1.39729 0.8045,-1.93363c0.54104,-0.53634 1.18794,-0.8045 1.94069,-0.8045h6.40074v2.60405h-5.84323c-0.37167,0 -0.58103,0.02352 -0.62808,0.07057c-0.04705,0.04234 -0.07057,0.24935 -0.07057,0.62102v8.22851zM384.49316,637.95917v-11.52415h14.29051c0.75275,0 1.39729,0.26817 1.93363,0.8045c0.53634,0.53634 0.8045,1.18088 0.8045,1.93363v8.78601h-2.58288v-8.22851c0,-0.37167 -0.02588,-0.57868 -0.07763,-0.62102c-0.05175,-0.04705 -0.25641,-0.07057 -0.61396,-0.07057h-3.21801c-0.37167,0 -0.58103,0.02352 -0.62808,0.07057c-0.04705,0.04234 -0.07057,0.24935 -0.07057,0.62102v8.22851h-2.62522v-8.22851c0,-0.37167 -0.02352,-0.57868 -0.07057,-0.62102c-0.04234,-0.04705 -0.24935,-0.07057 -0.62102,-0.07057h-3.21801c-0.37167,0 -0.58103,0.02352 -0.62808,0.07057c-0.04705,0.04234 -0.07057,0.24935 -0.07057,0.62102v8.22851zM406.21407,637.95917c-0.75275,0 -1.39965,-0.26817 -1.94069,-0.8045c-0.53634,-0.53634 -0.8045,-1.18323 -0.8045,-1.94069v-4.32597h9.10358v-1.15735c0,-0.37167 -0.02352,-0.57868 -0.07057,-0.62102c-0.04705,-0.04705 -0.25405,-0.07057 -0.62102,-0.07057h-8.41199v-2.60405h8.96244c0.75746,0 1.40435,0.26817 1.94069,0.8045c0.53634,0.53634 0.8045,1.18088 0.8045,1.93363v8.78601zM406.77157,635.35511h5.80089v-2.12417h-6.49953v1.43258c0,0.36697 0.02352,0.57397 0.07057,0.62102c0.04705,0.04705 0.25641,0.07057 0.62808,0.07057zM420.0268,637.95917c-0.75746,0 -1.40435,-0.26817 -1.94069,-0.8045c-0.53634,-0.53634 -0.8045,-1.18323 -0.8045,-1.94069v-12.32159h2.60405v3.54263h4.49533v2.60405h-4.49533v5.62446c0,0.36697 0.02352,0.57397 0.07057,0.62102c0.04705,0.04705 0.25641,0.07057 0.62808,0.07057h3.79669v2.60405zM426.00438,637.95917v-11.52415h2.60405v11.52415zM426.00438,625.27766v-2.61816h2.60405v2.61816zM433.14011,637.95917c-0.75275,0 -1.39729,-0.26817 -1.93363,-0.8045c-0.53634,-0.53634 -0.8045,-1.18323 -0.8045,-1.94069v-6.04083c0,-0.75275 0.26817,-1.39729 0.8045,-1.93363c0.53634,-0.53634 1.18088,-0.8045 1.93363,-0.8045h6.22431c0.75275,0 1.39729,0.26817 1.93363,0.8045c0.53634,0.53634 0.8045,1.18088 0.8045,1.93363v6.04083c0,0.75746 -0.26817,1.40435 -0.8045,1.94069c-0.53634,0.53634 -1.18088,0.8045 -1.93363,0.8045zM433.69761,635.35511h5.1093c0.37167,0 0.57868,-0.02352 0.62102,-0.07057c0.04705,-0.04705 0.07057,-0.25405 0.07057,-0.62102v-4.93287c0,-0.37167 -0.02352,-0.57868 -0.07057,-0.62102c-0.04234,-0.04705 -0.24935,-0.07057 -0.62102,-0.07057h-5.1093c-0.37167,0 -0.58103,0.02352 -0.62808,0.07057c-0.04234,0.04234 -0.06351,0.24935 -0.06351,0.62102v4.93287c0,0.36697 0.02117,0.57397 0.06351,0.62102c0.04705,0.04705 0.25641,0.07057 0.62808,0.07057zM443.71344,637.95917v-11.52415h8.96244c0.75746,0 1.40435,0.26817 1.94069,0.8045c0.53634,0.53634 0.8045,1.18088 0.8045,1.93363v8.78601h-2.60405v-8.22851c0,-0.37167 -0.02352,-0.57868 -0.07057,-0.62102c-0.04705,-0.04705 -0.25641,-0.07057 -0.62808,-0.07057h-5.10224c-0.37167,0 -0.58103,0.02352 -0.62808,0.07057c-0.04705,0.04234 -0.07057,0.24935 -0.07057,0.62102v8.22851zM463.7034,637.95917v-11.54532c0,-0.75746 0.27052,-1.4067 0.81156,-1.94774c0.54575,-0.54575 1.19734,-0.81862 1.9548,-0.81862h8.76484c0.76686,0 1.42082,0.27287 1.96186,0.81862c0.54575,0.54104 0.81862,1.19029 0.81862,1.94774v11.54532h-2.64639v-4.80584h-9.04007v4.80584zM466.32862,630.52811h9.04007v-3.53558c0,-0.37167 -0.02588,-0.58103 -0.07763,-0.62808c-0.05175,-0.04705 -0.25641,-0.07057 -0.61396,-0.07057h-7.64983c-0.37167,0 -0.58103,0.02352 -0.62808,0.07057c-0.04705,0.04705 -0.07057,0.25641 -0.07057,0.62808zM485.92018,637.95917l-6.33722,-11.52415h2.99924l4.55179,8.36259l4.53062,-8.36259h2.99924l-6.35839,11.52415zM498.20425,637.95917c-0.75275,0 -1.39965,-0.26817 -1.94069,-0.8045c-0.53634,-0.53634 -0.8045,-1.18323 -0.8045,-1.94069v-4.32597h9.10358v-1.15735c0,-0.37167 -0.02352,-0.57868 -0.07057,-0.62102c-0.04705,-0.04705 -0.25405,-0.07057 -0.62102,-0.07057h-8.41199v-2.60405h8.96244c0.75746,0 1.40435,0.26817 1.94069,0.8045c0.53634,0.53634 0.8045,1.18088 0.8045,1.93363v8.78601zM498.76176,635.35511h5.80089v-2.12417h-6.49953v1.43258c0,0.36697 0.02352,0.57397 0.07057,0.62102c0.04705,0.04705 0.25641,0.07057 0.62808,0.07057zM509.25064,637.95917v-11.52415h2.60405v11.52415zM509.25064,625.27766v-2.61816h2.60405v2.61816zM516.82484,637.95917c-0.75275,0 -1.39965,-0.26817 -1.94069,-0.8045c-0.53634,-0.53634 -0.8045,-1.18323 -0.8045,-1.94069v-12.57565h2.62522v12.0252c0,0.36697 0.02352,0.57397 0.07057,0.62102c0.04705,0.04705 0.24935,0.07057 0.60691,0.07057h1.77132v2.60405zM523.38279,637.95917c-0.75275,0 -1.39965,-0.26817 -1.94069,-0.8045c-0.53634,-0.53634 -0.8045,-1.18323 -0.8045,-1.94069v-4.32597h9.10358v-1.15735c0,-0.37167 -0.02352,-0.57868 -0.07057,-0.62102c-0.04705,-0.04705 -0.25405,-0.07057 -0.62102,-0.07057h-8.41199v-2.60405h8.96244c0.75746,0 1.40435,0.26817 1.94069,0.8045c0.53634,0.53634 0.8045,1.18088 0.8045,1.93363v8.78601zM523.9403,635.35511h5.80089v-2.12417h-6.49953v1.43258c0,0.36697 0.02352,0.57397 0.07057,0.62102c0.04705,0.04705 0.25641,0.07057 0.62808,0.07057zM533.91509,637.95917v-15.29966h2.60405v3.77552h6.35839c0.75746,0 1.40435,0.26817 1.94069,0.8045c0.53634,0.53634 0.8045,1.18088 0.8045,1.93363v6.04083c0,0.75746 -0.26817,1.40435 -0.8045,1.94069c-0.53634,0.53634 -1.18323,0.8045 -1.94069,0.8045zM537.21779,635.35511h5.10224c0.37167,0 0.58103,-0.02352 0.62808,-0.07057c0.04705,-0.04705 0.07057,-0.25405 0.07057,-0.62102v-4.93287c0,-0.37167 -0.02352,-0.57868 -0.07057,-0.62102c-0.04705,-0.04705 -0.25641,-0.07057 -0.62808,-0.07057h-5.10224c-0.37167,0 -0.58103,0.02352 -0.62808,0.07057c-0.04705,0.04234 -0.07057,0.24935 -0.07057,0.62102v4.93287c0,0.36697 0.02352,0.57397 0.07057,0.62102c0.04705,0.04705 0.25641,0.07057 0.62808,0.07057zM549.87296,637.95917c-0.75275,0 -1.39965,-0.26817 -1.94069,-0.8045c-0.53634,-0.53634 -0.8045,-1.18323 -0.8045,-1.94069v-12.57565h2.62522v12.0252c0,0.36697 0.02352,0.57397 0.07057,0.62102c0.04705,0.04705 0.24935,0.07057 0.60691,0.07057h1.77132v2.60405zM556.36999,637.95917c-0.75275,0 -1.39729,-0.26817 -1.93363,-0.8045c-0.53634,-0.53634 -0.8045,-1.18323 -0.8045,-1.94069v-6.04083c0,-0.75275 0.26817,-1.39729 0.8045,-1.93363c0.53634,-0.53634 1.18088,-0.8045 1.93363,-0.8045h6.22431c0.75275,0 1.39729,0.26817 1.93363,0.8045c0.53634,0.53634 0.8045,1.18088 0.8045,1.93363v4.33302h-9.09652v1.15735c0,0.36697 0.02117,0.57397 0.06351,0.62102c0.04705,0.04705 0.25641,0.07057 0.62808,0.07057h8.40493v2.60405zM556.2359,631.16324h6.49248v-1.43258c0,-0.37167 -0.02352,-0.57868 -0.07057,-0.62102c-0.04234,-0.04705 -0.24935,-0.07057 -0.62102,-0.07057h-5.1093c-0.37167,0 -0.58103,0.02352 -0.62808,0.07057c-0.04234,0.04234 -0.06351,0.24935 -0.06351,0.62102zM573.52116,637.95917v-15.29966h2.60405v3.77552h6.35839c0.74334,0 1.38553,0.26817 1.92657,0.8045c0.54575,0.53634 0.81862,1.18088 0.81862,1.93363v8.78601h-2.60405v-8.22851c0,-0.37167 -0.02352,-0.57868 -0.07057,-0.62102c-0.04705,-0.04705 -0.25641,-0.07057 -0.62808,-0.07057h-5.10224c-0.37167,0 -0.58103,0.02352 -0.62808,0.07057c-0.04705,0.04234 -0.07057,0.24935 -0.07057,0.62102v8.22851zM589.45786,637.95917c-0.75275,0 -1.39729,-0.26817 -1.93363,-0.8045c-0.53634,-0.53634 -0.8045,-1.18323 -0.8045,-1.94069v-6.04083c0,-0.75275 0.26817,-1.39729 0.8045,-1.93363c0.53634,-0.53634 1.18088,-0.8045 1.93363,-0.8045h6.22431c0.75275,0 1.39729,0.26817 1.93363,0.8045c0.53634,0.53634 0.8045,1.18088 0.8045,1.93363v4.33302h-9.09652v1.15735c0,0.36697 0.02117,0.57397 0.06351,0.62102c0.04705,0.04705 0.25641,0.07057 0.62808,0.07057h8.40493v2.60405zM589.32377,631.16324h6.49248v-1.43258c0,-0.37167 -0.02352,-0.57868 -0.07057,-0.62102c-0.04234,-0.04705 -0.24935,-0.07057 -0.62102,-0.07057h-5.1093c-0.37167,0 -0.58103,0.02352 -0.62808,0.07057c-0.04234,0.04234 -0.06351,0.24935 -0.06351,0.62102zM600.36644,637.95917v-8.78601c0,-0.75275 0.26817,-1.39729 0.8045,-1.93363c0.54104,-0.53634 1.18794,-0.8045 1.94069,-0.8045h6.40074v2.60405h-5.84323c-0.37167,0 -0.58103,0.02352 -0.62808,0.07057c-0.04705,0.04234 -0.07057,0.24935 -0.07057,0.62102v8.22851zM613.60305,637.95917c-0.75275,0 -1.39729,-0.26817 -1.93363,-0.8045c-0.53634,-0.53634 -0.8045,-1.18323 -0.8045,-1.94069v-6.04083c0,-0.75275 0.26817,-1.39729 0.8045,-1.93363c0.53634,-0.53634 1.18088,-0.8045 1.93363,-0.8045h6.22431c0.75275,0 1.39729,0.26817 1.93363,0.8045c0.53634,0.53634 0.8045,1.18088 0.8045,1.93363v4.33302h-9.09652v1.15735c0,0.36697 0.02117,0.57397 0.06351,0.62102c0.04705,0.04705 0.25641,0.07057 0.62808,0.07057h8.40493v2.60405zM613.46897,631.16324h6.49248v-1.43258c0,-0.37167 -0.02352,-0.57868 -0.07057,-0.62102c-0.04234,-0.04705 -0.24935,-0.07057 -0.62102,-0.07057h-5.1093c-0.37167,0 -0.58103,0.02352 -0.62808,0.07057c-0.04234,0.04234 -0.06351,0.24935 -0.06351,0.62102z" fill="#ffffff" fill-rule="nonzero" stroke="none" stroke-width="1"/><path d="M298.7824,673.03413v-9.90572c0,-0.54975 0.19003,-1.01467 0.57011,-1.39474c0.38686,-0.38686 0.85857,-0.58029 1.4151,-0.58029h7.92051c0.54975,0 1.01467,0.19343 1.39474,0.58029c0.38686,0.38008 0.58029,0.84499 0.58029,1.39474v9.90572h-1.33366v-4.33694h-9.21344v4.33694zM300.11606,667.35336h9.21344v-4.22495c0,-0.17647 -0.06448,-0.32578 -0.19343,-0.44795c-0.12216,-0.12895 -0.27149,-0.19343 -0.44795,-0.19343h-7.92051c-0.17647,0 -0.32917,0.06448 -0.45813,0.19343c-0.12895,0.12216 -0.19343,0.27149 -0.19343,0.44795zM312.51764,673.03413v-9.56976h7.74743c0.54975,0 1.02145,0.19683 1.4151,0.59047c0.39365,0.38686 0.59047,0.85517 0.59047,1.40492v7.57436h-1.35402v-7.57436c0,-0.17647 -0.06448,-0.32578 -0.19343,-0.44795c-0.12895,-0.12895 -0.28166,-0.19343 -0.45813,-0.19343h-5.74186c-0.17647,0 -0.33257,0.06448 -0.46831,0.19343c-0.12895,0.12216 -0.19343,0.27149 -0.19343,0.44795v7.57436zM324.00357,673.03413v-9.56976h7.74743c0.54975,0 1.02145,0.19683 1.4151,0.59047c0.39365,0.38686 0.59047,0.85517 0.59047,1.40492v7.57436h-1.35402v-7.57436c0,-0.17647 -0.06448,-0.32578 -0.19343,-0.44795c-0.12895,-0.12895 -0.28166,-0.19343 -0.45813,-0.19343h-5.74186c-0.17647,0 -0.33257,0.06448 -0.46831,0.19343c-0.12895,0.12216 -0.19343,0.27149 -0.19343,0.44795v7.57436zM337.1864,673.03413c-0.54975,0 -1.02145,-0.19343 -1.4151,-0.58029c-0.38686,-0.39365 -0.58029,-0.86535 -0.58029,-1.4151v-5.57897c0,-0.54975 0.19343,-1.01806 0.58029,-1.40492c0.39365,-0.39365 0.86535,-0.59047 1.4151,-0.59047h5.74186c0.56332,0 1.03843,0.19683 1.42528,0.59047c0.39365,0.38686 0.59047,0.85517 0.59047,1.40492v5.57897c0,0.54975 -0.19683,1.02145 -0.59047,1.4151c-0.38686,0.38686 -0.86196,0.58029 -1.42528,0.58029zM337.1864,671.68011h5.74186c0.17647,0 0.32578,-0.06108 0.44795,-0.18325c0.12895,-0.12895 0.19343,-0.28166 0.19343,-0.45813v-5.57897c0,-0.17647 -0.06448,-0.32578 -0.19343,-0.44795c-0.12216,-0.12895 -0.27149,-0.19343 -0.44795,-0.19343h-5.74186c-0.17647,0 -0.32917,0.06448 -0.45813,0.19343c-0.12216,0.12216 -0.18325,0.27149 -0.18325,0.44795v5.57897c0,0.17647 0.06108,0.32917 0.18325,0.45813c0.12895,0.12216 0.28166,0.18325 0.45813,0.18325zM348.2572,673.03413c-0.54975,0 -1.02145,-0.19343 -1.4151,-0.58029c-0.38686,-0.39365 -0.58029,-0.86535 -0.58029,-1.4151v-7.57436h1.35402v7.57436c0,0.17647 0.06108,0.32917 0.18325,0.45813c0.12895,0.12216 0.28166,0.18325 0.45813,0.18325h5.74186c0.17647,0 0.32917,-0.06108 0.45813,-0.18325c0.13574,-0.12895 0.20361,-0.28166 0.20361,-0.45813v-7.57436h1.35402v7.57436c0,0.54975 -0.19683,1.02145 -0.59047,1.4151c-0.38686,0.38686 -0.86196,0.58029 -1.42528,0.58029zM357.83413,673.03413v-9.56976h7.74743c0.54975,0 1.02145,0.19683 1.4151,0.59047c0.39365,0.38686 0.59047,0.85517 0.59047,1.40492v7.57436h-1.35402v-7.57436c0,-0.17647 -0.06448,-0.32578 -0.19343,-0.44795c-0.12895,-0.12895 -0.28166,-0.19343 -0.45813,-0.19343h-5.74186c-0.17647,0 -0.33257,0.06448 -0.46831,0.19343c-0.12895,0.12216 -0.19343,0.27149 -0.19343,0.44795v7.57436zM370.93442,673.03413c-0.54975,0 -1.02145,-0.19343 -1.4151,-0.58029c-0.38686,-0.39365 -0.58029,-0.86535 -0.58029,-1.4151v-5.57897c0,-0.54975 0.19343,-1.01806 0.58029,-1.40492c0.39365,-0.39365 0.86535,-0.59047 1.4151,-0.59047h7.71689v1.35402h-7.71689c-0.17647,0 -0.32917,0.06448 -0.45813,0.19343c-0.12216,0.12216 -0.18325,0.27149 -0.18325,0.44795v5.57897c0,0.17647 0.06108,0.32917 0.18325,0.45813c0.12895,0.12216 0.28166,0.18325 0.45813,0.18325h7.75762v1.35402zM381.9912,673.03413c-0.54975,0 -1.02145,-0.19343 -1.4151,-0.58029c-0.38686,-0.39365 -0.58029,-0.86535 -0.58029,-1.4151v-5.57897c0,-0.54975 0.19343,-1.01806 0.58029,-1.40492c0.39365,-0.39365 0.86535,-0.59047 1.4151,-0.59047h5.74186c0.56332,0 1.03843,0.19683 1.42528,0.59047c0.39365,0.38686 0.59047,0.85517 0.59047,1.40492v3.4614h-8.39899v2.11756c0,0.17647 0.06108,0.32917 0.18325,0.45813c0.12895,0.12216 0.28166,0.18325 0.45813,0.18325h7.75762v1.35402zM381.34982,667.56715h7.02461v-2.10739c0,-0.17647 -0.06448,-0.32578 -0.19343,-0.44795c-0.12216,-0.12895 -0.27149,-0.19343 -0.44795,-0.19343h-5.74186c-0.17647,0 -0.32917,0.06448 -0.45813,0.19343c-0.12216,0.12216 -0.18325,0.27149 -0.18325,0.44795zM391.46662,673.03413v-9.56976h12.63412c0.56332,0 1.03503,0.19683 1.4151,0.59047c0.38686,0.38686 0.58029,0.85517 0.58029,1.40492v7.57436h-1.33366v-7.57436c0,-0.17647 -0.06787,-0.32578 -0.20361,-0.44795c-0.12895,-0.12895 -0.28166,-0.19343 -0.45813,-0.19343h-3.97044c-0.17647,0 -0.32917,0.06448 -0.45813,0.19343c-0.12895,0.12216 -0.19343,0.27149 -0.19343,0.44795v7.57436h-1.3642v-7.57436c0,-0.17647 -0.06448,-0.32578 -0.19343,-0.44795c-0.12216,-0.12895 -0.27149,-0.19343 -0.44795,-0.19343h-4.00097c-0.17647,0 -0.32917,0.06448 -0.45813,0.19343c-0.12216,0.12216 -0.18325,0.27149 -0.18325,0.44795v7.57436zM409.55083,673.03413c-0.54975,0 -1.02145,-0.19343 -1.4151,-0.58029c-0.38686,-0.39365 -0.58029,-0.86535 -0.58029,-1.4151v-5.57897c0,-0.54975 0.19343,-1.01806 0.58029,-1.40492c0.39365,-0.39365 0.86535,-0.59047 1.4151,-0.59047h5.74186c0.56332,0 1.03843,0.19683 1.42528,0.59047c0.39365,0.38686 0.59047,0.85517 0.59047,1.40492v3.4614h-8.39899v2.11756c0,0.17647 0.06108,0.32917 0.18325,0.45813c0.12895,0.12216 0.28166,0.18325 0.45813,0.18325h7.75762v1.35402zM408.90944,667.56715h7.02461v-2.10739c0,-0.17647 -0.06448,-0.32578 -0.19343,-0.44795c-0.12216,-0.12895 -0.27149,-0.19343 -0.44795,-0.19343h-5.74186c-0.17647,0 -0.32917,0.06448 -0.45813,0.19343c-0.12216,0.12216 -0.18325,0.27149 -0.18325,0.44795zM419.02624,673.03413v-9.56976h7.74743c0.54975,0 1.02145,0.19683 1.41511,0.59047c0.39365,0.38686 0.59047,0.85517 0.59047,1.40492v7.57436h-1.35403v-7.57436c0,-0.17647 -0.06448,-0.32578 -0.19343,-0.44795c-0.12895,-0.12895 -0.28166,-0.19343 -0.45813,-0.19343h-5.74186c-0.17647,0 -0.33257,0.06448 -0.46831,0.19343c-0.12895,0.12216 -0.19343,0.27149 -0.19343,0.44795v7.57436zM432.48721,673.03413c-0.56332,0 -1.03843,-0.19343 -1.42528,-0.58029c-0.38008,-0.39365 -0.57011,-0.86535 -0.57011,-1.4151v-10.70999h1.35402v3.13563h4.14351v1.35402h-4.14351v6.22035c0,0.17647 0.06108,0.32917 0.18325,0.45813c0.12895,0.12216 0.28166,0.18325 0.45813,0.18325h3.50213v1.35402zM439.17191,673.03413c-0.54975,0 -1.02145,-0.19343 -1.4151,-0.58029c-0.38686,-0.39365 -0.58029,-0.86535 -0.58029,-1.4151v-0.13235h1.35402v0.13235c0,0.17647 0.06108,0.32917 0.18325,0.45813c0.12895,0.12216 0.28166,0.18325 0.45813,0.18325h5.74186c0.17647,0 0.32578,-0.06108 0.44795,-0.18325c0.12895,-0.12895 0.19343,-0.28166 0.19343,-0.45813v-1.46601c0,-0.17647 -0.06448,-0.32917 -0.19343,-0.45813c-0.12216,-0.12895 -0.27149,-0.19343 -0.44795,-0.19343h-5.74186c-0.54975,0 -1.02145,-0.19343 -1.4151,-0.58029c-0.38686,-0.39365 -0.58029,-0.86535 -0.58029,-1.4151v-1.46601c0,-0.54975 0.19343,-1.01806 0.58029,-1.40492c0.39365,-0.39365 0.86535,-0.59047 1.4151,-0.59047h5.74186c0.56332,0 1.03843,0.19683 1.42528,0.59047c0.39365,0.38686 0.59047,0.85517 0.59047,1.40492v0.13235h-1.37438v-0.13235c0,-0.17647 -0.06448,-0.32578 -0.19343,-0.44795c-0.12216,-0.12895 -0.27149,-0.19343 -0.44795,-0.19343h-5.74186c-0.17647,0 -0.32917,0.06448 -0.45813,0.19343c-0.12216,0.12216 -0.18325,0.27149 -0.18325,0.44795v1.46601c0,0.17647 0.06108,0.32917 0.18325,0.45813c0.12895,0.12216 0.28166,0.18325 0.45813,0.18325h5.74186c0.56332,0 1.03843,0.19683 1.42528,0.59047c0.39365,0.39365 0.59047,0.86535 0.59047,1.4151v1.46601c0,0.54975 -0.19683,1.02145 -0.59047,1.4151c-0.38686,0.38686 -0.86196,0.58029 -1.42528,0.58029z" fill="#ffffff" fill-rule="nonzero" stroke="#ffffff" stroke-width="0.75"/><path d="M466.32019,673.03413c-0.54975,0 -1.01806,-0.19003 -1.40492,-0.57011c-0.38008,-0.38686 -0.57011,-0.85857 -0.57011,-1.4151v-9.89554h1.33366v9.89554c0,0.17647 0.06108,0.32917 0.18325,0.45813c0.12895,0.12895 0.28166,0.19343 0.45813,0.19343h7.9205c0.17647,0 0.32578,-0.06448 0.44795,-0.19343c0.12895,-0.12895 0.19343,-0.28166 0.19343,-0.45813v-9.89554h1.34384v9.89554c0,0.55654 -0.19343,1.02824 -0.58029,1.4151c-0.38686,0.38008 -0.85517,0.57011 -1.40492,0.57011zM478.00943,676.8315v-13.36712h7.74743c0.54975,0 1.02145,0.19683 1.4151,0.59047c0.39365,0.38686 0.59047,0.85517 0.59047,1.40492v5.57897c0,0.54975 -0.19683,1.02145 -0.59047,1.4151c-0.39365,0.38686 -0.86535,0.58029 -1.4151,0.58029h-6.40359v3.79737zM480.015,671.68011h5.74186c0.17647,0 0.32917,-0.06108 0.45813,-0.18325c0.12895,-0.12895 0.19343,-0.28166 0.19343,-0.45813v-5.57897c0,-0.17647 -0.06448,-0.32578 -0.19343,-0.44795c-0.12895,-0.12895 -0.28166,-0.19343 -0.45813,-0.19343h-5.74186c-0.17647,0 -0.33257,0.06448 -0.46831,0.19343c-0.12895,0.12216 -0.19343,0.27149 -0.19343,0.44795v5.57897c0,0.17647 0.06448,0.32917 0.19343,0.45813c0.13574,0.12216 0.29185,0.18325 0.46831,0.18325zM490.87647,673.03413c-0.56332,0 -1.04181,-0.19343 -1.43546,-0.58029c-0.38686,-0.39365 -0.58029,-0.86535 -0.58029,-1.4151v-5.57897c0,-0.54975 0.19343,-1.01806 0.58029,-1.40492c0.39365,-0.39365 0.87214,-0.59047 1.43546,-0.59047h6.38323v-3.13563h1.35402v12.70539zM490.87647,671.68011h5.74186c0.17647,0 0.32578,-0.06108 0.44795,-0.18325c0.12895,-0.12895 0.19343,-0.28166 0.19343,-0.45813v-5.57897c0,-0.17647 -0.06448,-0.32578 -0.19343,-0.44795c-0.12216,-0.12895 -0.27149,-0.19343 -0.44795,-0.19343h-5.74186c-0.17647,0 -0.32917,0.06448 -0.45813,0.19343c-0.12216,0.12216 -0.18325,0.27149 -0.18325,0.44795v5.57897c0,0.17647 0.06108,0.32917 0.18325,0.45813c0.12895,0.12216 0.28166,0.18325 0.45813,0.18325zM502.34195,673.03413c-0.54975,0 -1.02145,-0.19343 -1.4151,-0.58029c-0.38686,-0.39365 -0.58029,-0.86535 -0.58029,-1.4151v-3.47158h8.38881v-2.10739c0,-0.17647 -0.06448,-0.32578 -0.19343,-0.44795c-0.12895,-0.12895 -0.27827,-0.19343 -0.44795,-0.19343h-7.74743v-1.35402h7.74743c0.55654,0 1.02824,0.19683 1.4151,0.59047c0.39365,0.38686 0.59047,0.85517 0.59047,1.40492v7.57436zM502.34195,671.68011h6.39342v-2.75894h-7.0348v2.11756c0,0.17647 0.06108,0.32917 0.18325,0.45813c0.12895,0.12216 0.28166,0.18325 0.45813,0.18325zM513.81522,673.03413c-0.56332,0 -1.03843,-0.19343 -1.42528,-0.58029c-0.38008,-0.39365 -0.57011,-0.86535 -0.57011,-1.4151v-10.70999h1.35402v3.13563h4.14351v1.35402h-4.14351v6.22035c0,0.17647 0.06108,0.32917 0.18325,0.45813c0.12895,0.12216 0.28166,0.18325 0.45813,0.18325h3.50213v1.35402zM520.55084,673.03413c-0.54975,0 -1.02145,-0.19343 -1.4151,-0.58029c-0.38686,-0.39365 -0.58029,-0.86535 -0.58029,-1.4151v-5.57897c0,-0.54975 0.19343,-1.01806 0.58029,-1.40492c0.39365,-0.39365 0.86535,-0.59047 1.4151,-0.59047h5.74186c0.56332,0 1.03843,0.19683 1.42528,0.59047c0.39365,0.38686 0.59047,0.85517 0.59047,1.40492v3.4614h-8.39899v2.11756c0,0.17647 0.06108,0.32917 0.18325,0.45813c0.12895,0.12216 0.28166,0.18325 0.45813,0.18325h7.75762v1.35402zM519.90946,667.56715h7.02461v-2.10739c0,-0.17647 -0.06448,-0.32578 -0.19343,-0.44795c-0.12216,-0.12895 -0.27149,-0.19343 -0.44795,-0.19343h-5.74186c-0.17647,0 -0.32917,0.06448 -0.45813,0.19343c-0.12216,0.12216 -0.18325,0.27149 -0.18325,0.44795zM531.91985,673.03413c-0.54975,0 -1.02145,-0.19343 -1.4151,-0.58029c-0.38686,-0.39365 -0.58029,-0.86535 -0.58029,-1.4151v-0.13235h1.35402v0.13235c0,0.17647 0.06108,0.32917 0.18325,0.45813c0.12895,0.12216 0.28166,0.18325 0.45813,0.18325h5.74186c0.17647,0 0.32578,-0.06108 0.44795,-0.18325c0.12895,-0.12895 0.19343,-0.28166 0.19343,-0.45813v-1.46601c0,-0.17647 -0.06448,-0.32917 -0.19343,-0.45813c-0.12216,-0.12895 -0.27149,-0.19343 -0.44795,-0.19343h-5.74186c-0.54975,0 -1.02145,-0.19343 -1.4151,-0.58029c-0.38686,-0.39365 -0.58029,-0.86535 -0.58029,-1.4151v-1.46601c0,-0.54975 0.19343,-1.01806 0.58029,-1.40492c0.39365,-0.39365 0.86535,-0.59047 1.4151,-0.59047h5.74186c0.56332,0 1.03843,0.19683 1.42528,0.59047c0.39365,0.38686 0.59047,0.85517 0.59047,1.40492v0.13235h-1.37438v-0.13235c0,-0.17647 -0.06448,-0.32578 -0.19343,-0.44795c-0.12216,-0.12895 -0.27149,-0.19343 -0.44795,-0.19343h-5.74186c-0.17647,0 -0.32917,0.06448 -0.45813,0.19343c-0.12216,0.12216 -0.18325,0.27149 -0.18325,0.44795v1.46601c0,0.17647 0.06108,0.32917 0.18325,0.45813c0.12895,0.12216 0.28166,0.18325 0.45813,0.18325h5.74186c0.56332,0 1.03843,0.19683 1.42528,0.59047c0.39365,0.39365 0.59047,0.86535 0.59047,1.4151v1.46601c0,0.54975 -0.19683,1.02145 -0.59047,1.4151c-0.38686,0.38686 -0.86196,0.58029 -1.42528,0.58029z" fill="#ffffff" fill-rule="nonzero" stroke="#ffffff" stroke-width="0.75"/><path d="M548.33446,668.54629c-0.18537,0 -0.33447,-0.05239 -0.44731,-0.15716c-0.10477,-0.11284 -0.15716,-0.26597 -0.15716,-0.4594v-0.44731c0,-0.19343 0.05239,-0.34656 0.15716,-0.4594c0.11284,-0.11284 0.26194,-0.16925 0.44731,-0.16925h0.54403c0.20149,0 0.35462,0.05642 0.4594,0.16925c0.11284,0.11284 0.16925,0.26597 0.16925,0.4594v0.44731c0,0.19343 -0.05642,0.34656 -0.16925,0.4594c-0.10477,0.10477 -0.25791,0.15716 -0.4594,0.15716z" fill="#ffffff" fill-rule="nonzero" stroke="none" stroke-width="1"/><path d="M557.15418,673.03413v-11.88075h10.84234v1.33366h-9.50868v3.92971h7.64563v1.35402h-7.64563v5.26337zM568.98388,673.03413v-9.56976h1.35402v9.56976zM568.98388,661.68277v-1.35402h1.35402v1.35402zM571.64807,673.03413v-0.02036l3.9908,-4.84597l-3.9908,-4.69326v-0.01018h1.78161l3.09491,3.62429l3.12544,-3.62429h1.76125v0.01018l-3.9908,4.69326l4.01116,4.84597v0.02036h-1.78161l-3.12544,-3.8279l-3.09491,3.8279zM584.33602,673.03413c-0.54975,0 -1.02145,-0.19343 -1.4151,-0.58029c-0.38686,-0.39365 -0.58029,-0.86535 -0.58029,-1.4151v-5.57897c0,-0.54975 0.19343,-1.01806 0.58029,-1.40492c0.39365,-0.39365 0.86535,-0.59047 1.4151,-0.59047h5.74186c0.56332,0 1.03843,0.19683 1.42528,0.59047c0.39365,0.38686 0.59047,0.85517 0.59047,1.40492v3.4614h-8.39899v2.11756c0,0.17647 0.06108,0.32917 0.18325,0.45813c0.12895,0.12216 0.28166,0.18325 0.45813,0.18325h7.75762v1.35402zM583.69464,667.56715h7.02461v-2.10739c0,-0.17647 -0.06448,-0.32578 -0.19343,-0.44795c-0.12216,-0.12895 -0.27149,-0.19343 -0.44795,-0.19343h-5.74186c-0.17647,0 -0.32917,0.06448 -0.45813,0.19343c-0.12216,0.12216 -0.18325,0.27149 -0.18325,0.44795zM595.70504,673.03413c-0.54975,0 -1.02145,-0.19343 -1.4151,-0.58029c-0.38686,-0.39365 -0.58029,-0.86535 -0.58029,-1.4151v-0.13235h1.35402v0.13235c0,0.17647 0.06108,0.32917 0.18325,0.45813c0.12895,0.12216 0.28166,0.18325 0.45813,0.18325h5.74186c0.17647,0 0.32578,-0.06108 0.44795,-0.18325c0.12895,-0.12895 0.19343,-0.28166 0.19343,-0.45813v-1.46601c0,-0.17647 -0.06448,-0.32917 -0.19343,-0.45813c-0.12216,-0.12895 -0.27149,-0.19343 -0.44795,-0.19343h-5.74186c-0.54975,0 -1.02145,-0.19343 -1.4151,-0.58029c-0.38686,-0.39365 -0.58029,-0.86535 -0.58029,-1.4151v-1.46601c0,-0.54975 0.19343,-1.01806 0.58029,-1.40492c0.39365,-0.39365 0.86535,-0.59047 1.4151,-0.59047h5.74186c0.56332,0 1.03843,0.19683 1.42528,0.59047c0.39365,0.38686 0.59047,0.85517 0.59047,1.40492v0.13235h-1.37438v-0.13235c0,-0.17647 -0.06448,-0.32578 -0.19343,-0.44795c-0.12216,-0.12895 -0.27149,-0.19343 -0.44795,-0.19343h-5.74186c-0.17647,0 -0.32917,0.06448 -0.45813,0.19343c-0.12216,0.12216 -0.18325,0.27149 -0.18325,0.44795v1.46601c0,0.17647 0.06108,0.32917 0.18325,0.45813c0.12895,0.12216 0.28166,0.18325 0.45813,0.18325h5.74186c0.56332,0 1.03843,0.19683 1.42528,0.59047c0.39365,0.39365 0.59047,0.86535 0.59047,1.4151v1.46601c0,0.54975 -0.19683,1.02145 -0.59047,1.4151c-0.38686,0.38686 -0.86196,0.58029 -1.42528,0.58029zM611.59615,673.03413c-0.54975,0 -1.02145,-0.19343 -1.4151,-0.58029c-0.38686,-0.39365 -0.58029,-0.86535 -0.58029,-1.4151v-3.55303c0,-0.23755 0.14592,-0.47509 0.43777,-0.71264c0.29863,-0.23755 0.69567,-0.35632 1.19113,-0.35632c-0.62441,-0.47509 -0.93661,-1.00448 -0.93661,-1.58817v-1.64926c0,-0.55654 0.19343,-1.03164 0.58029,-1.42528c0.39365,-0.39365 0.86535,-0.59047 1.4151,-0.59047h6.78027c0.46152,0 0.88232,0.17647 1.26239,0.52939c0.38008,0.34614 0.6312,0.733 0.75337,1.16059v0.90608h-1.3642v-0.55993c0,-0.17647 -0.06448,-0.32578 -0.19343,-0.44795c-0.12895,-0.12895 -0.28166,-0.19343 -0.45813,-0.19343h-6.78027c-0.17647,0 -0.32917,0.06448 -0.45813,0.19343c-0.12216,0.12216 -0.18325,0.27149 -0.18325,0.44795v2.29063l8.59242,4.34711v-2.30082h1.35402v2.73858l2.21937,1.30311v1.19113l-2.26009,-1.27258c-0.17647,0.45473 -0.44116,0.82463 -0.79409,1.10968c-0.35293,0.28506 -0.73979,0.42758 -1.16059,0.42758zM611.59615,671.68011h8.00195c0.10859,0 0.22737,-0.0543 0.35632,-0.16289c0.12895,-0.10859 0.23076,-0.25112 0.30542,-0.42758l-8.41935,-4.24531h-0.24434c-0.17647,0 -0.32917,0.06448 -0.45813,0.19343c-0.12216,0.12216 -0.18325,0.27149 -0.18325,0.44795v3.55303c0,0.17647 0.06108,0.32917 0.18325,0.45813c0.12895,0.12216 0.28166,0.18325 0.45813,0.18325zM629.54873,673.03413v-11.88075h1.35402v11.88075zM635.01467,673.03413c-0.54975,0 -1.02145,-0.19343 -1.4151,-0.58029c-0.38686,-0.39365 -0.58029,-0.86535 -0.58029,-1.4151v-0.13235h1.35402v0.13235c0,0.17647 0.06108,0.32917 0.18325,0.45813c0.12895,0.12216 0.28166,0.18325 0.45813,0.18325h5.74186c0.17647,0 0.32578,-0.06108 0.44795,-0.18325c0.12895,-0.12895 0.19343,-0.28166 0.19343,-0.45813v-1.46601c0,-0.17647 -0.06448,-0.32917 -0.19343,-0.45813c-0.12216,-0.12895 -0.27149,-0.19343 -0.44795,-0.19343h-5.74186c-0.54975,0 -1.02145,-0.19343 -1.4151,-0.58029c-0.38686,-0.39365 -0.58029,-0.86535 -0.58029,-1.4151v-1.46601c0,-0.54975 0.19343,-1.01806 0.58029,-1.40492c0.39365,-0.39365 0.86535,-0.59047 1.4151,-0.59047h5.74186c0.56332,0 1.03843,0.19683 1.42528,0.59047c0.39365,0.38686 0.59047,0.85517 0.59047,1.40492v0.13235h-1.37438v-0.13235c0,-0.17647 -0.06448,-0.32578 -0.19343,-0.44795c-0.12216,-0.12895 -0.27149,-0.19343 -0.44795,-0.19343h-5.74186c-0.17647,0 -0.32917,0.06448 -0.45813,0.19343c-0.12216,0.12216 -0.18325,0.27149 -0.18325,0.44795v1.46601c0,0.17647 0.06108,0.32917 0.18325,0.45813c0.12895,0.12216 0.28166,0.18325 0.45813,0.18325h5.74186c0.56332,0 1.03843,0.19683 1.42528,0.59047c0.39365,0.39365 0.59047,0.86535 0.59047,1.4151v1.46601c0,0.54975 -0.19683,1.02145 -0.59047,1.4151c-0.38686,0.38686 -0.86196,0.58029 -1.42528,0.58029zM646.33557,673.03413c-0.54975,0 -1.02145,-0.19343 -1.4151,-0.58029c-0.38686,-0.39365 -0.58029,-0.86535 -0.58029,-1.4151v-0.13235h1.35402v0.13235c0,0.17647 0.06108,0.32917 0.18325,0.45813c0.12895,0.12216 0.28166,0.18325 0.45813,0.18325h5.74186c0.17647,0 0.32578,-0.06108 0.44795,-0.18325c0.12895,-0.12895 0.19343,-0.28166 0.19343,-0.45813v-1.46601c0,-0.17647 -0.06448,-0.32917 -0.19343,-0.45813c-0.12216,-0.12895 -0.27149,-0.19343 -0.44795,-0.19343h-5.74186c-0.54975,0 -1.02145,-0.19343 -1.4151,-0.58029c-0.38686,-0.39365 -0.58029,-0.86535 -0.58029,-1.4151v-1.46601c0,-0.54975 0.19343,-1.01806 0.58029,-1.40492c0.39365,-0.39365 0.86535,-0.59047 1.4151,-0.59047h5.74186c0.56332,0 1.03843,0.19683 1.42528,0.59047c0.39365,0.38686 0.59047,0.85517 0.59047,1.40492v0.13235h-1.37438v-0.13235c0,-0.17647 -0.06448,-0.32578 -0.19343,-0.44795c-0.12216,-0.12895 -0.27149,-0.19343 -0.44795,-0.19343h-5.74186c-0.17647,0 -0.32917,0.06448 -0.45813,0.19343c-0.12216,0.12216 -0.18325,0.27149 -0.18325,0.44795v1.46601c0,0.17647 0.06108,0.32917 0.18325,0.45813c0.12895,0.12216 0.28166,0.18325 0.45813,0.18325h5.74186c0.56332,0 1.03843,0.19683 1.42528,0.59047c0.39365,0.39365 0.59047,0.86535 0.59047,1.4151v1.46601c0,0.54975 -0.19683,1.02145 -0.59047,1.4151c-0.38686,0.38686 -0.86196,0.58029 -1.42528,0.58029zM657.40777,673.03413c-0.54975,0 -1.02145,-0.19343 -1.4151,-0.58029c-0.38686,-0.39365 -0.58029,-0.86535 -0.58029,-1.4151v-7.57436h1.35402v7.57436c0,0.17647 0.06108,0.32917 0.18325,0.45813c0.12895,0.12216 0.28166,0.18325 0.45813,0.18325h5.74186c0.17647,0 0.32917,-0.06108 0.45813,-0.18325c0.13574,-0.12895 0.20361,-0.28166 0.20361,-0.45813v-7.57436h1.35402v7.57436c0,0.54975 -0.19683,1.02145 -0.59047,1.4151c-0.38686,0.38686 -0.86196,0.58029 -1.42528,0.58029zM668.59906,673.03413c-0.54975,0 -1.02145,-0.19343 -1.4151,-0.58029c-0.38686,-0.39365 -0.58029,-0.86535 -0.58029,-1.4151v-5.57897c0,-0.54975 0.19343,-1.01806 0.58029,-1.40492c0.39365,-0.39365 0.86535,-0.59047 1.4151,-0.59047h5.74186c0.56332,0 1.03843,0.19683 1.42528,0.59047c0.39365,0.38686 0.59047,0.85517 0.59047,1.40492v3.4614h-8.39899v2.11756c0,0.17647 0.06108,0.32917 0.18325,0.45813c0.12895,0.12216 0.28166,0.18325 0.45813,0.18325h7.75762v1.35402zM667.95769,667.56715h7.02461v-2.10739c0,-0.17647 -0.06448,-0.32578 -0.19343,-0.44795c-0.12216,-0.12895 -0.27149,-0.19343 -0.44795,-0.19343h-5.74186c-0.17647,0 -0.32917,0.06448 -0.45813,0.19343c-0.12216,0.12216 -0.18325,0.27149 -0.18325,0.44795zM679.96809,673.03413c-0.54975,0 -1.02145,-0.19343 -1.4151,-0.58029c-0.38686,-0.39365 -0.58029,-0.86535 -0.58029,-1.4151v-0.13235h1.35402v0.13235c0,0.17647 0.06108,0.32917 0.18325,0.45813c0.12895,0.12216 0.28166,0.18325 0.45813,0.18325h5.74186c0.17647,0 0.32578,-0.06108 0.44795,-0.18325c0.12895,-0.12895 0.19343,-0.28166 0.19343,-0.45813v-1.46601c0,-0.17647 -0.06448,-0.32917 -0.19343,-0.45813c-0.12216,-0.12895 -0.27149,-0.19343 -0.44795,-0.19343h-5.74186c-0.54975,0 -1.02145,-0.19343 -1.4151,-0.58029c-0.38686,-0.39365 -0.58029,-0.86535 -0.58029,-1.4151v-1.46601c0,-0.54975 0.19343,-1.01806 0.58029,-1.40492c0.39365,-0.39365 0.86535,-0.59047 1.4151,-0.59047h5.74186c0.56332,0 1.03843,0.19683 1.42528,0.59047c0.39365,0.38686 0.59047,0.85517 0.59047,1.40492v0.13235h-1.37438v-0.13235c0,-0.17647 -0.06448,-0.32578 -0.19343,-0.44795c-0.12216,-0.12895 -0.27149,-0.19343 -0.44795,-0.19343h-5.74186c-0.17647,0 -0.32917,0.06448 -0.45813,0.19343c-0.12216,0.12216 -0.18325,0.27149 -0.18325,0.44795v1.46601c0,0.17647 0.06108,0.32917 0.18325,0.45813c0.12895,0.12216 0.28166,0.18325 0.45813,0.18325h5.74186c0.56332,0 1.03843,0.19683 1.42528,0.59047c0.39365,0.39365 0.59047,0.86535 0.59047,1.4151v1.46601c0,0.54975 -0.19683,1.02145 -0.59047,1.4151c-0.38686,0.38686 -0.86196,0.58029 -1.42528,0.58029z" fill="#ffffff" fill-rule="nonzero" stroke="#ffffff" stroke-width="0.75"/><path d="M455.10929,668.54629c-0.18538,0 -0.33447,-0.05239 -0.44732,-0.15716c-0.10477,-0.11284 -0.15716,-0.26597 -0.15716,-0.4594v-0.44731c0,-0.19343 0.05238,-0.34656 0.15716,-0.4594c0.11284,-0.11284 0.26194,-0.16925 0.44732,-0.16925h0.54402c0.20148,0 0.35462,0.05642 0.4594,0.16925c0.11284,0.11284 0.16924,0.26597 0.16924,0.4594v0.44731c0,0.19343 -0.05641,0.34656 -0.16924,0.4594c-0.10477,0.10477 -0.25791,0.15716 -0.4594,0.15716z" fill="#ffffff" fill-rule="nonzero" stroke="none" stroke-width="1"/></g></g></svg>