<svg version="1.1" viewBox="0.0 0.0 960.0 720.0" fill="none" stroke="none" stroke-linecap="square" stroke-miterlimit="10" xmlns:xlink="http://www.w3.org/1999/xlink" xmlns="http://www.w3.org/2000/svg"><clipPath id="p.0"><path d="m0 0l960.0 0l0 720.0l-960.0 0l0 -720.0z" clip-rule="nonzero"/></clipPath><g clip-path="url(#p.0)"><path fill="#000000" fill-opacity="0.0" d="m0 0l960.0 0l0 720.0l-960.0 0z" fill-rule="evenodd"/><path fill="#000000" fill-opacity="0.0" d="m169.26247 250.10498l500.12598 0l0 168.06299l-500.12598 0z" fill-rule="evenodd"/><path fill="#000000" d="m179.98122 288.54498l0 -22.078125l4.4375 0l8.0 9.546875l7.984375 -9.546875l4.46875 0l0 22.078125l-4.078125 0l0 -16.1875l-8.375 9.96875l-8.390625 -9.9375l0 16.15625l-4.046875 0zm32.527206 0q-1.75 0 -3.0 -1.234375q-1.234375 -1.25 -1.234375 -3.0l0 -9.3125q0 -1.75 1.234375 -2.984375q1.25 -1.25 3.0 -1.25l9.59375 0q1.75 0 2.984375 1.25q1.25 1.234375 1.25 2.984375l0 6.6875l-14.046875 0l0 1.765625q0 0.859375 0.109375 0.96875q0.109375 0.109375 0.96875 0.109375l12.96875 0l0 4.015625l-13.828125 0zm-0.21875 -10.484375l10.03125 0l0 -2.203125q0 -0.859375 -0.109375 -0.96875q-0.109375 -0.109375 -0.96875 -0.109375l-7.875 0q-0.859375 0 -0.96875 0.109375q-0.109375 0.109375 -0.109375 0.96875l0 2.203125zm17.292313 10.484375l0 -17.78125l13.828125 0q1.75 0 2.984375 1.25q1.25 1.234375 1.25 2.984375l0 13.546875l-4.015625 0l0 -12.6875q0 -0.859375 -0.109375 -0.96875q-0.109375 -0.109375 -0.96875 -0.109375l-7.875 0q-0.859375 0 -0.96875 0.109375q-0.109375 0.109375 -0.109375 0.96875l0 12.6875l-4.015625 0zm25.539932 0q-1.75 0 -3.0 -1.234375q-1.234375 -1.25 -1.234375 -3.0l0 -13.546875l4.015625 0l0 12.6875q0 0.859375 0.109375 0.96875q0.109375 0.109375 0.96875 0.109375l7.875 0q0.859375 0 0.96875 -0.109375q0.109375 -0.109375 0.109375 -0.96875l0 -12.6875l4.015625 0l0 13.546875q0 1.75 -1.25 3.0q-1.234375 1.234375 -2.984375 1.234375l-9.59375 0z" fill-rule="nonzero"/><path fill="#000000" d="m180.01247 325.34497l0 -22.078125l4.046875 0l0 8.984375l14.46875 0l0 -8.984375l4.046875 0l0 22.078125l-4.046875 0l0 -8.984375l-14.46875 0l0 8.984375l-4.046875 0zm30.135422 0q-1.75 0 -3.0 -1.234375q-1.234375 -1.25 -1.234375 -3.0l0 -9.3125q0 -1.75 1.234375 -2.984375q1.25 -1.25 3.0 -1.25l9.59375 0q1.75 0 2.984375 1.25q1.25 1.234375 1.25 2.984375l0 9.3125q0 1.75 -1.25 3.0q-1.234375 1.234375 -2.984375 1.234375l-9.59375 0zm0.859375 -4.015625l7.875 0q0.859375 0 0.96875 -0.109375q0.109375 -0.109375 0.109375 -0.96875l0 -7.59375q0 -0.859375 -0.109375 -0.96875q-0.109375 -0.109375 -0.96875 -0.109375l-7.875 0q-0.859375 0 -0.96875 0.109375q-0.109375 0.109375 -0.109375 0.96875l0 7.59375q0 0.859375 0.109375 0.96875q0.109375 0.109375 0.96875 0.109375zm16.214188 4.015625l0 -17.78125l22.046875 0q1.734375 0 2.96875 1.25q1.25 1.234375 1.25 2.984375l0 13.546875l-3.984375 0l0 -12.6875q0 -0.859375 -0.125 -0.96875q-0.109375 -0.109375 -0.9375 -0.109375l-4.96875 0q-0.859375 0 -0.96875 0.109375q-0.109375 0.109375 -0.109375 0.96875l0 12.6875l-4.046875 0l0 -12.6875q0 -0.859375 -0.109375 -0.96875q-0.109375 -0.109375 -0.96875 -0.109375l-4.953125 0q-0.859375 0 -0.96875 0.109375q-0.109375 0.109375 -0.109375 0.96875l0 12.6875l-4.015625 0zm33.26387 0q-1.75 0 -3.0 -1.234375q-1.234375 -1.25 -1.234375 -3.0l0 -9.3125q0 -1.75 1.234375 -2.984375q1.25 -1.25 3.0 -1.25l9.59375 0q1.75 0 2.984375 1.25q1.25 1.234375 1.25 2.984375l0 6.6875l-14.046875 0l0 1.765625q0 0.859375 0.109375 0.96875q0.109375 0.109375 0.96875 0.109375l12.96875 0l0 4.015625l-13.828125 0zm-0.21875 -10.484375l10.03125 0l0 -2.203125q0 -0.859375 -0.109375 -0.96875q-0.109375 -0.109375 -0.96875 -0.109375l-7.875 0q-0.859375 0 -0.96875 0.109375q-0.109375 0.109375 -0.109375 0.96875l0 2.203125z" fill-rule="nonzero"/><path fill="#000000" d="m179.98122 362.145l0 -22.078125l4.4375 0l8.0 9.546875l7.984375 -9.546875l4.46875 0l0 22.078125l-4.078125 0l0 -16.1875l-8.375 9.96875l-8.390625 -9.9375l0 16.15625l-4.046875 0zm32.527206 0q-1.75 0 -3.0 -1.234375q-1.234375 -1.25 -1.234375 -3.0l0 -9.3125q0 -1.75 1.234375 -2.984375q1.25 -1.25 3.0 -1.25l9.59375 0q1.75 0 2.984375 1.25q1.25 1.234375 1.25 2.984375l0 9.3125q0 1.75 -1.25 3.0q-1.234375 1.234375 -2.984375 1.234375l-9.59375 0zm0.859375 -4.015625l7.875 0q0.859375 0 0.96875 -0.109375q0.109375 -0.109375 0.109375 -0.96875l0 -7.59375q0 -0.859375 -0.109375 -0.96875q-0.109375 -0.109375 -0.96875 -0.109375l-7.875 0q-0.859375 0 -0.96875 0.109375q-0.109375 0.109375 -0.109375 0.96875l0 7.59375q0 0.859375 0.109375 0.96875q0.109375 0.109375 0.96875 0.109375zm15.999527 4.015625l0 -23.609375l4.015625 0l0 5.828125l9.8125 0q1.75 0 2.984375 1.25q1.25 1.234375 1.25 2.984375l0 9.3125q0 1.75 -1.25 3.0q-1.234375 1.234375 -2.984375 1.234375l-13.828125 0zm5.09375 -4.015625l7.875 0q0.859375 0 0.96875 -0.109375q0.109375 -0.109375 0.109375 -0.96875l0 -7.59375q0 -0.859375 -0.109375 -0.96875q-0.109375 -0.109375 -0.96875 -0.109375l-7.875 0q-0.859375 0 -0.96875 0.109375q-0.109375 0.109375 -0.109375 0.96875l0 7.59375q0 0.859375 0.109375 0.96875q0.109375 0.109375 0.96875 0.109375zm15.291534 4.015625l0 -17.78125l4.015625 0l0 17.78125l-4.015625 0zm0 -19.5625l0 -4.046875l4.015625 0l0 4.046875l-4.015625 0zm11.684097 19.5625q-1.75 0 -3.0 -1.234375q-1.234375 -1.25 -1.234375 -3.0l0 -19.40625l4.046875 0l0 18.546875q0 0.859375 0.109375 0.96875q0.109375 0.109375 0.9375 0.109375l2.71875 0l0 4.015625l-3.578125 0zm10.024048 0q-1.75 0 -3.0 -1.234375q-1.234375 -1.25 -1.234375 -3.0l0 -9.3125q0 -1.75 1.234375 -2.984375q1.25 -1.25 3.0 -1.25l9.59375 0q1.75 0 2.984375 1.25q1.25 1.234375 1.25 2.984375l0 6.6875l-14.046875 0l0 1.765625q0 0.859375 0.109375 0.96875q0.109375 0.109375 0.96875 0.109375l12.96875 0l0 4.015625l-13.828125 0zm-0.21875 -10.484375l10.03125 0l0 -2.203125q0 -0.859375 -0.109375 -0.96875q-0.109375 -0.109375 -0.96875 -0.109375l-7.875 0q-0.859375 0 -0.96875 0.109375q-0.109375 0.109375 -0.109375 0.96875l0 2.203125zm17.448578 3.4375l0 -4.015625l12.53125 0l0 4.015625l-12.53125 0zm15.818054 7.046875l0 -22.078125l20.328125 0l0 4.078125l-16.25 0l0 4.90625l13.0625 0l0 4.109375l-13.0625 0l0 8.984375l-4.078125 0zm21.97705 0l0 -13.546875q0 -1.75 1.234375 -2.984375q1.25 -1.25 3.0 -1.25l9.875 0l0 4.015625l-9.015625 0q-0.859375 0 -0.96875 0.109375q-0.109375 0.109375 -0.109375 0.96875l0 12.6875l-4.015625 0zm16.431946 0l0 -17.78125l4.015625 0l0 17.78125l-4.015625 0zm0 -19.5625l0 -4.046875l4.015625 0l0 4.046875l-4.015625 0zm11.22348 19.5625q-1.75 0 -3.0 -1.234375q-1.234375 -1.25 -1.234375 -3.0l0 -9.3125q0 -1.75 1.234375 -2.984375q1.25 -1.25 3.0 -1.25l9.59375 0q1.75 0 2.984375 1.25q1.25 1.234375 1.25 2.984375l0 6.6875l-14.046875 0l0 1.765625q0 0.859375 0.109375 0.96875q0.109375 0.109375 0.96875 0.109375l12.96875 0l0 4.015625l-13.828125 0zm-0.21875 -10.484375l10.03125 0l0 -2.203125q0 -0.859375 -0.109375 -0.96875q-0.109375 -0.109375 -0.96875 -0.109375l-7.875 0q-0.859375 0 -0.96875 0.109375q-0.109375 0.109375 -0.109375 0.96875l0 2.203125zm17.292328 10.484375l0 -17.78125l13.828125 0q1.75 0 2.984375 1.25q1.25 1.234375 1.25 2.984375l0 13.546875l-4.015625 0l0 -12.6875q0 -0.859375 -0.109375 -0.96875q-0.109375 -0.109375 -0.96875 -0.109375l-7.875 0q-0.859375 0 -0.96875 0.109375q-0.109375 0.109375 -0.109375 0.96875l0 12.6875l-4.015625 0zm24.618042 0q-1.75 0 -3.0 -1.234375q-1.234375 -1.25 -1.234375 -3.0l0 -9.3125q0 -1.75 1.234375 -2.984375q1.25 -1.25 3.0 -1.25l9.84375 0l0 -5.828125l4.015625 0l0 23.609375l-13.859375 0zm0.890625 -4.015625l7.875 0q0.859375 0 0.96875 -0.109375q0.109375 -0.109375 0.109375 -0.96875l0 -7.59375q0 -0.859375 -0.109375 -0.96875q-0.109375 -0.109375 -0.96875 -0.109375l-7.875 0q-0.859375 0 -0.96875 0.109375q-0.109375 0.109375 -0.109375 0.96875l0 7.59375q0 0.859375 0.109375 0.96875q0.109375 0.109375 0.96875 0.109375zm20.447784 4.015625q-1.75 0 -3.0 -1.234375q-1.234375 -1.25 -1.234375 -3.0l0 -19.40625l4.046875 0l0 18.546875q0 0.859375 0.109375 0.96875q0.109375 0.109375 0.9375 0.109375l2.71875 0l0 4.015625l-3.578125 0zm8.860809 6.59375l0 -4.046875l10.015625 0q0.828125 0 0.9375 -0.109375q0.109375 -0.109375 0.109375 -0.96875l0 -1.46875l-9.8125 0q-1.75 0 -3.0 -1.234375q-1.234375 -1.25 -1.234375 -3.0l0 -13.484375l4.015625 0l0 12.625q0 0.859375 0.109375 0.96875q0.109375 0.109375 0.96875 0.109375l7.90625 0q0.828125 0 0.9375 -0.109375q0.109375 -0.109375 0.109375 -0.96875l0 -12.625l4.015625 0l0 20.078125q0 1.75 -1.234375 2.984375q-1.21875 1.25 -2.96875 1.25l-10.875 0z" fill-rule="nonzero"/><path fill="#000000" d="m179.98122 398.94498l0 -22.046875l17.78125 0q1.78125 0 3.03125 1.28125q1.265625 1.265625 1.265625 2.984375l0 5.953125q0 1.75 -1.265625 3.0q-1.25 1.25 -3.03125 1.25l-13.734375 0.03125l0 7.546875l-4.046875 0zm5.125 -11.65625l11.796875 0q0.828125 0 0.953125 -0.078125q0.125 -0.09375 0.125 -0.953125l0 -4.234375q0 -0.859375 -0.125 -0.96875q-0.125 -0.109375 -0.953125 -0.109375l-11.796875 0q-0.859375 0 -0.96875 0.109375q-0.109375 0.109375 -0.109375 0.96875l0 4.234375q0 0.859375 0.109375 0.953125q0.109375 0.078125 0.96875 0.078125zm23.389786 11.65625q-1.75 0 -3.015625 -1.25q-1.25 -1.265625 -1.25 -3.015625l0 -13.546875q0 -1.75 1.25 -3.0q1.265625 -1.265625 3.015625 -1.265625l17.75 0l0 4.078125l-16.890625 0q-0.859375 0 -0.96875 0.109375q-0.109375 0.109375 -0.109375 0.96875l0 11.765625q0 0.859375 0.109375 0.96875q0.109375 0.109375 0.96875 0.109375l16.890625 0l0 4.078125l-17.75 0z" fill-rule="nonzero"/></g></svg>