<svg version="1.1" xmlns="http://www.w3.org/2000/svg" xmlns:xlink="http://www.w3.org/1999/xlink" width="111.08661" height="111.08661" viewBox="0,0,111.08661,111.08661"><g transform="translate(-904.4567,-484.4567)"><g data-paper-data="{&quot;isPaintingLayer&quot;:true}" stroke="none" stroke-width="1" stroke-linejoin="miter" stroke-miterlimit="10" stroke-dasharray="" stroke-dashoffset="0" style="mix-blend-mode: normal"><path d="M904.45671,502.97151c0,-10.22543 8.28935,-18.5148 18.5148,-18.5148h74.05701c4.91043,0 9.61975,1.95067 13.09195,5.42287c3.4722,3.4722 5.42285,8.1815 5.42285,13.09193v74.05701c0,10.22543 -8.28937,18.5148 -18.5148,18.5148h-74.05701c-10.22545,0 -18.5148,-8.28937 -18.5148,-18.5148z" fill="#de9240" fill-rule="evenodd" stroke-linecap="square"/><path d="M965.03276,581.29434l-24.7766,-24.7766h-24.7766v-33.03547h24.7766l24.7766,-24.7766zM1004.52047,540c0,15.99175 -10.75976,30.01453 -26.20642,34.15351l-1.2027,-4.4874c13.43769,-3.60061 22.7635,-15.75405 22.7635,-29.66611c0,-13.91232 -9.32581,-26.06576 -22.7635,-29.66611l1.2027,-4.4874c15.44666,4.13898 26.20642,18.16151 26.20642,34.15351zM992.13217,540c0,10.38475 -6.99371,19.49919 -17.02488,22.18719l-1.20218,-4.4874c8.0222,-2.14937 13.58145,-9.39498 13.58145,-17.69979c0,-8.30481 -5.55925,-15.55042 -13.58145,-17.69979l1.20218,-4.4874c10.03117,2.688 17.02488,11.80218 17.02488,22.18719zM979.74413,540c0,4.77827 -3.22767,8.98462 -7.84334,10.22138l-1.20218,-4.4874c2.60593,-0.69865 4.39965,-3.03617 4.39965,-5.73398c0,-2.69781 -1.79372,-5.03533 -4.3994,-5.73398l1.20192,-4.4874c4.61567,1.23677 7.84334,5.44337 7.84334,10.22138z" fill="#ffffff" fill-rule="nonzero" stroke-linecap="butt"/></g></g></svg>