<svg version="1.1" viewBox="0.0 0.0 960.0 720.0" fill="none" stroke="none" stroke-linecap="square" stroke-miterlimit="10" xmlns:xlink="http://www.w3.org/1999/xlink" xmlns="http://www.w3.org/2000/svg"><clipPath id="p.0"><path d="m0 0l960.0 0l0 720.0l-960.0 0l0 -720.0z" clip-rule="nonzero"/></clipPath><g clip-path="url(#p.0)"><path fill="#000000" fill-opacity="0.0" d="m0 0l960.0 0l0 720.0l-960.0 0z" fill-rule="evenodd"/><path fill="#000000" fill-opacity="0.0" d="m169.26247 250.10498l500.12598 0l0 119.590546l-500.12598 0z" fill-rule="evenodd"/><path fill="#000000" d="m184.24684 288.54498q-1.75 0 -3.015625 -1.25q-1.25 -1.265625 -1.25 -3.015625l0 -13.546875q0 -1.75 1.25 -3.0q1.265625 -1.265625 3.015625 -1.265625l17.75 0l0 4.078125l-16.890625 0q-0.859375 0 -0.96875 0.109375q-0.109375 0.109375 -0.109375 0.96875l0 11.765625q0 0.859375 0.109375 0.96875q0.109375 0.109375 0.96875 0.109375l16.890625 0l0 4.078125l-17.75 0zm25.012009 0q-1.75 0 -3.0 -1.234375q-1.234375 -1.25 -1.234375 -3.0l0 -9.3125q0 -1.75 1.234375 -2.984375q1.25 -1.25 3.0 -1.25l9.59375 0q1.75 0 2.984375 1.25q1.25 1.234375 1.25 2.984375l0 9.3125q0 1.75 -1.25 3.0q-1.234375 1.234375 -2.984375 1.234375l-9.59375 0zm0.859375 -4.015625l7.875 0q0.859375 0 0.96875 -0.109375q0.109375 -0.109375 0.109375 -0.96875l0 -7.59375q0 -0.859375 -0.109375 -0.96875q-0.109375 -0.109375 -0.96875 -0.109375l-7.875 0q-0.859375 0 -0.96875 0.109375q-0.109375 0.109375 -0.109375 0.96875l0 7.59375q0 0.859375 0.109375 0.96875q0.109375 0.109375 0.96875 0.109375zm16.214188 4.015625l0 -17.78125l22.046875 0q1.734375 0 2.96875 1.25q1.25 1.234375 1.25 2.984375l0 13.546875l-3.984375 0l0 -12.6875q0 -0.859375 -0.125 -0.96875q-0.109375 -0.109375 -0.9375 -0.109375l-4.96875 0q-0.859375 0 -0.96875 0.109375q-0.109375 0.109375 -0.109375 0.96875l0 12.6875l-4.046875 0l0 -12.6875q0 -0.859375 -0.109375 -0.96875q-0.109375 -0.109375 -0.96875 -0.109375l-4.953125 0q-0.859375 0 -0.96875 0.109375q-0.109375 0.109375 -0.109375 0.96875l0 12.6875l-4.015625 0zm29.919418 0l0 -17.78125l4.015625 0l0 17.78125l-4.015625 0zm0 -19.5625l0 -4.046875l4.015625 0l0 4.046875l-4.015625 0zm7.5735474 19.5625l0 -17.78125l13.828125 0q1.75 0 2.984375 1.25q1.25 1.234375 1.25 2.984375l0 13.546875l-4.015625 0l0 -12.6875q0 -0.859375 -0.109375 -0.96875q-0.109375 -0.109375 -0.96875 -0.109375l-7.875 0q-0.859375 0 -0.96875 0.109375q-0.109375 0.109375 -0.109375 0.96875l0 12.6875l-4.015625 0zm23.700256 7.015625l0 -4.046875l10.015625 0q0.828125 0 0.9375 -0.109375q0.109375 -0.09375 0.109375 -0.953125l0 -1.90625l-9.8125 0q-1.75 0 -3.0 -1.234375q-1.234375 -1.25 -1.234375 -3.0l0 -9.3125q0 -1.75 1.234375 -2.984375q1.25 -1.25 3.0 -1.25l9.625 0q1.75 0 2.96875 1.25q1.234375 1.234375 1.234375 2.984375l0 16.34375q0 1.734375 -1.234375 2.96875q-1.21875 1.25 -2.96875 1.25l-10.875 0zm2.109375 -11.03125l7.90625 0q0.828125 0 0.9375 -0.109375q0.109375 -0.109375 0.109375 -0.96875l0 -7.59375q0 -0.859375 -0.109375 -0.96875q-0.109375 -0.109375 -0.9375 -0.109375l-7.90625 0q-0.859375 0 -0.96875 0.109375q-0.109375 0.109375 -0.109375 0.96875l0 7.59375q0 0.859375 0.109375 0.96875q0.109375 0.109375 0.96875 0.109375zm29.865997 4.015625q-1.75 0 -3.015625 -1.25q-1.25 -1.265625 -1.25 -3.015625l0 -1.6875l4.046875 0l0 0.796875q0 0.859375 0.109375 0.96875q0.109375 0.109375 0.96875 0.109375l11.796875 0q0.859375 0 0.96875 -0.109375q0.109375 -0.109375 0.109375 -0.96875l0 -2.78125q0 -0.859375 -0.109375 -0.953125q-0.109375 -0.09375 -0.96875 -0.09375l-12.65625 0q-1.75 0 -3.015625 -1.265625q-1.25 -1.28125 -1.25 -3.03125l0 -4.53125q0 -1.75 1.25 -3.0q1.265625 -1.265625 3.015625 -1.265625l13.546875 0q1.75 0 3.0 1.265625q1.265625 1.25 1.265625 3.0l0 1.6875l-4.078125 0l0 -0.796875q0 -0.859375 -0.109375 -0.96875q-0.109375 -0.109375 -0.96875 -0.109375l-11.796875 0q-0.859375 0 -0.96875 0.109375q-0.109375 0.109375 -0.109375 0.96875l0 2.796875q0 0.84375 0.109375 0.9375q0.109375 0.09375 0.96875 0.09375l12.6875 0q1.75 0 3.0 1.28125q1.265625 1.265625 1.265625 3.015625l0 4.53125q0 1.75 -1.265625 3.015625q-1.25 1.25 -3.0 1.25l-13.546875 0zm25.228394 0q-1.75 0 -3.0 -1.234375q-1.234375 -1.25 -1.234375 -3.0l0 -9.3125q0 -1.75 1.234375 -2.984375q1.25 -1.25 3.0 -1.25l9.59375 0q1.75 0 2.984375 1.25q1.25 1.234375 1.25 2.984375l0 9.3125q0 1.75 -1.25 3.0q-1.234375 1.234375 -2.984375 1.234375l-9.59375 0zm0.859375 -4.015625l7.875 0q0.859375 0 0.96875 -0.109375q0.109375 -0.109375 0.109375 -0.96875l0 -7.59375q0 -0.859375 -0.109375 -0.96875q-0.109375 -0.109375 -0.96875 -0.109375l-7.875 0q-0.859375 0 -0.96875 0.109375q-0.109375 0.109375 -0.109375 0.96875l0 7.59375q0 0.859375 0.109375 0.96875q0.109375 0.109375 0.96875 0.109375zm19.649475 4.015625q-1.75 0 -3.0 -1.234375q-1.234375 -1.25 -1.234375 -3.0l0 -9.3125q0 -1.75 1.234375 -2.984375q1.25 -1.25 3.0 -1.25l9.59375 0q1.75 0 2.984375 1.25q1.25 1.234375 1.25 2.984375l0 9.3125q0 1.75 -1.25 3.0q-1.234375 1.234375 -2.984375 1.234375l-9.59375 0zm0.859375 -4.015625l7.875 0q0.859375 0 0.96875 -0.109375q0.109375 -0.109375 0.109375 -0.96875l0 -7.59375q0 -0.859375 -0.109375 -0.96875q-0.109375 -0.109375 -0.96875 -0.109375l-7.875 0q-0.859375 0 -0.96875 0.109375q-0.109375 0.109375 -0.109375 0.96875l0 7.59375q0 0.859375 0.109375 0.96875q0.109375 0.109375 0.96875 0.109375zm15.44751 4.015625l0 -17.78125l13.828125 0q1.75 0 2.984375 1.25q1.25 1.234375 1.25 2.984375l0 13.546875l-4.015625 0l0 -12.6875q0 -0.859375 -0.109375 -0.96875q-0.109375 -0.109375 -0.96875 -0.109375l-7.875 0q-0.859375 0 -0.96875 0.109375q-0.109375 0.109375 -0.109375 0.96875l0 12.6875l-4.015625 0z" fill-rule="nonzero"/><path fill="#000000" d="m179.24684 350.94498l0 -0.796875l5.78125 -6.875l-5.78125 -6.890625l0 -0.796875l3.046875 0l4.609375 5.46875l4.5625 -5.46875l3.0625 0l0 0.796875l-5.796875 6.890625l5.796875 6.859375l0 0.8125l-3.0625 0l-4.59375 -5.4375l-4.578125 5.4375l-3.046875 0zm20.066727 0q-1.21875 0 -2.078125 -0.859375q-0.859375 -0.875 -0.859375 -2.078125l0 -6.484375q0 -1.21875 0.859375 -2.078125q0.859375 -0.875 2.078125 -0.875l6.671875 0q1.21875 0 2.078125 0.875q0.875 0.859375 0.875 2.078125l0 4.640625l-9.78125 0l0 1.234375q0 0.609375 0.078125 0.6875q0.078125 0.0625 0.671875 0.0625l9.03125 0l0 2.796875l-9.625 0zm-0.15625 -7.296875l6.984375 0l0 -1.53125q0 -0.59375 -0.078125 -0.671875q-0.078125 -0.078125 -0.671875 -0.078125l-5.484375 0q-0.59375 0 -0.671875 0.078125q-0.078125 0.078125 -0.078125 0.671875l0 1.53125zm12.040375 7.296875l0 -12.375l9.609375 0q1.21875 0 2.078125 0.875q0.875 0.859375 0.875 2.078125l0 9.421875l-2.796875 0l0 -8.828125q0 -0.59375 -0.078125 -0.671875q-0.078125 -0.078125 -0.671875 -0.078125l-5.484375 0q-0.59375 0 -0.671875 0.078125q-0.0625 0.078125 -0.0625 0.671875l0 8.828125l-2.796875 0zm17.250107 0q-1.21875 0 -2.078125 -0.859375q-0.859375 -0.875 -0.859375 -2.078125l0 -6.484375q0 -1.21875 0.859375 -2.078125q0.859375 -0.875 2.078125 -0.875l6.671875 0q1.21875 0 2.078125 0.875q0.875 0.859375 0.875 2.078125l0 6.484375q0 1.203125 -0.875 2.078125q-0.859375 0.859375 -2.078125 0.859375l-6.671875 0zm0.59375 -2.796875l5.484375 0q0.59375 0 0.671875 -0.0625q0.078125 -0.078125 0.078125 -0.6875l0 -5.28125q0 -0.59375 -0.078125 -0.671875q-0.078125 -0.078125 -0.671875 -0.078125l-5.484375 0q-0.59375 0 -0.671875 0.078125q-0.078125 0.078125 -0.078125 0.671875l0 5.28125q0 0.609375 0.078125 0.6875q0.078125 0.0625 0.671875 0.0625zm17.894928 2.796875l0 -12.390625q0 -1.21875 0.875 -2.09375q0.875 -0.875 2.09375 -0.875l9.406265 0q1.234375 0 2.109375 0.875q0.875 0.875 0.875 2.09375l0 12.390625l-2.84375 0l0 -5.15625l-9.70314 0l0 5.15625l-2.8125 0zm2.8125 -7.984375l9.70314 0l0 -3.78125q0 -0.609375 -0.078125 -0.671875q-0.078125 -0.078125 -0.65625 -0.078125l-8.218765 0q-0.59375 0 -0.671875 0.078125q-0.078125 0.0625 -0.078125 0.671875l0 3.78125zm14.892899 7.984375l0 -9.421875q0 -1.21875 0.859375 -2.078125q0.875 -0.875 2.078125 -0.875l6.875 0l0 2.796875l-6.265625 0q-0.609375 0 -0.6875 0.078125q-0.0625 0.078125 -0.0625 0.671875l0 8.828125l-2.796875 0zm14.055206 0q-1.21875 0 -2.078125 -0.859375q-0.859375 -0.875 -0.859375 -2.078125l0 -6.484375q0 -1.21875 0.859375 -2.078125q0.859375 -0.875 2.078125 -0.875l9.59375 0l0 2.796875l-9.0 0q-0.59375 0 -0.671875 0.078125q-0.078125 0.078125 -0.078125 0.671875l0 5.28125q0 0.609375 0.078125 0.6875q0.078125 0.0625 0.671875 0.0625l9.03125 0l0 2.796875l-9.625 0zm11.414764 0l0 -16.421875l2.796875 0l0 4.046875l6.8125 0q1.203125 0 2.078125 0.875q0.875 0.859375 0.875 2.078125l0 9.421875l-2.796875 0l0 -8.828125q0 -0.59375 -0.078125 -0.671875q-0.078125 -0.078125 -0.671875 -0.078125l-5.484375 0q-0.59375 0 -0.671875 0.078125q-0.0625 0.078125 -0.0625 0.671875l0 8.828125l-2.796875 0zm14.243011 0l0 -12.375l2.796875 0l0 12.375l-2.796875 0zm0 -13.609375l0 -2.8125l2.796875 0l0 2.8125l-2.796875 0zm10.982178 13.609375l-6.796875 -12.375l3.21875 0l4.875 8.984375l4.875 -8.984375l3.21875 0l-6.828125 12.375l-2.5625 0zm13.176819 0q-1.203125 0 -2.078125 -0.859375q-0.859375 -0.875 -0.859375 -2.078125l0 -4.65625l9.765625 0l0 -1.234375q0 -0.59375 -0.078125 -0.671875q-0.0625 -0.078125 -0.671875 -0.078125l-9.015625 0l0 -2.796875l9.625 0q1.203125 0 2.0625 0.875q0.875 0.859375 0.875 2.078125l0 9.421875l-9.625 0zm0.609375 -2.796875l6.21875 0l0 -2.28125l-6.96875 0l0 1.53125q0 0.609375 0.0625 0.6875q0.078125 0.0625 0.6875 0.0625zm13.7230835 2.796875q-1.203125 0 -2.078125 -0.859375q-0.859375 -0.875 -0.859375 -2.078125l0 -13.5l2.8125 0l0 12.890625q0 0.609375 0.078125 0.6875q0.078125 0.0625 0.65625 0.0625l1.890625 0l0 2.796875l-2.5 0z" fill-rule="nonzero"/><path fill="#000000" d="m358.41434 344.69498q-0.546875 0 -0.859375 -0.296875q-0.296875 -0.296875 -0.296875 -0.859375l0 -0.40625q0 -0.546875 0.296875 -0.84375q0.3125 -0.296875 0.859375 -0.296875l0.5 0q0.5625 0 0.859375 0.296875q0.3125 0.296875 0.3125 0.84375l0 0.40625q0 0.5625 -0.3125 0.859375q-0.296875 0.296875 -0.859375 0.296875l-0.5 0z" fill-rule="nonzero"/><path fill="#000000" d="m371.53748 350.94498l0 -5.890625q0 -1.21875 0.859375 -2.078125q0.859375 -0.859375 2.078125 -0.859375l8.71875 0q0.609375 0 0.671875 -0.078125q0.078125 -0.078125 0.078125 -0.671875l0 -2.234375q0 -0.59375 -0.078125 -0.671875q-0.0625 -0.078125 -0.671875 -0.078125l-8.125 0q-0.59375 0 -0.671875 0.078125q-0.0625 0.078125 -0.0625 0.671875l0 0.546875l-2.796875 0l0 -1.140625q0 -1.25 0.859375 -2.09375q0.859375 -0.859375 2.078125 -0.859375l9.328125 0q1.203125 0 2.0625 0.859375q0.875 0.84375 0.875 2.09375l0 3.453125q0 1.21875 -0.875 2.078125q-0.859375 0.859375 -2.0625 0.859375l-8.734375 0q-0.59375 0 -0.671875 0.078125q-0.0625 0.078125 -0.0625 0.671875l0 1.71875q0 0.609375 0.0625 0.6875q0.078125 0.0625 0.671875 0.0625l11.671875 0l0 2.796875l-15.203125 0zm20.639893 0q-1.21875 0 -2.078125 -0.9375q-0.859375 -0.9375 -0.859375 -2.140625l0 -9.265625q0 -1.25 0.859375 -2.125q0.859375 -0.890625 2.078125 -0.890625l9.328125 0q1.203125 0 2.0625 0.890625q0.875 0.875 0.875 2.125l0 9.265625q0 1.203125 -0.875 2.140625q-0.859375 0.9375 -2.0625 0.9375l-9.328125 0zm1.140625 -2.9375l7.578125 0q0.609375 0 0.671875 -0.078125q0.078125 -0.078125 0.078125 -0.671875l0 -6.203125l-8.328125 6.953125zm-1.28125 -2.609375l8.328125 -6.953125l-7.59375 0q-0.59375 0 -0.671875 0.078125q-0.0625 0.078125 -0.0625 0.671875l0 6.203125zm14.7565 5.546875l0 -0.796875l5.78125 -6.875l-5.78125 -6.890625l0 -0.796875l3.046875 0l4.609375 5.46875l4.5625 -5.46875l3.0625 0l0 0.796875l-5.796875 6.890625l5.796875 6.859375l0 0.8125l-3.0625 0l-4.59375 -5.4375l-4.578125 5.4375l-3.046875 0zm17.318512 0l0 -0.796875l5.78125 -6.875l-5.78125 -6.890625l0 -0.796875l3.046875 0l4.609375 5.46875l4.5625 -5.46875l3.0625 0l0 0.796875l-5.796875 6.890625l5.796875 6.859375l0 0.8125l-3.0625 0l-4.59375 -5.4375l-4.578125 5.4375l-3.046875 0zm97.92169 0l0 -3.859375l-9.671875 0l0 -2.625l9.828125 -8.875l2.625 0l0 8.6875l2.15625 0l0 2.8125l-2.15625 0l0 3.859375l-2.78125 0zm-5.3125 -6.671875l5.3125 0l0 -4.4375l-5.3125 4.4375zm15.241455 6.671875q-1.21875 0 -2.078125 -0.859375q-0.859375 -0.875 -0.859375 -2.078125l0 -3.359375q0 -0.375 0.125 -0.765625q0.125 -0.40625 0.3125 -0.765625q-0.1875 -0.359375 -0.3125 -0.75q-0.125 -0.40625 -0.125 -0.8125l0 -3.015625q0 -1.25 0.859375 -2.09375q0.859375 -0.859375 2.078125 -0.859375l9.328125 0q1.0625 0 1.90625 0.703125q0.84375 0.703125 1.03125 1.703125l0 3.5625q0 0.390625 -0.125 0.796875q-0.109375 0.40625 -0.328125 0.765625q0.234375 0.359375 0.34375 0.75q0.109375 0.375 0.109375 0.78125l0 3.359375q0 1.203125 -0.875 2.078125q-0.859375 0.859375 -2.0625 0.859375l-9.328125 0zm0.59375 -2.796875l8.125 0q0.609375 0 0.671875 -0.0625q0.078125 -0.078125 0.078125 -0.6875l0 -2.125q0 -0.59375 -0.078125 -0.671875q-0.0625 -0.078125 -0.671875 -0.078125l-8.125 0q-0.59375 0 -0.671875 0.078125q-0.0625 0.078125 -0.0625 0.671875l0 2.125q0 0.609375 0.0625 0.6875q0.078125 0.0625 0.671875 0.0625zm0 -6.203125l8.125 0q0.609375 0 0.671875 -0.078125q0.078125 -0.09375 0.078125 -0.671875l0 -2.046875q0 -0.59375 -0.078125 -0.671875q-0.0625 -0.078125 -0.671875 -0.078125l-8.125 0q-0.59375 0 -0.671875 0.078125q-0.0625 0.078125 -0.0625 0.671875l0 2.046875q0 0.578125 0.0625 0.671875q0.078125 0.078125 0.671875 0.078125zm17.19403 9.0q-1.21875 0 -2.078125 -0.9375q-0.859375 -0.9375 -0.859375 -2.140625l0 -9.265625q0 -1.25 0.859375 -2.125q0.859375 -0.890625 2.078125 -0.890625l9.328125 0q1.203125 0 2.0625 0.890625q0.875 0.875 0.875 2.125l0 9.265625q0 1.203125 -0.875 2.140625q-0.859375 0.9375 -2.0625 0.9375l-9.328125 0zm1.140625 -2.9375l7.578125 0q0.609375 0 0.671875 -0.078125q0.078125 -0.078125 0.078125 -0.671875l0 -6.203125l-8.328125 6.953125zm-1.28125 -2.609375l8.328125 -6.953125l-7.59375 0q-0.59375 0 -0.671875 0.078125q-0.0625 0.078125 -0.0625 0.671875l0 6.203125zm14.75647 5.546875l0 -0.75l4.546875 -5.546875l-4.546875 -5.328125l0 -0.75l3.03125 0l3.328125 3.921875l3.328125 -3.921875l3.015625 0l0 0.75l-4.53125 5.328125l4.53125 5.546875l0 0.75l-3.0 0l-3.34375 -4.09375l-3.328125 4.09375l-3.03125 0zm17.86847 0q-1.234375 0 -2.109375 -0.859375q-0.859375 -0.875 -0.859375 -2.078125l0 -0.921875l2.796875 0l0 0.3125q0 0.609375 0.078125 0.6875q0.078125 0.0625 0.671875 0.0625l8.140625 0q0.578125 0 0.65625 -0.0625q0.09375 -0.078125 0.09375 -0.6875l0 -2.078125q0 -0.609375 -0.09375 -0.671875q-0.078125 -0.078125 -0.65625 -0.078125l-9.03125 0l0 -2.796875l8.421875 0q0.59375 0 0.671875 -0.078125q0.078125 -0.078125 0.078125 -0.671875l0 -1.890625q0 -0.59375 -0.078125 -0.671875q-0.078125 -0.078125 -0.671875 -0.078125l-7.53125 0q-0.59375 0 -0.671875 0.078125q-0.078125 0.078125 -0.078125 0.671875l0 0.515625l-2.796875 0l0 -1.109375q0 -1.25 0.859375 -2.09375q0.875 -0.859375 2.109375 -0.859375l8.703125 0q1.234375 0 2.078125 0.859375q0.859375 0.84375 0.859375 2.09375l0 3.109375q0 0.25 -0.046875 0.515625q-0.03125 0.265625 -0.125 0.5q0.390625 0.40625 0.59375 0.953125q0.203125 0.546875 0.203125 1.09375l0 3.296875q0 1.203125 -0.875 2.078125q-0.859375 0.859375 -2.0625 0.859375l-9.328125 0zm17.679626 0q-1.21875 0 -2.078125 -0.859375q-0.859375 -0.875 -0.859375 -2.078125l0 -9.46875q0 -1.25 0.859375 -2.09375q0.859375 -0.859375 2.078125 -0.859375l9.828125 0l0 2.796875l-9.234375 0q-0.59375 0 -0.671875 0.078125q-0.0625 0.078125 -0.0625 0.671875l0 1.8125q0 0.59375 0.0625 0.671875q0.078125 0.078125 0.671875 0.078125l8.734375 0q1.203125 0 2.0625 0.859375q0.875 0.859375 0.875 2.078125l0 3.375q0 1.203125 -0.875 2.078125q-0.859375 0.859375 -2.0625 0.859375l-9.328125 0zm0.59375 -2.796875l8.125 0q0.609375 0 0.671875 -0.0625q0.078125 -0.078125 0.078125 -0.6875l0 -2.140625q0 -0.609375 -0.078125 -0.671875q-0.0625 -0.078125 -0.671875 -0.078125l-8.859375 0l0 2.890625q0 0.609375 0.0625 0.6875q0.078125 0.0625 0.671875 0.0625zm16.895386 2.796875q-1.21875 0 -2.078125 -0.9375q-0.859375 -0.9375 -0.859375 -2.140625l0 -9.265625q0 -1.25 0.859375 -2.125q0.859375 -0.890625 2.078125 -0.890625l9.328125 0q1.203125 0 2.0625 0.890625q0.875 0.875 0.875 2.125l0 9.265625q0 1.203125 -0.875 2.140625q-0.859375 0.9375 -2.0625 0.9375l-9.328125 0zm1.140625 -2.9375l7.578125 0q0.609375 0 0.671875 -0.078125q0.078125 -0.078125 0.078125 -0.671875l0 -6.203125l-8.328125 6.953125zm-1.28125 -2.609375l8.328125 -6.953125l-7.59375 0q-0.59375 0 -0.671875 0.078125q-0.0625 0.078125 -0.0625 0.671875l0 6.203125z" fill-rule="nonzero"/></g></svg>